<svg xmlns="http://www.w3.org/2000/svg" width="102.39" height="40.714" viewBox="0 0 102.39 40.714">
  <g id="Group_42853" data-name="Group 42853" transform="translate(-562.163)">
    <path id="Path_34577" data-name="Path 34577" d="M678.825,90.6h13.706v.517a6.166,6.166,0,0,1-6.163,6.163h-1.379a6.166,6.166,0,0,1-6.163-6.163V90.6Z" transform="translate(-72.838 -56.567)" fill="#3f3d56"/>
    <path id="Path_34578" data-name="Path 34578" d="M670.131,36.588l-23.648-5.04-.123-1.375c-.009-.1-.023-.2-.039-.3l11.184-4.925a2.193,2.193,0,0,1,3.11-.921s3.8.576,2.995-3.11-5.989-1.037-5.989-1.037l-13.588,4.232-2.221-5.274a4.378,4.378,0,0,0-4.035-2.679h-7.9a4.378,4.378,0,0,0-3.956,2.5l-2.6,5.492-13.72-4.273s-5.183-2.649-5.989,1.037,2.995,3.11,2.995,3.11a2.193,2.193,0,0,1,3.11.921l10.944,4.82-.214.452a4.376,4.376,0,0,0-.4,1.481l-22.953,4.892a3.14,3.14,0,0,0-2.234,4.3l.541,1.27a3.12,3.12,0,0,0,4.71,1.327,2.329,2.329,0,0,0,.971-1.957L620.3,37.052a11.476,11.476,0,0,0,11.184,8.912h3.742a11.477,11.477,0,0,0,11.21-9.021l19.7,4.587a2.329,2.329,0,0,0,.971,1.957,3.12,3.12,0,0,0,4.71-1.327l.541-1.27a3.14,3.14,0,0,0-2.234-4.3Z" transform="translate(-20.249 -10.087)" fill="#3f3d56"/>
    <path id="Path_34579" data-name="Path 34579" d="M745.7,5.792,734.063,0s-1.2.052-.659.659,13.1,6.481,13.1,6.481L745.7,5.792h0Z" transform="translate(-106.826)" fill="#6c63ff"/>
    <path id="Path_34580" data-name="Path 34580" d="M774.638,21.194a6.509,6.509,0,0,0,2.534,3.455c1.958,1.267,12.9,4.377,12.9,4.377l1.612-1.037-12.093-6.68-4.031-.461-.921.346h0Z" transform="translate(-132.66 -13.017)" fill="#6c63ff"/>
    <path id="Path_34581" data-name="Path 34581" d="M795.118,55.582a6.509,6.509,0,0,0,4.275-.289C801.512,54.318,810,46.745,810,46.745l-.012-1.917-12.119,6.633-2.549,3.157-.2.963h0Z" transform="translate(-145.447 -27.989)" fill="#6c63ff"/>
    <path id="Path_34582" data-name="Path 34582" d="M768.743,72.255a6.509,6.509,0,0,0-4.133-1.13c-2.321.226-12.823,4.6-12.823,4.6l-.618,1.815,13.624-2.291,3.443-2.146.507-.844h0Z" transform="translate(-118.007 -44.391)" fill="#6c63ff"/>
    <path id="Path_34583" data-name="Path 34583" d="M629.195,5.792,640.828,0s1.2.052.659.659-13.1,6.481-13.1,6.481l.806-1.349Z" transform="translate(-41.348)" fill="#6c63ff"/>
    <path id="Path_34584" data-name="Path 34584" d="M593.926,21.194a6.509,6.509,0,0,1-2.534,3.455c-1.958,1.267-12.9,4.377-12.9,4.377L576.88,27.99l12.093-6.68L593,20.849l.921.346h0Z" transform="translate(-9.189 -13.017)" fill="#6c63ff"/>
    <path id="Path_34585" data-name="Path 34585" d="M577.044,55.582a6.509,6.509,0,0,1-4.275-.289c-2.119-.975-10.606-8.548-10.606-8.548l.012-1.917,12.119,6.633,2.548,3.157.2.963h0Z" transform="translate(0 -27.989)" fill="#6c63ff"/>
    <path id="Path_34586" data-name="Path 34586" d="M598.942,72.255a6.509,6.509,0,0,1,4.133-1.13c2.321.226,12.823,4.6,12.823,4.6l.618,1.815-13.624-2.291L599.448,73.1l-.507-.844h0Z" transform="translate(-22.963 -44.391)" fill="#6c63ff"/>
    <circle id="Ellipse_1290" data-name="Ellipse 1290" cx="3.225" cy="3.225" r="3.225" transform="translate(637.314 5.471)" fill="#3f3d56"/>
    <circle id="Ellipse_1291" data-name="Ellipse 1291" cx="3.225" cy="3.225" r="3.225" transform="translate(582.548 5.759)" fill="#3f3d56"/>
  </g>
</svg>
