<svg xmlns="http://www.w3.org/2000/svg" width="14.995" height="15" viewBox="0 0 14.995 15">
  <path id="filter" d="M17.162,4.666h-.975a2.5,2.5,0,0,0-4.715,0H3.833a.833.833,0,1,0,0,1.666h7.639a2.5,2.5,0,0,0,4.715,0h.975a.833.833,0,0,0,0-1.666ZM13.83,6.332A.833.833,0,1,0,13,5.5.833.833,0,0,0,13.83,6.332ZM3,10.5a.833.833,0,0,1,.833-.833h.975a2.5,2.5,0,0,1,4.715,0h7.639a.833.833,0,0,1,0,1.666H9.523a2.5,2.5,0,0,1-4.715,0H3.833A.833.833,0,0,1,3,10.5Zm4.165.833a.833.833,0,1,0-.833-.833A.833.833,0,0,0,7.165,11.33ZM3.833,14.663a.833.833,0,1,0,0,1.666h7.639a2.5,2.5,0,0,0,4.715,0h.975a.833.833,0,0,0,0-1.666h-.975a2.5,2.5,0,0,0-4.715,0Zm10.83.833a.833.833,0,1,1-.833-.833A.833.833,0,0,1,14.663,15.5Z" transform="translate(-3 -2.998)" fill="#8e9caa" fill-rule="evenodd"/>
</svg>
