<svg id="bx-message-square-detail" xmlns="http://www.w3.org/2000/svg" width="18" height="18" viewBox="0 0 18 18">
  <path id="Path_34411" data-name="Path 34411" d="M14.1,1.5H6.9A5.405,5.405,0,0,0,1.5,6.9V18.6a.9.9,0,0,0,.9.9H14.1a5.405,5.405,0,0,0,5.4-5.4V6.9A5.405,5.405,0,0,0,14.1,1.5Zm3.6,12.6a3.6,3.6,0,0,1-3.6,3.6H3.3V6.9A3.6,3.6,0,0,1,6.9,3.3h7.2a3.6,3.6,0,0,1,3.6,3.6Z" transform="translate(-1.5 -1.5)" fill="#697a8d"/>
  <path id="Path_34412" data-name="Path 34412" d="M5.25,6.75h7.5v1.5H5.25Zm0,3H10.5v1.5H5.25Z" transform="translate(0 0)" fill="#697a8d"/>
</svg>
