<svg xmlns="http://www.w3.org/2000/svg" width="15" height="15" viewBox="0 0 15 15">
  <path id="Path_34438" data-name="Path 34438" d="M7.491,14.983a7.491,7.491,0,1,1,7.491-7.491,7.438,7.438,0,0,1-1.557,4.551l1.289,1.289a.978.978,0,0,1-1.383,1.383l-1.289-1.289a7.438,7.438,0,0,1-4.551,1.558Zm4.165-3.751a5.6,5.6,0,1,0-8.41-7.39H6.531V5.378H2.3a5.532,5.532,0,0,0-.335,1.152h3.8V8.068H1.913A5.515,5.515,0,0,0,2.3,9.6H4.994v1.536H3.246a5.573,5.573,0,0,0,7.986.516.994.994,0,0,1,.424-.424Zm-5.894-.091h4.61V9.6H5.762v1.536ZM9.6,8.068h3.073V6.531H9.6Zm-3.074,0H8.452V6.531H6.531V8.068ZM7.683,5.378h3.074V3.842H7.683V5.378Z" fill="#8e9caa"/>
</svg>
