<svg xmlns="http://www.w3.org/2000/svg" width="12.844" height="15" viewBox="0 0 12.844 15">
  <path id="Path_34639" data-name="Path 34639" d="M19.21,10.078a6.521,6.521,0,0,0-.592-1.092l-1.243.839a4.919,4.919,0,0,1,.74,3.744,4.87,4.87,0,0,1-.288.923,4.8,4.8,0,0,1-.452.834A4.934,4.934,0,0,1,14.286,17.4a5.05,5.05,0,0,1-1.984,0,4.921,4.921,0,0,1-3.83-3.829,4.97,4.97,0,0,1,.286-2.907A4.913,4.913,0,0,1,9.814,9.1a4.97,4.97,0,0,1,1.564-1.055,4.9,4.9,0,0,1,.922-.286c.08-.016.162-.024.243-.037V10l3.749-3L12.544,4V6.2q-.273.03-.544.083A6.421,6.421,0,0,0,8.753,17.119a6.422,6.422,0,0,0,10.457-2.043,6.339,6.339,0,0,0,.375-1.206,6.425,6.425,0,0,0-.374-3.792Z" transform="translate(-6.871 -4)" fill="#566a7f"/>
</svg>
