<svg id="Oprions" xmlns="http://www.w3.org/2000/svg" width="3.5" height="14" viewBox="0 0 3.5 14">
  <g id="dots-vertical">
    <g id="Icon_Color" data-name="Icon Color">
      <path id="Icon_Color-2" data-name="Icon Color" d="M1.75,14A1.75,1.75,0,1,1,3.5,12.25,1.752,1.752,0,0,1,1.75,14Zm0-5.251A1.75,1.75,0,1,1,3.5,7,1.752,1.752,0,0,1,1.75,8.75Zm0-5.25A1.75,1.75,0,1,1,3.5,1.75,1.752,1.752,0,0,1,1.75,3.5Z" fill="#697a8d"/>
      <path id="Icon_Color-3" data-name="Icon Color" d="M1.75,14A1.75,1.75,0,1,1,3.5,12.25,1.752,1.752,0,0,1,1.75,14Zm0-5.251A1.75,1.75,0,1,1,3.5,7,1.752,1.752,0,0,1,1.75,8.75Zm0-5.25A1.75,1.75,0,1,1,3.5,1.75,1.752,1.752,0,0,1,1.75,3.5Z" fill="#697a8d"/>
    </g>
  </g>
</svg>
