<svg id="Edit_Btn" xmlns="http://www.w3.org/2000/svg" width="17" height="17" viewBox="0 0 17 17">
  <path id="Path_11" data-name="Path 11" d="M18.988,2.012l3,3L19.7,7.3l-3-3ZM8,16h3l7.287-7.287-3-3L8,13Z" transform="translate(-4.988 -2.012)" fill="#697a8d"/>
  <path id="Path_12" data-name="Path 12" d="M17.233,17.233H7.588c-.023,0-.047.009-.07.009s-.059-.008-.089-.009H4.779V4.779H10.87L12.649,3H4.779A1.78,1.78,0,0,0,3,4.779V17.233a1.78,1.78,0,0,0,1.779,1.779H17.233a1.779,1.779,0,0,0,1.779-1.779V9.522L17.233,11.3Z" transform="translate(-3 -2.012)" fill="#697a8d"/>
</svg>
