<svg id="Link" xmlns="http://www.w3.org/2000/svg" width="14.881" height="14.883" viewBox="0 0 14.881 14.883">
  <g id="bx-link" transform="translate(-2.601 -2.6)">
    <path id="Path_34471" data-name="Path 34471" d="M6.959,8.821a2.679,2.679,0,0,1,3.7,0l.617.617L12.508,8.2l-.617-.617a4.358,4.358,0,0,0-6.166,0L3.875,9.438A4.36,4.36,0,0,0,10.042,15.6l.617-.617L9.425,13.755l-.617.617a2.616,2.616,0,0,1-3.7-3.7l1.851-1.85Z" transform="translate(0 0.604)" fill="#697a8d"/>
    <path id="Path_34472" data-name="Path 34472" d="M9.345,3.875l-.617.617L9.962,5.725l.617-.617a2.616,2.616,0,0,1,3.7,3.7l-1.851,1.85a2.679,2.679,0,0,1-3.7,0l-.617-.617L6.879,11.275l.617.617a4.358,4.358,0,0,0,6.166,0l1.851-1.85A4.36,4.36,0,1,0,9.345,3.875Z" transform="translate(0.696 0)" fill="#697a8d"/>
  </g>
</svg>
