<svg xmlns="http://www.w3.org/2000/svg" width="15" height="15" viewBox="0 0 15 15">
  <path id="bxs-cube" d="M16.554,5.064l-6.75-3a.751.751,0,0,0-.61,0l-6.75,3c-.015.007-.026.018-.041.026a.607.607,0,0,0-.063.03c-.016.011-.029.025-.045.037a.653.653,0,0,0-.142.145c-.015.021-.031.04-.044.061a.839.839,0,0,0-.057.124c-.007.02-.017.039-.023.059A.76.76,0,0,0,2,5.75v7.5a.749.749,0,0,0,.445.685l6.75,3a.707.707,0,0,0,.606-.007l0,.007,6.75-3A.749.749,0,0,0,17,13.25V5.75A.749.749,0,0,0,16.554,5.064ZM9.5,3.571,14.4,5.75,9.5,7.929l-.981-.436L4.6,5.75ZM10.25,15.1V9.237L15.5,6.9v5.859Z" transform="translate(-2 -2)" fill="#5c5ad0"/>
</svg>
