<svg id="Add_Image" data-name="Add Image" xmlns="http://www.w3.org/2000/svg" width="44" height="44" viewBox="0 0 44 44">
  <rect id="Rectangle_17849" data-name="Rectangle 17849" width="44" height="44" fill="none"/>
  <g id="bx-image-add" transform="translate(0.001 0.55)">
    <path id="Union_39" data-name="Union 39" d="M31.425,39.983V33.67H25.141V29.46h6.284V23.146h4.192V29.46H41.9v4.21H35.618v6.314ZM4.189,33.67A4.2,4.2,0,0,1,0,29.46V4.21A4.2,4.2,0,0,1,4.189,0H31.425a4.206,4.206,0,0,1,4.192,4.21v14.73H31.425V4.21H4.189V29.46H20.952v4.21Zm2.094-8.415,6.286-8.417,2.1,4.207,6.287-8.417,8.38,12.627ZM8.061,11.27a2.6,2.6,0,1,1,2.6,2.608A2.6,2.6,0,0,1,8.061,11.27Z" transform="translate(1 1)" fill="#64748b"/>
  </g>
</svg>
