<svg id="Add_New" data-name="Add New" xmlns="http://www.w3.org/2000/svg" width="34" height="34" viewBox="0 0 34 34">
  <rect id="Rectangle_17836" data-name="Rectangle 17836" width="34" height="34" fill="none"/>
  <g id="bx-add-to-queue">
    <path id="Union_35" data-name="Union 35" d="M2.995,29.991a3.006,3.006,0,0,1-2.995-3V9H2.995V26.991h18v3Zm6-6a3,3,0,0,1-3-3V3A3,3,0,0,1,9,0H26.985a3.006,3.006,0,0,1,3,3V20.989a3,3,0,0,1-3,3Zm0-3H26.991L26.985,3H9ZM16.494,18V13.5H12v-3h4.5V6h2.995v4.5h4.5v3h-4.5V18Z" transform="translate(2 2)" fill="#5c5ad0"/>
  </g>
</svg>
