<svg id="Address" xmlns="http://www.w3.org/2000/svg" width="20" height="20" viewBox="0 0 20 20">
  <g id="bx-map-pin" transform="translate(0.216 0)">
    <path id="Union_22" data-name="Union 22" d="M0,11.3C0,9.441,1.71,7.811,4.463,7.045l.415,1.51c-2.018.56-3.322,1.638-3.322,2.747,0,1.482,2.556,3.132,6.227,3.132s6.227-1.65,6.227-3.132c0-1.109-1.3-2.187-3.32-2.746l.415-1.51c2.752.765,4.462,2.395,4.462,4.256,0,2.634-3.419,4.7-7.784,4.7S0,13.936,0,11.3Zm7.005-.828V6.331A3.2,3.2,0,0,1,4.67,3.223,3.173,3.173,0,0,1,7.784,0,3.173,3.173,0,0,1,10.9,3.223,3.2,3.2,0,0,1,8.562,6.331v4.143l-.779,1.611ZM6.227,3.223a1.558,1.558,0,1,0,3.114,0,1.558,1.558,0,1,0-3.114,0Z" transform="translate(2 2)" fill="#64748b"/>
  </g>
  <rect id="Rectangle_17822" data-name="Rectangle 17822" width="20" height="20" fill="none"/>
</svg>
