<svg id="Attachments" xmlns="http://www.w3.org/2000/svg" width="24" height="24" viewBox="0 0 24 24">
  <rect id="Rectangle_17748" data-name="Rectangle 17748" width="24" height="24" fill="none"/>
  <g id="bx-paperclip" transform="translate(2.999 24) rotate(-90)">
    <path id="Path_34830" data-name="Path 34830" d="M15,0H7A6.933,6.933,0,0,0,2.076,2.076a6.877,6.877,0,0,0,0,9.848A6.933,6.933,0,0,0,7,14h8V12H7a4.949,4.949,0,0,1-3.51-1.49,4.879,4.879,0,0,1,0-7.02A4.949,4.949,0,0,1,7,2h8V2h0a3,3,0,0,1,0,6H7A1.029,1.029,0,0,1,6,7a1,1,0,0,1,.3-.7A.987.987,0,0,1,7,6h8V4H7a3,3,0,0,0,0,6h8a4.99,4.99,0,0,0,3.528-8.528A4.95,4.95,0,0,0,15,0Z" transform="translate(2 2)" fill="#64748b"/>
  </g>
</svg>
