<svg xmlns="http://www.w3.org/2000/svg" xmlns:xlink="http://www.w3.org/1999/xlink" width="123.082" height="18.522" viewBox="0 0 123.082 18.522">
  <defs>
    <linearGradient id="linear-gradient" x1="0.963" y1="0.326" x2="0.242" y2="0.561" gradientUnits="objectBoundingBox">
      <stop offset="0" stop-color="#7e3dff"/>
      <stop offset="1" stop-color="#8f17e8"/>
    </linearGradient>
  </defs>
  <g id="Group_44091" data-name="Group 44091" transform="translate(-614.959 -191.479)">
    <g id="Brand-logo" transform="translate(614.959 191.479)">
      <g id="Layer_x0020_1" transform="translate(0.009 -0.001)">
        <g id="_2977988317872" transform="translate(-0.009 0.001)">
          <path id="Union_8" data-name="Union 8" d="M44.848,17.728a1.159,1.159,0,1,1,1.1.794A1.162,1.162,0,0,1,44.848,17.728Zm66.58-1.408a6.514,6.514,0,0,1-1.908-4.792,6.731,6.731,0,0,1,1.908-4.9,6.39,6.39,0,0,1,4.78-1.952,6.657,6.657,0,0,1,4.961,1.944,7.009,7.009,0,0,1,1.912,5.136l-.013.613H112.662a3.514,3.514,0,0,0,1.2,2.2,3.747,3.747,0,0,0,2.487.816,4.287,4.287,0,0,0,3.113-1.279l2.718,1.286a6.479,6.479,0,0,1-2.439,2.148,7.655,7.655,0,0,1-3.376.693A6.655,6.655,0,0,1,111.429,16.32ZM114,8.2a4.185,4.185,0,0,0-1.188,1.638h7.035a3.211,3.211,0,0,0-1.265-1.725,3.738,3.738,0,0,0-2.2-.661A3.943,3.943,0,0,0,114,8.2ZM95.3,16.3a6.731,6.731,0,0,1-1.829-4.817,6.921,6.921,0,0,1,1.773-4.9,5.66,5.66,0,0,1,4.3-1.907,5.552,5.552,0,0,1,2.188.436,6,6,0,0,1,1.889,1.31V0h3.239V17.919h-3.239V16.542a6.321,6.321,0,0,1-1.906,1.3,5.391,5.391,0,0,1-2.075.4A5.768,5.768,0,0,1,95.3,16.3Zm2.407-7.587a3.807,3.807,0,0,0-1,2.722,3.862,3.862,0,0,0,1.014,2.755,3.5,3.5,0,0,0,5.036.018,3.875,3.875,0,0,0,1.01-2.784,3.758,3.758,0,0,0-1.01-2.73,3.4,3.4,0,0,0-2.549-1.042A3.274,3.274,0,0,0,97.708,8.708Zm-17.9,7.554a6.539,6.539,0,0,1-1.972-4.794,6.514,6.514,0,0,1,2.229-5.041,6.512,6.512,0,0,1,4.487-1.753A6.871,6.871,0,0,1,88,5.587a6.677,6.677,0,0,1,3.424,5.855,6.76,6.76,0,0,1-.909,3.412,6.567,6.567,0,0,1-2.484,2.483,6.892,6.892,0,0,1-3.466.9A6.471,6.471,0,0,1,79.81,16.262Zm2.274-7.5a3.723,3.723,0,0,0-1.007,2.686,3.788,3.788,0,0,0,.993,2.724,3.334,3.334,0,0,0,2.519,1.042,3.374,3.374,0,0,0,2.536-1.055,3.749,3.749,0,0,0,1.012-2.71,3.748,3.748,0,0,0-1-2.7,3.593,3.593,0,0,0-5.059.013ZM21.3,17.285a5,5,0,0,1-1.85-2.646,15.846,15.846,0,0,1-.382-4.271V4.991h3.288v6.215a8.579,8.579,0,0,0,.251,2.52,2.212,2.212,0,0,0,.8,1.1,2.324,2.324,0,0,0,1.366.39,2.409,2.409,0,0,0,1.38-.386,2.238,2.238,0,0,0,.84-1.132,8.7,8.7,0,0,0,.2-2.386V4.991h3.239v5.47A13.375,13.375,0,0,1,29.9,15.09a5.045,5.045,0,0,1-1.927,2.332,5.928,5.928,0,0,1-3.233.811A5.744,5.744,0,0,1,21.3,17.285Zm51.63.634L71.062,6.876l-3.7,11.042H64.423L60.74,6.876l-1.9,11.042H55.589L58.6.438H61.83L65.9,12.631,69.99.438h3.218l2.93,17.48Zm-38.862,0V7.79H32.412v-2.8h1.655V.219h3.239V4.991h1.923v2.8H37.306V17.919Zm-20.682,0-1.363-3.6H4.857l-1.4,3.6H0L6.768.438H10.12l6.727,17.48ZM6.079,11.1h4.727L8.448,5.083ZM49.19,17.265a.4.4,0,1,1,.23.074A.392.392,0,0,1,49.19,17.265Zm-6.665-.5v0a1.152,1.152,0,1,1,.35.057A1.184,1.184,0,0,1,42.524,16.761ZM48.136,15a.712.712,0,1,1,.216.034A.726.726,0,0,1,48.136,15Zm3.41-.444a.457.457,0,1,1,.459.455h0A.458.458,0,0,1,51.546,14.554ZM44.7,14.27a1.16,1.16,0,1,1,.35.054A1.161,1.161,0,0,1,44.7,14.27Zm-4.244-1.117a1.163,1.163,0,1,1,.936.472A1.164,1.164,0,0,1,40.457,13.152Zm9.681-.328a.715.715,0,1,1,.214.033A.715.715,0,0,1,50.138,12.824Zm-3.846-1.06a.926.926,0,1,1,.88.637A.927.927,0,0,1,46.292,11.765Zm6.019-.386a.467.467,0,1,1,.754-.552h0a.466.466,0,0,1-.752.552Zm-8.866-.463a.922.922,0,1,1,.879.637A.927.927,0,0,1,43.445,10.916ZM48.307,9.63a.931.931,0,1,1,.882.636A.929.929,0,0,1,48.307,9.63Zm-7.4-.61a1.161,1.161,0,1,1,1.17,1.152h-.01A1.16,1.16,0,0,1,40.907,9.02Zm4.485.052a.925.925,0,1,1,.88.638A.929.929,0,0,1,45.392,9.072Zm5.6-.481a.718.718,0,1,1,.215.033A.732.732,0,0,1,50.993,8.59ZM44.041,7.459a1.037,1.037,0,1,1,.6.2A1.036,1.036,0,0,1,44.041,7.459Zm3.216-.971a.929.929,0,1,1,1.173.589.945.945,0,0,1-.293.047A.924.924,0,0,1,47.257,6.489Z" transform="translate(0)"/>
        </g>
      </g>
    </g>
    <path id="Path_34798" data-name="Path 34798" d="M3001.057,405.253a1.162,1.162,0,1,1,.733-1.47,1.161,1.161,0,0,1-.733,1.47Zm2.249-4.824a.714.714,0,1,1-.9.463.714.714,0,0,1,.9-.463Zm2-2.176a.714.714,0,1,1-.9.463A.713.713,0,0,1,3005.307,398.252Zm-6.536-1.722a.929.929,0,1,1-.589,1.175A.929.929,0,0,1,2998.771,396.53Zm4.862-1.286a.929.929,0,1,1-.589,1.175.929.929,0,0,1,.589-1.175Zm-2.015,2.135a.929.929,0,1,1-.589,1.175.929.929,0,0,1,.589-1.175Zm-.9-2.694a.929.929,0,1,1-.589,1.175A.929.929,0,0,1,3000.718,394.685Zm-1.28,6.374a1.162,1.162,0,1,1,1.458-.757,1.162,1.162,0,0,1-1.458.757Zm5.043,2.906a.4.4,0,1,1-.091-.555A.4.4,0,0,1,3004.481,403.965Zm2.716-2.625a.457.457,0,1,1-.459-.455.457.457,0,0,1,.459.455Zm.6-3.726a.467.467,0,1,1-.653-.1.468.468,0,0,1,.653.1Zm-1.635-3.6a.714.714,0,1,1-.9.463.714.714,0,0,1,.9-.463Zm-3.581-1.917a.929.929,0,1,1-.589,1.175A.929.929,0,0,1,3002.583,392.1Zm-4.044.7a1.039,1.039,0,1,1,.24,1.449,1.038,1.038,0,0,1-.24-1.449Zm-2.894,3.008a1.161,1.161,0,1,1,1.169,1.154,1.162,1.162,0,0,1-1.169-1.154Zm-.449,4.135a1.161,1.161,0,1,1,1.624.245,1.162,1.162,0,0,1-1.624-.245Zm2.067,3.609a1.162,1.162,0,1,1,1.458-.757,1.162,1.162,0,0,1-1.458.757Z" transform="translate(-2339.898 -195.313)" fill-rule="evenodd" fill="url(#linear-gradient)"/>
  </g>
</svg>
