<svg xmlns="http://www.w3.org/2000/svg" width="222.43" height="218.744" viewBox="0 0 222.43 218.744">
  <path id="Path_34760" data-name="Path 34760" d="M84.55,183.661a11.769,11.769,0,1,0-.007,0Zm31.23-67.128a9.934,9.934,0,1,1-12.456,6.445,9.933,9.933,0,0,1,12.456-6.445Zm27.8-30.28A9.934,9.934,0,1,1,131.12,92.7,9.93,9.93,0,0,1,143.576,86.253ZM52.8,62.294a12.93,12.93,0,1,1-8.179,16.355A12.9,12.9,0,0,1,52.8,62.294Zm67.526-17.9a12.929,12.929,0,1,1-8.183,16.353A12.894,12.894,0,0,1,120.329,44.4ZM92.338,74.108A12.93,12.93,0,1,1,84.156,90.46a12.9,12.9,0,0,1,8.182-16.353Zm-12.5-37.478a12.93,12.93,0,1,1-8.182,16.354A12.9,12.9,0,0,1,79.842,36.629ZM62.063,125.317a16.161,16.161,0,1,1,20.243-10.54,16.173,16.173,0,0,1-20.243,10.54ZM132.1,165.746a5.53,5.53,0,1,1-1.26-7.726A5.521,5.521,0,0,1,132.1,165.746Zm37.714-36.518a6.344,6.344,0,1,1-6.375-6.329,6.348,6.348,0,0,1,6.375,6.329Zm8.368-51.845a6.489,6.489,0,1,1-9.067-1.389,6.52,6.52,0,0,1,9.067,1.389ZM155.467,27.327a9.935,9.935,0,1,1-12.455,6.445,9.933,9.933,0,0,1,12.455-6.445ZM105.742.661A12.93,12.93,0,1,1,97.56,17.016,12.9,12.9,0,0,1,105.742.661ZM49.574,10.384A14.432,14.432,0,1,1,52.9,30.549,14.4,14.4,0,0,1,49.574,10.384ZM9.386,52.235A16.131,16.131,0,1,1,25.628,68.289,16.149,16.149,0,0,1,9.386,52.235ZM3.147,109.769A16.141,16.141,0,1,1,25.7,113.177a16.2,16.2,0,0,1-22.557-3.408ZM31.86,159.98A16.161,16.161,0,1,1,52.1,149.44,16.169,16.169,0,0,1,31.86,159.98Z" transform="translate(222.43 44.635) rotate(104)" fill="rgba(92,90,209,0.2)" fill-rule="evenodd"/>
</svg>
