<svg id="Bank" xmlns="http://www.w3.org/2000/svg" width="20" height="20" viewBox="0 0 20 20">
  <rect id="Rectangle_17751" data-name="Rectangle 17751" width="20" height="20" fill="none"/>
  <g id="Group_43509" data-name="Group 43509" transform="translate(0.01 0.676)">
    <path id="bank-2" data-name="bank" d="M7.99,0l7.99,3.139V4.185H14.915a.482.482,0,0,1-.17.368.58.58,0,0,1-.4.155H1.64a.58.58,0,0,1-.4-.155.482.482,0,0,1-.17-.368H0V3.139ZM2.131,5.232H4.261v6.278H5.327V5.232H7.457v6.278H8.523V5.232h2.131v6.278h1.065V5.232H13.85v6.278h.491a.58.58,0,0,1,.4.155.482.482,0,0,1,.17.368v.523H1.065v-.523a.482.482,0,0,1,.17-.368.58.58,0,0,1,.4-.155h.491Zm13.275,7.847a.58.58,0,0,1,.4.155.482.482,0,0,1,.17.368v1.046H0V13.6a.482.482,0,0,1,.17-.368.58.58,0,0,1,.4-.155H15.406Z" transform="translate(2 2)" fill="#64748b"/>
  </g>
</svg>
