<svg xmlns="http://www.w3.org/2000/svg" width="92" height="23.06" viewBox="0 0 92 23.06">
  <g id="Group_45006" data-name="Group 45006" transform="translate(-0.075 -0.075)">
    <path id="Path_34389" data-name="Path 34389" d="M130.574,151.686h-.123a1.64,1.64,0,0,0-1.022.258.969.969,0,0,0-.32.8.642.642,0,0,0,.123.431.368.368,0,0,0,.332.16.745.745,0,0,0,.64-.406,3.945,3.945,0,0,0,.369-1.243m-.345,1.957a1.781,1.781,0,0,1-.554.431,1.461,1.461,0,0,1-.665.135,1.331,1.331,0,0,1-.948-.357,1.2,1.2,0,0,1-.357-.911,1.922,1.922,0,0,1,.591-1.575,3.109,3.109,0,0,1,1.945-.48h.308a.994.994,0,0,1,.2.012c.025-.16.049-.283.062-.382a1.671,1.671,0,0,0,.012-.222.541.541,0,0,0-.123-.394.5.5,0,0,0-.369-.123.557.557,0,0,0-.419.16.965.965,0,0,0-.209.48H128.31a1.518,1.518,0,0,1,.566-1.108,2.378,2.378,0,0,1,1.415-.345,2.6,2.6,0,0,1,1.44.32,1.184,1.184,0,0,1,.455,1.034c0,.123-.012.246-.025.394s-.049.3-.086.455l-.418,1.945c-.037.172-.062.345-.086.517s-.037.332-.062.517h-1.354Zm-4.714.037a1.258,1.258,0,0,1-.48.443,1.414,1.414,0,0,1-.677.135,1.308,1.308,0,0,1-.96-.32,1.352,1.352,0,0,1-.32-.985,5.3,5.3,0,0,1,.062-.665c.037-.271.086-.566.16-.886a8.316,8.316,0,0,1,.246-.9,3.078,3.078,0,0,1,.271-.628,1.812,1.812,0,0,1,.591-.652,1.518,1.518,0,0,1,.8-.209,1.4,1.4,0,0,1,.665.148,1.409,1.409,0,0,1,.5.5l.6-2.782h1.428l-1.378,6.449c-.025.1-.037.222-.062.357s-.037.283-.062.443h-1.465Zm.111-3.717a.554.554,0,0,0-.382.135,1.127,1.127,0,0,0-.258.492,10.839,10.839,0,0,0-.308,1.206,5.446,5.446,0,0,0-.111.96.607.607,0,0,0,.123.418.416.416,0,0,0,.357.135.505.505,0,0,0,.345-.135,1.3,1.3,0,0,0,.283-.418,3.278,3.278,0,0,0,.135-.443q.074-.277.148-.665t.111-.665a3.531,3.531,0,0,0,.037-.443.691.691,0,0,0-.123-.431.455.455,0,0,0-.357-.148m-4.689-.111a.555.555,0,0,0-.382.135,1.076,1.076,0,0,0-.258.431,2.906,2.906,0,0,0-.086.283c-.037.135-.062.271-.1.443-.025.1-.049.234-.086.418a9.064,9.064,0,0,0-.222,1.243.693.693,0,0,0,.123.455.481.481,0,0,0,.382.16.611.611,0,0,0,.394-.135.963.963,0,0,0,.271-.431,4.848,4.848,0,0,0,.135-.492c.049-.222.111-.468.172-.738s.1-.48.123-.677a4.044,4.044,0,0,0,.037-.48.657.657,0,0,0-.123-.443.423.423,0,0,0-.382-.172m-2.523,2.745a3.171,3.171,0,0,1,.049-.554,6.476,6.476,0,0,1,.135-.714,8.2,8.2,0,0,1,.234-.849,2.863,2.863,0,0,1,.271-.578,1.937,1.937,0,0,1,.751-.7,2.485,2.485,0,0,1,1.12-.222,2.057,2.057,0,0,1,1.4.431,1.606,1.606,0,0,1,.48,1.255,4.476,4.476,0,0,1-.037.554,5.3,5.3,0,0,1-.123.677,7.914,7.914,0,0,1-.234.837,2.779,2.779,0,0,1-.283.6,1.909,1.909,0,0,1-.738.7,2.486,2.486,0,0,1-1.12.222,2.057,2.057,0,0,1-1.4-.431,1.472,1.472,0,0,1-.5-1.231m-3.36,1.563.837-3.951c.037-.185.074-.382.111-.566a4.267,4.267,0,0,0,.074-.554h1.391l-.123.738a1.728,1.728,0,0,1,.578-.578,1.523,1.523,0,0,1,.763-.185h.135c.025,0,.062,0,.074.012l-.258,1.255h-.025a2.862,2.862,0,0,0-.357-.037.993.993,0,0,0-.775.3,2.1,2.1,0,0,0-.431,1l-.542,2.572Zm-1.538-2.474h-.123a1.64,1.64,0,0,0-1.022.258.969.969,0,0,0-.32.8.642.642,0,0,0,.123.431.368.368,0,0,0,.332.16.746.746,0,0,0,.64-.406,4.3,4.3,0,0,0,.369-1.243m-.357,1.957a1.781,1.781,0,0,1-.554.431,1.46,1.46,0,0,1-.665.135,1.331,1.331,0,0,1-.948-.357,1.2,1.2,0,0,1-.357-.911,1.922,1.922,0,0,1,.591-1.575,3.109,3.109,0,0,1,1.945-.48h.308a1,1,0,0,1,.2.012c.025-.16.049-.283.062-.382a1.671,1.671,0,0,0,.012-.222.541.541,0,0,0-.123-.394.5.5,0,0,0-.369-.123.556.556,0,0,0-.418.16.964.964,0,0,0-.209.48h-1.391a1.518,1.518,0,0,1,.566-1.108,2.378,2.378,0,0,1,1.415-.345,2.6,2.6,0,0,1,1.44.32,1.184,1.184,0,0,1,.455,1.034c0,.123-.012.246-.025.394s-.049.3-.086.455l-.418,1.945c-.037.172-.062.345-.086.517s-.037.332-.062.517H113.1Zm-8.086.517,1.551-7.262h2.043a3.154,3.154,0,0,1,1.748.369,1.338,1.338,0,0,1,.529,1.194,2.087,2.087,0,0,1-.431,1.366,1.776,1.776,0,0,1-1.231.615,1.275,1.275,0,0,1,.812.468,1.574,1.574,0,0,1,.271.948,2.681,2.681,0,0,1-.222,1.1,1.8,1.8,0,0,1-.6.763,2.386,2.386,0,0,1-.862.345,10.076,10.076,0,0,1-1.649.1Zm1.76-1.132h.665a1.477,1.477,0,0,0,1.046-.308,1.226,1.226,0,0,0,.332-.96.747.747,0,0,0-.246-.628,1.425,1.425,0,0,0-.837-.185H107.3Zm.677-3.188h.529a1.725,1.725,0,0,0,1.1-.271,1.063,1.063,0,0,0,.332-.874.605.605,0,0,0-.246-.542,1.523,1.523,0,0,0-.825-.172h-.468Zm-6.609,4.32.874-4.172h-.788l.2-.886h.8l.148-.751a2.129,2.129,0,0,1,.566-1.182,1.585,1.585,0,0,1,1.108-.369c.148,0,.3,0,.443.012s.3.025.443.049l-.2.972c-.074-.012-.148-.025-.2-.037a.552.552,0,0,0-.135-.012.544.544,0,0,0-.394.135.83.83,0,0,0-.209.431l-.148.751h.825l-.185.886H103.2l-.886,4.172Zm-1.932-4.308a.577.577,0,0,0-.382.135.947.947,0,0,0-.246.431,2.882,2.882,0,0,0-.086.283c-.037.135-.062.271-.1.443-.025.1-.049.234-.086.418a9.059,9.059,0,0,0-.222,1.243.693.693,0,0,0,.123.455.472.472,0,0,0,.369.16.577.577,0,0,0,.382-.135.954.954,0,0,0,.258-.431,4.831,4.831,0,0,0,.135-.492c.049-.222.111-.468.16-.738s.086-.48.123-.677a2.451,2.451,0,0,0,.037-.48.657.657,0,0,0-.123-.443c-.049-.123-.172-.172-.345-.172M96.494,152.6a3.169,3.169,0,0,1,.049-.554c.025-.209.074-.455.123-.714a8.2,8.2,0,0,1,.234-.849,2.323,2.323,0,0,1,.271-.578,1.828,1.828,0,0,1,.738-.7,2.375,2.375,0,0,1,1.1-.222,2.01,2.01,0,0,1,1.378.431,1.6,1.6,0,0,1,.468,1.255,4.479,4.479,0,0,1-.037.554,5.3,5.3,0,0,1-.123.677,7.918,7.918,0,0,1-.234.837,2.809,2.809,0,0,1-.271.6,1.829,1.829,0,0,1-.738.7,2.375,2.375,0,0,1-1.1.222,1.988,1.988,0,0,1-1.378-.431,1.533,1.533,0,0,1-.48-1.231m-6.375,1.563,1.575-7.262h1.465l-.886,4.062,1.612-1.871h1.563l-1.9,2.24,1.022,2.818h-1.5l-.886-2.868-.615,2.868H90.119Zm-4.714,0,.9-4.135c.049-.209.086-.394.111-.529s.049-.271.062-.394h1.391l-.086.578a1.5,1.5,0,0,1,.554-.529,1.625,1.625,0,0,1,.763-.16,1.207,1.207,0,0,1,.862.271,1,1,0,0,1,.3.788,3.251,3.251,0,0,1-.025.357,2.49,2.49,0,0,1-.049.32l-.738,3.446H87.977l.751-3.459c.025-.1.037-.185.049-.234a.509.509,0,0,0,.012-.123.405.405,0,0,0-.1-.3.394.394,0,0,0-.283-.1.654.654,0,0,0-.5.283,1.736,1.736,0,0,0-.32.775l-.689,3.151H85.4Zm-1.563-2.474h-.135a1.681,1.681,0,0,0-1.034.258.934.934,0,0,0-.32.8.642.642,0,0,0,.123.431.382.382,0,0,0,.332.16.763.763,0,0,0,.652-.406,3.622,3.622,0,0,0,.382-1.243m-.345,1.957a1.692,1.692,0,0,1-.566.431,1.5,1.5,0,0,1-.665.135,1.341,1.341,0,0,1-.96-.357,1.206,1.206,0,0,1-.369-.911,1.922,1.922,0,0,1,.591-1.575,3.167,3.167,0,0,1,1.969-.48H83.8a1.193,1.193,0,0,1,.209.012,3.383,3.383,0,0,0,.062-.382,1.674,1.674,0,0,0,.012-.222.541.541,0,0,0-.123-.394.509.509,0,0,0-.382-.123.556.556,0,0,0-.418.16.868.868,0,0,0-.209.48H81.54a1.528,1.528,0,0,1,.578-1.108,2.438,2.438,0,0,1,1.44-.345,2.616,2.616,0,0,1,1.452.32,1.184,1.184,0,0,1,.455,1.034c0,.123-.012.246-.025.394s-.049.3-.086.455l-.418,1.945c-.037.172-.062.345-.086.517s-.049.332-.062.517H83.423Zm-8.2.517,1.575-7.262h2.068a3.222,3.222,0,0,1,1.772.369,1.345,1.345,0,0,1,.542,1.194,2.087,2.087,0,0,1-.431,1.366,1.8,1.8,0,0,1-1.243.615,1.306,1.306,0,0,1,.825.468,1.5,1.5,0,0,1,.271.948,2.681,2.681,0,0,1-.222,1.1,1.822,1.822,0,0,1-.615.763,2.386,2.386,0,0,1-.862.345,10.433,10.433,0,0,1-1.674.1Zm1.785-1.132h.665a1.512,1.512,0,0,0,1.058-.308,1.226,1.226,0,0,0,.332-.96.747.747,0,0,0-.246-.628,1.47,1.47,0,0,0-.849-.185h-.5Zm.689-3.188H78.3a1.79,1.79,0,0,0,1.108-.271,1.063,1.063,0,0,0,.332-.874.605.605,0,0,0-.246-.542,1.573,1.573,0,0,0-.837-.172h-.468Z" transform="translate(-40.111 -131.816)" fill="#f94f00"/>
    <path id="Path_34390" data-name="Path 34390" d="M112.161,47.574h1.169l-.209,1.046h-1.169Zm-3.274-2.437a1,1,0,0,1-.738.48h-.074c-.382,0-.578-.406-.443-.9l.234-.837,1.009,1.28Zm-.086-2.2h.062c.382,0,.578.406.455.9l-.185.677-1.022-1.169a.939.939,0,0,1,.689-.406m-1.858-2.018h9.194L115.1,39.549l.874-.714,1.218,2.08h.32l-.923-2.486,1.157-.529.665,3.028h8.579l-.135.591h-.763l-1.477,5.563h-1.243l1.477-5.563h-1.083l-.492,1.415a10.839,10.839,0,0,0-1.785-.025c-.431.086-.517.3-.652.652a20.874,20.874,0,0,0-.628,2.326c.049.517.332.615.862.6a1.471,1.471,0,0,1,.689-1.526c.406-.2,1.12-.209,1.268.271a1.234,1.234,0,0,1-1.009,1.415c.135.418.443.455.9.64l-1.3.714a1.932,1.932,0,0,1-.529-1.108,2.3,2.3,0,0,1-1.76,0,.751.751,0,0,1-.32-.283,1.675,1.675,0,0,1-.246-1.132,6.411,6.411,0,0,1,.258-1.354,2.527,2.527,0,0,1,.763-1.292c.652-.591,1.342-.542,2.375-.492l.246-.825h-3.655l-1.477,5.563h-1.243l1.477-5.563h-1.009l-.566,1.908-1.218.037-.086-.455a1.8,1.8,0,0,0-.886-.1c-.345.062-.418.271-.517.578s-.123.64.111.726a4.041,4.041,0,0,0,1.44.049c.517-.012.825.185.8.677a3.691,3.691,0,0,1-.431,1.378,1.056,1.056,0,0,1-.517.578,6.372,6.372,0,0,1-2.055.148q-.462,0-.886-.037a.73.73,0,0,1-.345-.123.829.829,0,0,1-.258-.283.856.856,0,0,1-.062-.714l.111-.492,1.489.025c-.16.369-.209.64-.111.788.209.308.96.16,1.206,0l.3-.96c.062-.222-.074-.32-.271-.369a3.928,3.928,0,0,0-.849-.037,1.811,1.811,0,0,1-.96-.123c-.431-.283-.32-1.022-.16-1.5a1.167,1.167,0,0,1,.7-.812c.837-.382,2.154-.283,2.425.209l.258-1.145h-3.914l-1.428,5.6h-1.243l.332-1.3a1.886,1.886,0,0,1-1.329.578h-.135a1.094,1.094,0,0,1-1.132-1.391l.32-1.354a1.925,1.925,0,0,1,1.785-1.391h.135a1.116,1.116,0,0,1,1.083.652l.357-1.391H106.82ZM93.318,38.909l1.243-.012a.855.855,0,0,0-.025.628.838.838,0,0,0,1.071-.037,1.776,1.776,0,0,0,.234-.566l1.366-.012c-.123.6-.345,1.108-.911,1.243a8.15,8.15,0,0,1-2.622-.025c-.665-.123-.468-.665-.357-1.218m3.262,7.68h1.169l-.209,1.058H96.37ZM100,41.506H98.93l-.689,2.732c-.283,1.009.308,1.046.9.5Zm-7.729-.591h11.643l-.135.591h-2.437L101,42.835c1.108-.652,1.9-.48,2.154.025a1.307,1.307,0,0,1-.037,1.009l-.7,2.609h-1.329l.64-2.511c.283-1-.3-1.046-.886-.517l-.911,3.594-1.415.049.455-1.723c-1.108.665-1.9.48-2.166-.012a1.307,1.307,0,0,1,.037-1.009l.751-2.831H96.53l-1.477,5.563H93.81l1.477-5.563h-1.1l-1.477,5.563H91.472l.763-2.88H91.127l.2-.775h1.108l.5-1.92H92.1Zm-2.129,2.9a1.048,1.048,0,0,1,.862,1.5l-.074.209a2.228,2.228,0,0,1-1.945,1.514H86.413l.2-.751h1.8a1.247,1.247,0,0,0,1.12-.972l.025-.135a.73.73,0,0,0-.677-.972H87.423l.1-.406Zm0,0Zm.025,0a1.659,1.659,0,0,0,1.44-1.415l.025-.2a1.274,1.274,0,0,0-1.3-1.428H88.038l-.185.738h1.575a.715.715,0,0,1,.714.9l-.025.123a1.151,1.151,0,0,1-1.071.9H87.632l-.086.369Zm-10.228-.8h0a.42.42,0,0,1,.357.492l-.529,1.822a.468.468,0,0,1-.578.258.42.42,0,0,1-.357-.492l.529-1.822a.468.468,0,0,1,.578-.258m-2.006-3.668H79.1l-.209,1.058H77.724Zm-2.979,5.785a1,1,0,0,1-.738.48h-.062c-.382,0-.578-.406-.443-.9l.234-.837,1.009,1.28Zm-.086-2.2h.062c.382,0,.578.406.455.9l-.185.677L74.179,43.34a.939.939,0,0,1,.689-.406M73.01,40.915h2.117l-1.034-1.366.874-.714,1.218,2.08h.32l-.923-2.486,1.157-.529.665,3.028h7.459l-.135.591H82.118l-.3,1.206c1.169-.763,2.462-.566,2.338.837a5.631,5.631,0,0,1-.455,1.674,2.015,2.015,0,0,1-.738.9,1.653,1.653,0,0,1-1.378.123c-.16-.025-.172,0-.111-.16l.074-.209c.025-.086.025-.074.111-.074a.874.874,0,0,0,.357-.062c.185-.086.32-.418.418-.788s.431-1.514.234-1.858c-.086-.148-.345-.172-.566-.037a1.569,1.569,0,0,0-.455.443l-.874,3.594H79.521l.32-1.3a1.634,1.634,0,0,1-1.194.578h-.135a1.084,1.084,0,0,1-1.083-1.391l.308-1.354a1.86,1.86,0,0,1,1.711-1.391h.135a.951.951,0,0,1,.96.64l.369-1.378H77.318l-1.428,5.6H74.6l.332-1.3a1.886,1.886,0,0,1-1.329.578h-.135a1.094,1.094,0,0,1-1.132-1.391l.32-1.354a1.925,1.925,0,0,1,1.785-1.391h.135a1.116,1.116,0,0,1,1.083.652l.357-1.391H72.862Z" transform="translate(-37.477 -36.323)" fill="#f94f00" fill-rule="evenodd"/>
    <path id="Path_34391" data-name="Path 34391" d="M-188.423,29.738c-.135.751-.135.751-.234,1.231a7.772,7.772,0,0,1-.972,1.81c-.025.012-.037.025-.062.037a9.272,9.272,0,0,1-4.111,2.659c-.32.074-.32.074-.357.1v.074c.111.111.32.086.455.086a.964.964,0,0,0,.32.049,7.934,7.934,0,0,1,1.7.726c.037.049.3.234.714.6l.369.443a5.443,5.443,0,0,1,.6,1.231l.148.665a6.579,6.579,0,0,1,.025.886c-.049.308-.111.615-.16.923-.086.185-.111.32-.258.689a8.392,8.392,0,0,1-1.145,1.773,15.115,15.115,0,0,1-1.834,1.6.944.944,0,0,0-.357.209,18.678,18.678,0,0,1-3.1,1.329c-.677.135-1.342.271-2.031.357-1.255.074-1.255.074-1.612.111-1.108.037-5.379.246-5.452.234a.262.262,0,0,1,0-.283c1.145-.332,2.314-.714,3.471-1,.1-.037,2.043-.6,2.24-.677.874-.185,1.735-.517,2.6-.751.2-.074,1.231-.357,2.191-.64a26.726,26.726,0,0,0,2.572-.751.239.239,0,0,0,.037-.16.268.268,0,0,1-.062-.049c-.074,0-1.182.283-6.351,1.539a.269.269,0,0,0-.062.037c-.948.185-1.9.455-2.843.677-.074.025-.148.049-.209.074-3.582.849-3.582.849-3.668.886h-.1c-.074-.1-.123-.111-.1-.246.271-.172.271-.172.935-.554.172-.074,1.809-1.009,1.969-1.083,1.3-.776,2.659-1.5,3.963-2.265,1.1-.6,2.2-1.231,3.3-1.834a.676.676,0,0,0,.111-.086c.837-.431,1.649-.911,2.474-1.366a6.853,6.853,0,0,0,1.132-.64.13.13,0,0,0-.086-.209c-.8.406-1.588.825-2.375,1.231a.58.58,0,0,0-.246.123c-2.265,1.157-2.265,1.157-2.449,1.231-.258.16-.935.492-1,.542-.985.492-1.969,1.009-2.942,1.539a.782.782,0,0,0-.086.025c-.529.357-1.169.591-1.711.923-.948.468-1.908.96-2.843,1.453-.111.025-.825.529-.751.037.332-.308.665-.628,1-.936a2.907,2.907,0,0,1,.394-.357,7.076,7.076,0,0,1,1.206-1.145,1.067,1.067,0,0,0,.086-.123c.862-.8,1.735-1.613,2.56-2.462,2.474-2.363,4.96-4.727,7.446-7.053a.862.862,0,0,1,.258-.258c1.514-1.453,1.612-1.563,3.409-3.274.123-.086.123-.086.16-.16,0-.3-.172-.16-.332-.037-.443.443-.923.837-1.378,1.268-.172.246-.48.419-.677.652a15.661,15.661,0,0,1-1.428,1.268,13.1,13.1,0,0,1-1.157,1.034c-1.415,1.366-2.978,2.6-4.382,3.976-.689.542-1.292,1.243-1.994,1.773a18.838,18.838,0,0,1-1.44,1.366.828.828,0,0,1-.135.086c-1.4,1.293-2.831,2.56-4.258,3.828-.16,0-.2-.037-.185-.2,1.711-2.487,3.422-4.985,5.108-7.484.689-1.034,1.366-2.093,2.092-3.1.517-.763.554-.837.738-1.083,1.317-1.957,2.7-3.927,3.988-5.909.16-.16.111-.259-.1-.234-1.1,1.539-2.228,3.053-3.311,4.616-.185.234-.529.751-4.2,5.884-.086.135-1.4,1.933-1.489,2.043-1.182,1.649-2.363,3.324-3.569,4.948-.062.049-.123.1-.209.049v-.148c.862-2.24,1.772-4.493,2.708-6.7,1.366-3.434,2.732-6.893,4.123-10.328a.146.146,0,0,0-.049-.135.185.185,0,0,0-.135.049c-1.058,2.376-2.154,4.752-3.225,7.127-.049.062-1.169,2.56-1.489,3.2-.135.332-.246.542-.394.886-.911,1.92-1.785,3.878-2.658,5.822a.366.366,0,0,1-.32.012,14.414,14.414,0,0,1,.443-1.723c.037-.086.16-.566.2-.665.037-.172.074-.258.492-1.908.222-.825.443-1.65.677-2.462.037-.172,2.129-7.743,2.154-7.854.074-.246.135-.48.209-.726.271-1.059.554-2.043.763-2.893a.217.217,0,0,1,.1-.111c3.742,0,7.5.012,11.249-.012a9.14,9.14,0,0,1,3.372.751,1.978,1.978,0,0,0,.382.234,6.157,6.157,0,0,1,.7.591c.123.172.234.345.357.517.074.172.135.357.209.529.049.259.111.517.16.763,0,.2,0,.419.012.652m5.994.972a10.475,10.475,0,0,1-.308,1.526c-.308.64-.308.64-.5,1a7.5,7.5,0,0,1-1.292,1.428c-.468.357-.468.357-.972.714a21.059,21.059,0,0,1-1.908.936,3.312,3.312,0,0,0-.763.271c0,.062,0,.062.012.086a4.9,4.9,0,0,1,2.24.825,7.261,7.261,0,0,1,.935.911,6.4,6.4,0,0,1,.788,1.489c.049.222.1.431.148.652a9.8,9.8,0,0,1,.037,1.046,6.466,6.466,0,0,1-1.022,2.77c-.345.48-.345.48-.689.923a7.481,7.481,0,0,1-2.1,1.674,9.25,9.25,0,0,1-2.018.972c-.419.123-.849.258-1.268.394a7.143,7.143,0,0,0-1.046.209,8.934,8.934,0,0,0-.923.111c-4.209.172-8.468.1-12.677.1-.049-.086-.074-.209.037-.259,2.019-.086,4.049-.185,6.068-.246a7.846,7.846,0,0,0,1.206-.049,33.677,33.677,0,0,0,4.012-.32c.086-.037.443-.111.972-.246a9.573,9.573,0,0,0,6.117-5.121,1.407,1.407,0,0,1,.148-.369l.185-.886c.012-.726.012-.726,0-1.009a4.6,4.6,0,0,0-.763-1.982c-.185-.2-.357-.406-.542-.6a5.031,5.031,0,0,0-2.818-1.219c0-.086.025-.1.1-.135a6.207,6.207,0,0,0,.652-.209,8.756,8.756,0,0,0,4.3-3.459c.1-.222.2-.455.3-.689a8.184,8.184,0,0,0,.32-1.723c-.025-.259-.037-.517-.049-.776-.049-.16-.1-.332-.148-.5a3.323,3.323,0,0,0-.812-1.194,5.057,5.057,0,0,0-2.043-1.009.074.074,0,0,1,.012-.049,5.461,5.461,0,0,1,1.268.025,7.906,7.906,0,0,0,.849.111c.222.049.443.1.677.148a6.349,6.349,0,0,1,2.031.874c.172.16.357.32.529.48.148.234.3.455.443.677.074.222.148.431.222.652.012.32.062.689.074,1.059" transform="translate(209.975 -25.625)" fill="#f94f00" fill-rule="evenodd"/>
  </g>
</svg>
