<svg id="bx-exit" xmlns="http://www.w3.org/2000/svg" width="15" height="14.998" viewBox="0 0 15 14.998">
  <g id="Group_41515" data-name="Group 41515" transform="translate(0)">
    <g id="Group_41514" data-name="Group 41514" transform="translate(0)">
      <path id="Path_34439" data-name="Path 34439" d="M14.6,1.266H2.933A1.668,1.668,0,0,0,1.266,2.932V6.265H2.933V2.932H14.6V14.6H2.933V11.264H1.266V14.6a1.668,1.668,0,0,0,1.666,1.666H14.6A1.668,1.668,0,0,0,16.265,14.6V2.932A1.669,1.669,0,0,0,14.6,1.266Z" transform="translate(-1.265 -1.266)" fill="#5c5ad0"/>
      <path id="Path_34440" data-name="Path 34440" d="M7.9,10.012,12.05,6.693,7.9,3.375v2.49H1.266V7.524H7.9Z" transform="translate(-1.266 0.806)" fill="#5c5ad0"/>
    </g>
  </g>
</svg>
