<svg id="Barcode" xmlns="http://www.w3.org/2000/svg" width="20" height="20" viewBox="0 0 20 20">
  <rect id="Rectangle_17847" data-name="Rectangle 17847" width="20" height="20" fill="none"/>
  <g id="Group_44652" data-name="Group 44652" transform="translate(0 0.7)">
    <path id="Union_38" data-name="Union 38" d="M9.8,12.6V11.2h2.8V8.4H14v2.8a1.4,1.4,0,0,1-1.4,1.4Zm-8.4,0A1.4,1.4,0,0,1,0,11.2V8.4H1.4v2.8H4.2v1.4ZM9.8,9.8v-7h2.1v7Zm-1.4,0v-7h.7v7Zm-2.8,0v-7H7.7v7Zm-1.4,0v-7h.7v7Zm-2.1,0v-7H3.5v7ZM12.6,4.2V1.4H9.8V0h2.8A1.4,1.4,0,0,1,14,1.4V4.2ZM0,4.2V1.4A1.4,1.4,0,0,1,1.4,0H4.2V1.4H1.4V4.2Z" transform="translate(3 3)" fill="#64748b"/>
  </g>
</svg>
