<svg id="bx-barcode-reader" xmlns="http://www.w3.org/2000/svg" width="15" height="13.5" viewBox="0 0 15 13.5">
  <path id="Path_34436" data-name="Path 34436" d="M3.75,5.25h1.5v7.5H3.75Zm6.75,0h.75v7.5H10.5Zm-3,0H9.75v7.5H7.5ZM6,5.25h.75v7.5H6Zm6,0h2.25v7.5H12Z" transform="translate(-1.5 -2.25)" fill="#8e9caa"/>
  <path id="Path_34437" data-name="Path 34437" d="M3,3.75H6V2.25H3a1.5,1.5,0,0,0-1.5,1.5v3H3Zm0,12H6v-1.5H3v-3H1.5v3A1.5,1.5,0,0,0,3,15.75ZM15,2.25H12v1.5h3v3h1.5v-3A1.5,1.5,0,0,0,15,2.25Zm0,12H12v1.5h3a1.5,1.5,0,0,0,1.5-1.5v-3H15Z" transform="translate(-1.5 -2.25)" fill="#8e9caa"/>
</svg>
