<svg xmlns="http://www.w3.org/2000/svg" width="14" height="15.273" viewBox="0 0 14 15.273">
  <g id="bx-buildings" transform="translate(-2 -2)">
    <path id="Union_20" data-name="Union 20" d="M.777,15.273A.771.771,0,0,1,0,14.508V7.636A1.543,1.543,0,0,1,1.555,6.109H3.111V1.527A1.543,1.543,0,0,1,4.667,0h7.777A1.543,1.543,0,0,1,14,1.527V14.508a.772.772,0,0,1-.779.765ZM4.667,6.109H6.221A1.543,1.543,0,0,1,7.777,7.636v6.109h4.667V1.527H4.667ZM1.555,13.745H6.221V7.636H1.555Zm7.779-3.054V9.164h1.555v1.527Zm-6.223,0V9.165H4.667v1.526ZM9.333,7.636v-1.5h1.555v1.5Zm0-3.054V3.054h1.555V4.582Zm-3.112,0V3.054H7.777V4.582Z" transform="translate(2 2)" fill="#64748b"/>
  </g>
</svg>
