<svg xmlns="http://www.w3.org/2000/svg" width="46" height="46" viewBox="0 0 46 46">
  <g id="Group_45166" data-name="Group 45166" transform="translate(13355 17589)">
    <g id="Group_45165" data-name="Group 45165" transform="translate(-13731 -17650)">
      <g id="Group_42830" data-name="Group 42830" transform="translate(376 61)">
        <circle id="Ellipse_1283" data-name="Ellipse 1283" cx="23" cy="23" r="23" fill="#ffe6ec"/>
      </g>
    </g>
    <g id="Group_42827" data-name="Group 42827" transform="translate(-13728 -17647)">
      <g id="Group_42830-2" data-name="Group 42830" transform="translate(376 61)">
        <circle id="Ellipse_1283-2" data-name="Ellipse 1283" cx="20" cy="20" r="20" fill="#ffb4c6"/>
      </g>
    </g>
    <g id="warning-filled" transform="translate(-13353 -17587)">
      <path id="Path_34531" data-name="Path 34531" d="M21,3A18,18,0,1,0,39,21,18.053,18.053,0,0,0,21,3Zm-1.414,7.714h2.829V24.857H19.586V10.714ZM21,32.571a1.929,1.929,0,1,1,1.929-1.929A1.977,1.977,0,0,1,21,32.571Z" transform="translate(0 0)" fill="#ff1f54"/>
    </g>
  </g>
</svg>
