<svg id="Customer_Vendor" data-name="Customer &amp; Vendor" xmlns="http://www.w3.org/2000/svg" width="20" height="20" viewBox="0 0 20 20">
  <rect id="Rectangle_17748" data-name="Rectangle 17748" width="20" height="20" fill="none"/>
  <g id="bx-user-circle" transform="translate(0)">
    <path id="Union_24" data-name="Union 24" d="M3.28,14.4H3.2v-.064A8,8,0,0,1,0,8,8.1,8.1,0,0,1,8,0a8.1,8.1,0,0,1,8,8,8,8,0,0,1-3.2,6.336V14.4h-.08a7.76,7.76,0,0,1-9.44,0Zm1.576-.856a6.2,6.2,0,0,0,6.288,0A2.4,2.4,0,0,0,8.8,11.656H7.2A2.4,2.4,0,0,0,4.856,13.544ZM8.8,10.056a4,4,0,0,1,3.688,2.456A6.4,6.4,0,0,0,14.4,8,6.48,6.48,0,0,0,8,1.6,6.48,6.48,0,0,0,1.6,8a6.4,6.4,0,0,0,1.912,4.512A4,4,0,0,1,7.2,10.056ZM8,9.6A3.129,3.129,0,0,1,4.8,6.4,3.128,3.128,0,0,1,8,3.2a3.128,3.128,0,0,1,3.2,3.2A3.129,3.129,0,0,1,8.073,9.6ZM9.154,7.554A1.528,1.528,0,0,0,9.6,6.4,1.529,1.529,0,0,0,8,4.8,1.528,1.528,0,0,0,6.4,6.4,1.528,1.528,0,0,0,8,8,1.528,1.528,0,0,0,9.154,7.554Z" transform="translate(2 2)" fill="#64748b"/>
  </g>
</svg>
