<svg xmlns="http://www.w3.org/2000/svg" width="16" height="16" viewBox="0 0 16 16">
  <g id="Group_43508" data-name="Group 43508" transform="translate(-2 -2)">
    <path id="bxs-cube" d="M17.525,5.269l-7.2-3.2a.8.8,0,0,0-.65,0l-7.2,3.2c-.016.007-.027.019-.043.028a.647.647,0,0,0-.067.032c-.018.012-.031.027-.048.04a.7.7,0,0,0-.152.155c-.016.022-.033.042-.047.065a.9.9,0,0,0-.061.132c-.007.022-.018.042-.025.063A.81.81,0,0,0,2,6v8a.8.8,0,0,0,.475.731l7.2,3.2a.754.754,0,0,0,.646-.008l0,.008,7.2-3.2A.8.8,0,0,0,18,14V6A.8.8,0,0,0,17.525,5.269ZM10,3.676,15.23,6,10,8.324,8.953,7.859,4.77,6Zm.8,12.292V9.72l5.6-2.489V13.48Z" transform="translate(0 0)" fill="#64748b"/>
  </g>
</svg>
