<svg xmlns="http://www.w3.org/2000/svg" width="15.963" height="15.879" viewBox="0 0 15.963 15.879">
  <g id="Group_43510" data-name="Group 43510" transform="translate(-2 -2)">
    <g id="bxs-user-account" transform="translate(2 2)">
      <path id="Union_32" data-name="Union 32" d="M1.588,15.879A1.59,1.59,0,0,1,0,14.291V4.764H1.588v9.527h9.527v1.588Zm3.186-3.092a1.6,1.6,0,0,1-1.6-1.6V1.6A1.6,1.6,0,0,1,4.774,0h9.59a1.6,1.6,0,0,1,1.6,1.6v9.59a1.6,1.6,0,0,1-1.6,1.6Zm.8-2.6v.2h7.992v-.2c0-1.478-1.8-3-4-3S5.573,8.712,5.573,10.19ZM7.571,4a2,2,0,1,0,2-2A2,2,0,0,0,7.571,4Z" transform="translate(0)" fill="#64748b"/>
    </g>
  </g>
</svg>
