<svg id="bx-edit" xmlns="http://www.w3.org/2000/svg" width="14.309" height="14.219" viewBox="0 0 14.309 14.219">
  <path id="Path_34444" data-name="Path 34444" d="M4.375,10.919l2.845-.01,6.209-6.15a1.289,1.289,0,0,0,0-1.823L12.407,1.914a1.321,1.321,0,0,0-1.821,0L4.375,8.063ZM11.5,2.825l1.024,1.02-1.03,1.02L10.468,3.844ZM5.664,8.6,9.552,4.75l1.022,1.022L6.687,9.622l-1.023,0Z" transform="translate(0.502 -1.549)" fill="#5c5ad0"/>
  <path id="Path_34445" data-name="Path 34445" d="M3.407,15.666H14.133a1.534,1.534,0,0,0,1.532-1.532V7.492L14.133,9.025v5.109H5.827c-.02,0-.041.008-.061.008s-.051-.007-.077-.008H3.407V3.407H8.653l1.532-1.532H3.407A1.534,1.534,0,0,0,1.875,3.407V14.133A1.534,1.534,0,0,0,3.407,15.666Z" transform="translate(-1.875 -1.446)" fill="#5c5ad0"/>
</svg>
