<svg id="Email" xmlns="http://www.w3.org/2000/svg" width="20" height="20" viewBox="0 0 20 20">
  <rect id="Rectangle_17810" data-name="Rectangle 17810" width="20" height="20" transform="translate(0)" fill="none"/>
  <g id="bx-envelope" transform="translate(0 1.944)">
    <path id="Path_34729" data-name="Path 34729" d="M18.4,8H5.6A1.56,1.56,0,0,0,4,9.514V18.6a1.56,1.56,0,0,0,1.6,1.514H18.4A1.56,1.56,0,0,0,20,18.6V9.514A1.56,1.56,0,0,0,18.4,8Zm0,1.514V9.9L12,14.612,5.6,9.9V9.514ZM5.6,18.6v-6.78l5.909,4.349a.831.831,0,0,0,.982,0L18.4,11.818l0,6.78Z" transform="translate(-2 -6)" fill="#64748b"/>
  </g>
</svg>
