<svg xmlns="http://www.w3.org/2000/svg" id="Hide" width="24" height="24" viewBox="0 0 24 24"> <rect id="Rectangle_17769" data-name="Rectangle 17769" width="24" height="24" fill="none"/> <g id="Path_34759" data-name="Path 34759" transform="translate(-0.875 -1.314)" fill="#64748B"> <path d="M 20.23342895507812 21.33041954040527 L 4.962803840637207 5.857404708862305 L 5.515127182006836 5.297760963439941 L 8.432868003845215 8.253355026245117 L 8.681568145751953 8.505284309387207 L 9.00180721282959 8.354394912719727 C 10.19337749481201 7.792944431304932 11.46006774902344 7.520014762878418 12.87425804138184 7.520014762878418 C 15.52313804626465 7.520014762878418 17.72596740722656 8.457394599914551 19.42157745361328 10.30610466003418 C 20.72628784179688 11.72862434387207 21.22355842590332 13.17310428619385 21.22842788696289 13.18753433227539 C 21.25555801391602 13.26937484741211 21.25555801391602 13.35975456237793 21.22835731506348 13.44181442260742 C 21.22125816345215 13.46257495880127 20.42627716064453 15.73534488677979 18.24133682250977 17.38772392272949 L 17.78640747070312 17.73177528381348 L 18.18706703186035 18.13774490356445 L 20.78570938110352 20.77082252502441 L 20.23342895507812 21.33041954040527 Z M 12.87425804138184 11.11664485931396 C 14.04627799987793 11.11664485931396 15.03643798828125 12.12296485900879 15.03643798828125 13.31411457061768 C 15.03643798828125 13.62380504608154 14.96109771728516 13.93752479553223 14.81250762939453 14.24657440185547 L 14.65994739532471 14.56387424468994 L 14.90725803375244 14.81445503234863 L 16.93051719665527 16.86453437805176 L 17.22494697570801 17.16287422180176 L 17.57009696960449 16.92502403259277 C 19.27303695678711 15.75151443481445 20.09333801269531 14.14720439910889 20.36696815490723 13.5119047164917 L 20.45202827453613 13.31443500518799 L 20.36720848083496 13.11686420440674 C 19.8839168548584 11.99118423461914 17.91529846191406 8.318334579467773 12.87425804138184 8.318334579467773 C 12.85362815856934 8.318134307861328 12.82868766784668 8.318024635314941 12.80371761322021 8.318024635314941 C 11.83819770812988 8.318024635314941 10.88561725616455 8.479024887084961 9.972427368164062 8.796534538269043 L 9.224658012390137 9.056534767150879 L 9.780767440795898 9.620024681091309 L 11.38517761230469 11.24570465087891 L 11.63954734802246 11.50344467163086 L 11.96375751495361 11.34214496612549 C 12.26451778411865 11.19251441955566 12.57085800170898 11.11664485931396 12.87425804138184 11.11664485931396 Z M 12.87425804138184 19.10821533203125 C 10.22914791107178 19.10821533203125 8.028667449951172 18.17340469360352 6.333937644958496 16.32975387573242 C 5.035389423370361 14.91709232330322 4.537096500396729 13.48873615264893 4.521787166595459 13.44408226013184 L 4.521037578582764 13.44181442260742 C 4.493837833404541 13.35975456237793 4.493837833404541 13.26937484741211 4.521037578582764 13.18731498718262 C 4.525048732757568 13.17550849914551 4.931099891662598 12.00078964233398 5.963566780090332 10.72907066345215 L 6.501138210296631 11.27376079559326 C 6.05097484588623 11.83400917053223 5.675976276397705 12.45049095153809 5.383477687835693 13.11188411712646 L 5.295357704162598 13.31115436553955 L 5.381307601928711 13.51136493682861 C 5.864577770233154 14.63704490661621 7.833167552947998 18.30989456176758 12.87425804138184 18.30989456176758 C 13.06931114196777 18.30989456176758 13.25601959228516 18.30165481567383 13.4264554977417 18.29086685180664 L 14.15502738952637 19.02909278869629 C 13.73778915405273 19.08169746398926 13.30956363677979 19.10821533203125 12.87425804138184 19.10821533203125 Z" stroke="none"/> <path d="M 14.155198097229 14.45981311798096 L 14.36188793182373 14.0299243927002 C 14.477707862854 13.78901481628418 14.53643798828125 13.54818439483643 14.53643798828125 13.31411457061768 C 14.53643798828125 12.39399433135986 13.77524757385254 11.61664485931396 12.87425804138184 11.61664485931396 C 12.64882755279541 11.61664485931396 12.4174280166626 11.67490482330322 12.18647766113281 11.78980445861816 L 11.73955154418945 12.01215076446533 L 14.155198097229 14.45981311798096 M 20.23342704772949 22.0422248840332 L 4.260307788848877 5.857404708862305 L 5.515077590942383 4.586004734039307 L 8.788687705993652 7.902084350585938 C 9.905027389526367 7.376084804534912 11.24410724639893 7.020014762878418 12.87425804138184 7.020014762878418 C 19.64774703979492 7.020014762878418 21.68342781066895 12.96973419189453 21.70295715332031 13.02998447418213 C 21.76416778564453 13.21463489532471 21.76416778564453 13.41449451446533 21.70295715332031 13.59914493560791 C 21.69052696228027 13.63691425323486 20.86258697509766 16.03226470947266 18.54293823242188 17.78652381896973 L 21.48820686340332 20.77082443237305 L 20.23342704772949 22.0422248840332 Z M 12.87425804138184 10.61664485931396 C 14.33046722412109 10.61664485931396 15.53643798828125 11.83859443664551 15.53643798828125 13.31411457061768 C 15.53643798828125 13.72682476043701 15.43172740936279 14.11256504058838 15.26312732696533 14.46323490142822 L 17.2863883972168 16.51331520080566 C 18.873046875 15.41993427276611 19.63975715637207 13.93632411956787 19.90775680541992 13.31411457061768 C 19.46227836608887 12.27648448944092 17.62270736694336 8.818334579467773 12.87425804138184 8.818334579467773 C 11.94308757781982 8.810242652893066 11.0173978805542 8.962564468383789 10.13663768768311 9.268804550170898 L 11.74104785919189 10.8944845199585 C 12.08624744415283 10.72274494171143 12.46693801879883 10.61664485931396 12.87425804138184 10.61664485931396 Z M 12.87425804138184 19.60821533203125 C 6.100757598876953 19.60821533203125 4.065077781677246 13.65849494934082 4.046437740325928 13.59914493560791 C 3.985227584838867 13.41449451446533 3.985227584838867 13.21463489532471 4.046437740325928 13.02998447418213 C 4.056197643280029 13.00030422210693 4.573547840118408 11.49062442779541 5.93836784362793 9.991734504699707 L 7.178947448730469 11.24874496459961 C 6.62702751159668 11.86048412322998 6.175257682800293 12.5577449798584 5.840757846832275 13.31411457061768 C 6.286227703094482 14.35174465179443 8.125797271728516 17.80989456176758 12.87425804138184 17.80989456176758 C 13.13248729705811 17.80989456176758 13.37829780578613 17.79461479187012 13.62055778503418 17.77573394775391 L 15.17970752716064 19.35554504394531 C 14.48043727874756 19.51559448242188 13.7137279510498 19.60821533203125 12.87425804138184 19.60821533203125 Z" stroke="none" fill="#64748B"/> </g> </svg>