<svg xmlns="http://www.w3.org/2000/svg" width="16" height="16" viewBox="0 0 16 16">
  <g id="bx-hide" transform="translate(0 0)">
    <path id="Path_34669" data-name="Path 34669" d="M9.333,15.3a9.139,9.139,0,0,0,2.078-.232l-1.406-1.448c-.218.017-.44.031-.673.031A6.691,6.691,0,0,1,2.992,9.529,7.146,7.146,0,0,1,4.2,7.636L3.08,6.483A8.825,8.825,0,0,0,1.375,9.268a.843.843,0,0,0,0,.522A8.439,8.439,0,0,0,9.333,15.3Zm0-11.538a8.38,8.38,0,0,0-3.683.808L2.7,1.529,1.568,2.694l14.4,14.835L17.1,16.363l-2.655-2.735A8.979,8.979,0,0,0,17.292,9.79a.843.843,0,0,0,0-.522A8.441,8.441,0,0,0,9.333,3.76Zm3.978,8.7-1.824-1.879A2.454,2.454,0,0,0,9.333,7.056a2.253,2.253,0,0,0-1.022.255L6.865,5.821a7.211,7.211,0,0,1,2.468-.413,6.691,6.691,0,0,1,6.341,4.121A7.021,7.021,0,0,1,13.311,12.461Z" transform="translate(-1.333 -1.529)" fill="#697a8d"/>
  </g>
</svg>
