<svg id="Filter" xmlns="http://www.w3.org/2000/svg" width="16" height="16" viewBox="0 0 16 16">
  <path id="filter-2" data-name="filter" d="M14.332,4.332h-.78a2,2,0,0,0-3.773,0H3.667a.667.667,0,1,0,0,1.333H9.78a2,2,0,0,0,3.773,0h.78a.667.667,0,0,0,0-1.333ZM11.666,5.666A.667.667,0,1,0,11,5,.667.667,0,0,0,11.666,5.666ZM3,9a.667.667,0,0,1,.667-.667h.78a2,2,0,0,1,3.773,0h6.113a.667.667,0,0,1,0,1.333H8.22a2,2,0,0,1-3.773,0h-.78A.667.667,0,0,1,3,9Zm3.333.667A.667.667,0,1,0,5.666,9,.667.667,0,0,0,6.333,9.665ZM3.667,12.332a.667.667,0,1,0,0,1.333H9.78a2,2,0,0,0,3.773,0h.78a.667.667,0,1,0,0-1.333h-.78a2,2,0,0,0-3.773,0ZM12.333,13a.667.667,0,1,1-.667-.667A.667.667,0,0,1,12.333,13Z" transform="translate(-1 -0.998)" fill="#94a2b8" fill-rule="evenodd"/>
</svg>
