<svg id="bx-coin-stack" xmlns="http://www.w3.org/2000/svg" width="22.4" height="28" viewBox="0 0 22.4 28">
  <path id="Path_34638" data-name="Path 34638" d="M19.2,32c5.566,0,11.2-1.924,11.2-5.6V9.6C30.4,5.924,24.766,4,19.2,4S8,5.924,8,9.6V26.4C8,30.076,13.634,32,19.2,32Zm0-2.8c-5.211,0-8.4-1.813-8.4-2.8V24.625A18.452,18.452,0,0,0,19.2,26.4a18.452,18.452,0,0,0,8.4-1.775V26.4C27.6,27.387,24.411,29.2,19.2,29.2Zm0-22.4c5.211,0,8.4,1.813,8.4,2.8s-3.189,2.8-8.4,2.8-8.4-1.813-8.4-2.8S13.989,6.8,19.2,6.8Zm-8.4,6.625A18.452,18.452,0,0,0,19.2,15.2a18.452,18.452,0,0,0,8.4-1.775V15.2c0,.987-3.189,2.8-8.4,2.8s-8.4-1.813-8.4-2.8Zm0,5.6A18.452,18.452,0,0,0,19.2,20.8a18.452,18.452,0,0,0,8.4-1.775V20.8c0,.987-3.189,2.8-8.4,2.8s-8.4-1.813-8.4-2.8Z" transform="translate(-8 -4)" fill="#64748b"/>
</svg>
