<svg xmlns="http://www.w3.org/2000/svg" width="16" height="16" viewBox="0 0 16 16">
  <g id="bxs-grid-alt" transform="translate(-2 -2)">
    <path id="Path_34802" data-name="Path 34802" d="M6.889,13.111h5.333a.889.889,0,0,0,.889-.889V6.889A.889.889,0,0,0,12.222,6H6.889A.889.889,0,0,0,6,6.889v5.333A.889.889,0,0,0,6.889,13.111Zm8.889,0h5.333A.889.889,0,0,0,22,12.222V6.889A.889.889,0,0,0,21.111,6H15.778a.889.889,0,0,0-.889.889v5.333A.889.889,0,0,0,15.778,13.111ZM6.889,22h5.333a.889.889,0,0,0,.889-.889V15.778a.889.889,0,0,0-.889-.889H6.889A.889.889,0,0,0,6,15.778v5.333A.889.889,0,0,0,6.889,22Zm8.889,0h5.333A.889.889,0,0,0,22,21.111V15.778a.889.889,0,0,0-.889-.889H15.778a.889.889,0,0,0-.889.889v5.333A.889.889,0,0,0,15.778,22Z" transform="translate(-4 -4)" fill="#465468"/>
  </g>
</svg>
