<svg id="Category" xmlns="http://www.w3.org/2000/svg" width="20" height="20" viewBox="0 0 20 20">
  <rect id="Rectangle_17844" data-name="Rectangle 17844" width="20" height="20" fill="none"/>
  <g id="Group_44649" data-name="Group 44649">
    <path id="Path_34421" data-name="Path 34421" d="M8.472,2.25H3.139a.889.889,0,0,0-.889.889V8.472a.889.889,0,0,0,.889.889H8.472a.889.889,0,0,0,.889-.889V3.139A.889.889,0,0,0,8.472,2.25ZM7.583,7.583H4.028V4.028H7.583Zm9.778,3.556H12.028a.889.889,0,0,0-.889.889v5.333a.889.889,0,0,0,.889.889h5.333a.889.889,0,0,0,.889-.889V12.028A.889.889,0,0,0,17.361,11.139Zm-.889,5.333H12.917V12.917h3.556ZM14.694,2.25A3.556,3.556,0,1,0,18.25,5.806,3.559,3.559,0,0,0,14.694,2.25Zm0,5.333a1.778,1.778,0,1,1,1.778-1.778A1.78,1.78,0,0,1,14.694,7.583ZM5.806,11.139a3.556,3.556,0,1,0,3.556,3.556A3.559,3.559,0,0,0,5.806,11.139Zm0,5.333a1.778,1.778,0,1,1,1.778-1.778A1.78,1.78,0,0,1,5.806,16.472Z" transform="translate(-0.25 -0.25)" fill="#64748b"/>
  </g>
</svg>
