<svg id="HSN_Code" data-name="HSN Code" xmlns="http://www.w3.org/2000/svg" width="20" height="19.999" viewBox="0 0 20 19.999">
  <rect id="Rectangle_17846" data-name="Rectangle 17846" width="19.969" height="19.969" fill="none"/>
  <g id="Group_44651" data-name="Group 44651" transform="translate(0.031 0.03)">
    <path id="Path_34438" data-name="Path 34438" d="M7.975,15.95A7.975,7.975,0,1,1,15.95,7.975a7.918,7.918,0,0,1-1.658,4.845l1.372,1.372a1.041,1.041,0,0,1-1.472,1.472L12.82,14.292A7.918,7.918,0,0,1,7.975,15.95Zm4.434-3.993A5.96,5.96,0,1,0,3.456,4.09h3.5V5.725h-4.5a5.889,5.889,0,0,0-.357,1.227H6.135V8.589h-4.1a5.872,5.872,0,0,0,.413,1.636H5.317V11.86H3.456a5.933,5.933,0,0,0,8.5.549,1.058,1.058,0,0,1,.452-.452Zm-6.274-.1h4.908V10.225H6.135V11.86Zm4.09-3.272H13.5V6.952H10.225Zm-3.272,0H9V6.952H6.952V8.589ZM8.179,5.725h3.272V4.09H8.179V5.725Z" transform="translate(2 2)" fill="#64748b"/>
  </g>
</svg>
