<svg xmlns="http://www.w3.org/2000/svg" xmlns:xlink="http://www.w3.org/1999/xlink" width="30" height="30" viewBox="0 0 30 30">
  <defs>
    <filter id="Rectangle_17640">
      <feOffset dy="3" input="SourceAlpha"/>
      <feGaussianBlur stdDeviation="3" result="blur"/>
      <feFlood flood-opacity="0.161" result="color"/>
      <feComposite operator="out" in="SourceGraphic" in2="blur"/>
      <feComposite operator="in" in="color"/>
      <feComposite operator="in" in2="SourceGraphic"/>
    </filter>
  </defs>
  <g id="Group_41793" data-name="Group 41793" transform="translate(-1269 -211)">
    <g data-type="innerShadowGroup">
      <path id="Rectangle_17640-2" data-name="Rectangle 17640" d="M0,0H24a6,6,0,0,1,6,6V30a0,0,0,0,1,0,0H18A18,18,0,0,1,0,12V0A0,0,0,0,1,0,0Z" transform="translate(1269 211)" fill="#697a8d"/>
      <g transform="matrix(1, 0, 0, 1, 1269, 211)" filter="url(#Rectangle_17640)">
        <path id="Rectangle_17640-3" data-name="Rectangle 17640" d="M0,0H24a6,6,0,0,1,6,6V30a0,0,0,0,1,0,0H18A18,18,0,0,1,0,12V0A0,0,0,0,1,0,0Z" fill="#fff"/>
      </g>
    </g>
    <g id="close_icon" data-name="close icon" transform="translate(1279 221)">
      <path id="Path_34362" data-name="Path 34362" d="M11.972,10.647l-3.4-3.4,3.4-3.4a.937.937,0,0,0-1.325-1.325l-3.4,3.4-3.4-3.4A.937.937,0,0,0,2.523,3.848l3.4,3.4-3.4,3.4a.937.937,0,1,0,1.325,1.325l3.4-3.4,3.4,3.4a.937.937,0,1,0,1.325-1.325Z" transform="translate(-2.248 -2.248)" fill="#fff"/>
    </g>
  </g>
</svg>
