<svg id="bxs-component" xmlns="http://www.w3.org/2000/svg" width="28" height="28" viewBox="0 0 28 28">
  <path id="Path_34435" data-name="Path 34435" d="M3.11,26.974l6.222,3.111a1.557,1.557,0,0,0,1.391,0L16.25,27.32l5.527,2.762a1.54,1.54,0,0,0,1.391,0l6.222-3.111a1.557,1.557,0,0,0,.86-1.392V17.8a1.557,1.557,0,0,0-.86-1.392l-5.362-2.68V6.917a1.557,1.557,0,0,0-.86-1.392L16.945,2.414a1.556,1.556,0,0,0-1.392,0L9.331,5.525a1.558,1.558,0,0,0-.859,1.392v6.816L3.11,16.414A1.552,1.552,0,0,0,2.25,17.8v7.777A1.557,1.557,0,0,0,3.11,26.974Zm6.918-10.541,3.522,1.761L9.018,20.46,5.5,18.7Zm6.222-3.888,4.667-2.333v3.521L16.25,16.066Zm9.744,5.649-4.483,2.241-3.522-1.761,4.483-2.241Zm-15.966,8.76-.1-.048V23.482L14.694,21.1V24.62Zm12.444,0V23.432L27.139,21.1V24.62ZM16.25,5.545l3.522,1.761L15.289,9.547,11.767,7.786Z" transform="translate(-2.25 -2.249)" fill="#64748b"/>
</svg>
