<svg id="bxs-palette" xmlns="http://www.w3.org/2000/svg" width="28" height="28" viewBox="0 0 28 28">
  <path id="bxs-palette-2" data-name="bxs-palette" d="M12.332,29.506A13.978,13.978,0,0,0,16,30h.2a4.207,4.207,0,0,0,3.735-6.027l-.277-.581a2.8,2.8,0,0,1,3.735-3.737h0l.578.279A4.209,4.209,0,0,0,30,16.2a13.9,13.9,0,0,0-.494-3.864A14,14,0,0,0,2.134,17.96,14.1,14.1,0,0,0,12.332,29.506ZM20.9,7.6a2.1,2.1,0,1,1-2.1,2.1,2.1,2.1,0,0,1,2.1-2.1Zm-7-1.4a2.1,2.1,0,1,1-2.1,2.1A2.1,2.1,0,0,1,13.9,6.2ZM11.8,20.909a2.1,2.1,0,1,1-2.1-2.1,2.1,2.1,0,0,1,2.1,2.1Zm-3.5-9.1a2.1,2.1,0,1,1-2.1,2.1,2.1,2.1,0,0,1,2.1-2.1Z" transform="translate(-2 -2.001)" fill="#64748b"/>
</svg>
