<svg xmlns="http://www.w3.org/2000/svg" width="15" height="15" viewBox="0 0 15 15">
  <g id="Group_41844" data-name="Group 41844" transform="translate(-5 2)">
    <rect id="Rectangle_17641" data-name="Rectangle 17641" width="15" height="15" transform="translate(5 -2)" fill="none"/>
    <g id="__TEMP__SVG__" transform="translate(5 -2)">
      <path id="Path_34476" data-name="Path 34476" d="M8,12.5,8.75,11V7.144a3,3,0,1,0-1.5,0V11Z" transform="translate(-0.5 -1.25)" fill="#697a8d"/>
      <path id="Path_34477" data-name="Path 34477" d="M11.95,6.6l-.4,1.446c1.943.537,3.2,1.57,3.2,2.632,0,1.419-2.464,3-6,3s-6-1.581-6-3c0-1.062,1.256-2.095,3.2-2.633L5.551,6.6c-2.653.733-4.3,2.3-4.3,4.078,0,2.523,3.295,4.5,7.5,4.5s7.5-1.977,7.5-4.5C16.25,8.9,14.6,7.335,11.95,6.6Z" transform="translate(-1.25 -0.18)" fill="#697a8d"/>
    </g>
  </g>
</svg>
