<svg id="Component_271" data-name="Component 271" xmlns="http://www.w3.org/2000/svg" width="16" height="16" viewBox="0 0 16 16">
  <rect id="Rectangle_17641" data-name="Rectangle 17641" width="16" height="16" fill="none"/>
  <g id="bxs-lock-alt" transform="translate(-1.067 -1.333)">
    <path id="Path_34658" data-name="Path 34658" d="M15.466,9.333a1.6,1.6,0,0,0-1.6-1.6h-.8v-2.4a4,4,0,1,0-8,0v2.4h-.8a1.6,1.6,0,0,0-1.6,1.6v6.4a1.6,1.6,0,0,0,1.6,1.6h9.6a1.6,1.6,0,0,0,1.6-1.6Zm-8.8-4a2.4,2.4,0,0,1,4.8,0v2.4h-4.8Z" fill="#8e9caa"/>
  </g>
</svg>
