<svg id="Email" xmlns="http://www.w3.org/2000/svg" width="14" height="11.2" viewBox="0 0 14 11.2">
  <path id="Path_34345" data-name="Path 34345" d="M13.694,2.25H3.681A1.426,1.426,0,0,0,2.25,3.668V7.214H3.681V5.087l4.578,3.4a.721.721,0,0,0,.858,0l4.578-3.4v6.382H7.972v1.418h5.722a1.426,1.426,0,0,0,1.431-1.418v-7.8A1.426,1.426,0,0,0,13.694,2.25ZM8.687,7.037,4.157,3.668h9.061Z" transform="translate(-1.125 -2.25)" fill="#a1acb8"/>
  <path id="Path_34346" data-name="Path 34346" d="M1.125,6.75H5.063V7.875H1.125ZM2.25,8.438H5.625V9.563H2.25Zm1.688,1.688h2.25V11.25H3.938Z" transform="translate(-1.125 -0.05)" fill="#a1acb8"/>
</svg>
