<svg xmlns="http://www.w3.org/2000/svg" width="12" height="12" viewBox="0 0 12 12">
  <path id="Path_34870" data-name="Path 34870" d="M13.667,3H4.333A1.335,1.335,0,0,0,3,4.333v9.333A1.335,1.335,0,0,0,4.333,15H9.667a.664.664,0,0,0,.471-.2L14.8,10.138a.665.665,0,0,0,.131-.2.618.618,0,0,0,.022-.062.661.661,0,0,0,.034-.173c0-.014.009-.027.009-.041V4.333A1.335,1.335,0,0,0,13.667,3ZM4.333,4.333h9.333V9h-4A.667.667,0,0,0,9,9.667v4H4.333Zm6,8.391V10.333h2.391Z" transform="translate(-3 -3)" fill="#5c5ad0"/>
</svg>
