<svg id="Details_File" data-name="Details File" xmlns="http://www.w3.org/2000/svg" width="20" height="20" viewBox="0 0 20 20">
  <rect id="Rectangle_17833" data-name="Rectangle 17833" width="20" height="20" transform="translate(0 0)" fill="none"/>
  <g id="bx-file" transform="translate(1.523)">
    <path id="Union_33" data-name="Union 33" d="M1.619,16A1.612,1.612,0,0,1,0,14.4V1.6A1.612,1.612,0,0,1,1.619,0H7.286a.455.455,0,0,1,.049.01.894.894,0,0,1,.21.04c.025.01.052.016.076.027a.782.782,0,0,1,.237.157l4.858,4.8a.826.826,0,0,1,.159.235.6.6,0,0,1,.026.074.734.734,0,0,1,.041.207.47.47,0,0,1,.011.05v8.8A1.611,1.611,0,0,1,11.334,16Zm0-1.6h9.716l0-8H7.286a.805.805,0,0,1-.81-.8v-4H1.619ZM8.1,4.8h2.093L8.1,2.731Zm-4.858,8V11.2H9.714v1.6Zm0-3.2V8H9.714V9.6Zm0-3.2V4.8H4.858V6.4Z" transform="translate(2 2)" fill="#64748b"/>
  </g>
</svg>
