<svg id="Phone" xmlns="http://www.w3.org/2000/svg" width="14" height="14" viewBox="0 0 14 14">
  <path id="Path_34347" data-name="Path 34347" d="M12.235,16.192a1.474,1.474,0,0,0,1.054-.434l2-2a.736.736,0,0,0,0-1.038L12.338,9.778a.737.737,0,0,0-1.039,0l-1.179,1.171A5.564,5.564,0,0,1,7.91,9.778,5.61,5.61,0,0,1,6.739,7.569L7.91,6.39a.736.736,0,0,0,0-1.038L4.963,2.406a.737.737,0,0,0-1.039,0l-1.989,2A1.472,1.472,0,0,0,1.5,5.463a11.25,11.25,0,0,0,3.168,7.563,11.261,11.261,0,0,0,7.567,3.167ZM4.447,3.975,6.356,5.882l-.95.95a.736.736,0,0,0-.221.67,7.451,7.451,0,0,0,1.695,3.314,7.428,7.428,0,0,0,3.316,1.694.737.737,0,0,0,.67-.2l.95-.972,1.908,1.907L12.25,14.719a9.787,9.787,0,0,1-6.536-2.732A9.777,9.777,0,0,1,2.974,5.448Z" transform="translate(-1.5 -2.192)" fill="#a1acb8"/>
</svg>
