<svg xmlns="http://www.w3.org/2000/svg" width="15.493" height="14.909" viewBox="0 0 15.493 14.909">
  <g id="Group_44631" data-name="Group 44631" transform="translate(-2 -2)">
    <path id="Union_36" data-name="Union 36" d="M11.285,14.909A12.074,12.074,0,0,1,3.33,11.7,11.177,11.177,0,0,1,0,4.049,1.462,1.462,0,0,1,.457,2.983L2.548.955a.8.8,0,0,1,1.093,0l3.1,2.981a.726.726,0,0,1,0,1.051L5.507,6.18A5.611,5.611,0,0,0,6.739,8.416,5.918,5.918,0,0,0,9.062,9.6L10.3,8.416a.8.8,0,0,1,1.093,0l3.1,2.981a.726.726,0,0,1,0,1.051l-2.1,2.02a1.58,1.58,0,0,1-1.1.44ZM1.549,4.034A9.716,9.716,0,0,0,4.43,10.653a10.493,10.493,0,0,0,6.87,2.765l1.55-1.49L10.844,10l-1,.983a.793.793,0,0,1-.7.2A7.923,7.923,0,0,1,5.654,9.468,7.443,7.443,0,0,1,3.873,6.113a.728.728,0,0,1,.233-.678l1-.962L3.1,2.543ZM13.942,6.71a4.946,4.946,0,0,0-1.533-3.743A5.358,5.358,0,0,0,8.52,1.492V0a6.966,6.966,0,0,1,4.973,1.922,6.44,6.44,0,0,1,2,4.787Zm-3.025-.289c0-1.4-.6-2-2-2V3.088a3.009,3.009,0,0,1,3.333,3.333Z" transform="translate(2 2)" fill="#64748b"/>
  </g>
</svg>
