<svg id="Pincode_Area" data-name="Pincode &amp; Area" xmlns="http://www.w3.org/2000/svg" width="20" height="20" viewBox="0 0 20 20">
  <rect id="Rectangle_17823" data-name="Rectangle 17823" width="20" height="20" transform="translate(0 0)" fill="none"/>
  <g id="bx-current-location" transform="translate(0)">
    <path id="Union_23" data-name="Union 23" d="M7.2,16V14.345A6.4,6.4,0,0,1,1.655,8.8H0V7.2H1.655A6.408,6.408,0,0,1,7.2,1.655V0H8.8V1.655A6.41,6.41,0,0,1,14.345,7.2H16V8.8H14.345A6.407,6.407,0,0,1,8.8,14.345V16Zm-4-8A4.8,4.8,0,1,0,8,3.2,4.8,4.8,0,0,0,3.2,8ZM4.8,8A3.2,3.2,0,1,1,8,11.2,3.2,3.2,0,0,1,4.8,8Z" transform="translate(2 2)" fill="#64748b"/>
  </g>
</svg>
