<svg id="Group_41844" data-name="Group 41844" xmlns="http://www.w3.org/2000/svg" width="15" height="15" viewBox="0 0 15 15">
  <rect id="Rectangle_17641" data-name="Rectangle 17641" width="15" height="15" fill="none"/>
  <g id="bx-location-plus" transform="translate(1.5)">
    <path id="Path_34478" data-name="Path 34478" d="M8.065,16.111a.753.753,0,0,0,.87,0c.228-.163,5.587-4.031,5.565-8.861a6,6,0,0,0-12,0C2.478,12.08,7.837,15.949,8.065,16.111ZM8.5,2.75a4.505,4.505,0,0,1,4.5,4.5c.016,3.329-3.291,6.317-4.5,7.3-1.208-.981-4.516-3.97-4.5-7.3a4.5,4.5,0,0,1,4.5-4.5Z" transform="translate(-2.5 -1.25)" fill="#697a8d"/>
    <path id="Path_34479" data-name="Path 34479" d="M7.25,9.75h1.5V7.5H11V6H8.75V3.75H7.25V6H5V7.5H7.25Z" transform="translate(-2 -0.75)" fill="#697a8d"/>
  </g>
</svg>
