<svg id="bx-cog" xmlns="http://www.w3.org/2000/svg" width="16" height="16" viewBox="0 0 16 16">
  <path id="Path_34649" data-name="Path 34649" d="M19.2,22.4A3.2,3.2,0,1,0,16,19.2,3.2,3.2,0,0,0,19.2,22.4Zm0-4.8a1.6,1.6,0,1,1-1.6,1.6A1.621,1.621,0,0,1,19.2,17.6Z" transform="translate(-11.198 -11.198)" fill="#8e9caa"/>
  <path id="Path_34650" data-name="Path 34650" d="M5.381,15.309l.849,1.384a1.807,1.807,0,0,0,2.318.584L9,17.032a6.984,6.984,0,0,0,1.61.89V18.4A1.653,1.653,0,0,0,12.3,20H14a1.653,1.653,0,0,0,1.7-1.6v-.478a7.012,7.012,0,0,0,1.61-.889l.449.245a1.807,1.807,0,0,0,2.319-.585l.848-1.383a1.551,1.551,0,0,0-.621-2.186l-.429-.234a5.822,5.822,0,0,0,0-1.779l.429-.234a1.552,1.552,0,0,0,.621-2.186l-.848-1.383a1.8,1.8,0,0,0-2.319-.586l-.449.245a6.984,6.984,0,0,0-1.61-.89V5.6A1.653,1.653,0,0,0,14,4H12.3a1.653,1.653,0,0,0-1.7,1.6v.478A7.012,7.012,0,0,0,9,6.967l-.449-.245a1.806,1.806,0,0,0-2.319.586L5.381,8.691A1.551,1.551,0,0,0,6,10.877l.429.234a5.8,5.8,0,0,0,0,1.778L6,13.122A1.553,1.553,0,0,0,5.381,15.309ZM8.205,13.1a4.27,4.27,0,0,1,0-2.2.781.781,0,0,0-.4-.886l-.953-.52L7.7,8.108l.972.53A.886.886,0,0,0,9.68,8.524,5.232,5.232,0,0,1,11.7,7.4a.807.807,0,0,0,.6-.765V5.6H14V6.64a.807.807,0,0,0,.6.765,5.242,5.242,0,0,1,2.024,1.119.888.888,0,0,0,1.009.114l.971-.529.849,1.383-.954.519a.782.782,0,0,0-.4.886,4.27,4.27,0,0,1,0,2.2.782.782,0,0,0,.4.886l.953.519-.847,1.383-.972-.529a.885.885,0,0,0-1.009.114A5.232,5.232,0,0,1,14.6,16.6a.807.807,0,0,0-.6.765l0,1.04H12.3V17.36a.807.807,0,0,0-.6-.765A5.242,5.242,0,0,1,9.68,15.476a.882.882,0,0,0-1.009-.113l-.971.53L6.851,14.51l.954-.521a.782.782,0,0,0,.4-.886Z" transform="translate(-5.154 -4)" fill="#8e9caa"/>
</svg>
