<svg id="_2460558519872" xmlns="http://www.w3.org/2000/svg" xmlns:xlink="http://www.w3.org/1999/xlink" width="153.06" height="32.155" viewBox="0 0 153.06 32.155">
  <defs>
    <linearGradient id="linear-gradient" y1="0.5" x2="0.769" y2="0.5" gradientUnits="objectBoundingBox">
      <stop offset="0" stop-color="#7623ad"/>
      <stop offset="1" stop-color="#8f17e8"/>
    </linearGradient>
  </defs>
  <path id="Path_34880" data-name="Path 34880" d="M846.389,1224.97a8.319,8.319,0,0,1,4.506,1.318q-.224-.015-.451-.015a7.059,7.059,0,0,0,0,14.118q.227,0,.451-.015a8.361,8.361,0,1,1-4.506-15.406Zm4,3.8a4.367,4.367,0,1,1-3.046,7.494,3.078,3.078,0,0,0-.286-5.948A4.355,4.355,0,0,1,850.388,1228.774Z" transform="translate(-790.687 -1216.219)" fill-rule="evenodd" fill="url(#linear-gradient)"/>
  <path id="Path_34881" data-name="Path 34881" d="M5.958,1159.057H0V1136.79H7.244a21.425,21.425,0,0,1,3.474.228,8.237,8.237,0,0,1,2.367.83,6.938,6.938,0,0,1,1.532,1.08,6.351,6.351,0,0,1,1.175,1.453,5.96,5.96,0,0,1,.685,1.659,7.634,7.634,0,0,1,.228,1.894,6.529,6.529,0,0,1-.568,2.789,6.9,6.9,0,0,1-1.843,2.267,6.309,6.309,0,0,1,1.988,2.316,7.6,7.6,0,0,1,.59,3.2v4.549H10.93v-4.488a3.458,3.458,0,0,0-.763-2.461,3.541,3.541,0,0,0-2.467-.718H6.949v-4.354h.657a3.779,3.779,0,0,0,2.333-.623,2.109,2.109,0,0,0,.8-1.793,2.533,2.533,0,0,0-.323-1.286,2.054,2.054,0,0,0-.963-.818,4.084,4.084,0,0,0-1.537-.279H5.958v16.822Z" transform="translate(0 -1133.021)"/>
  <path id="Path_34882" data-name="Path 34882" d="M342,1249.645l3.8-4.126a2.824,2.824,0,0,0-2.722.078,2.933,2.933,0,0,0-1.058,1.1,2.887,2.887,0,0,0-.412,1.481A3.238,3.238,0,0,0,342,1249.645Zm7.5.3,1.325,5.334a11,11,0,0,1-5.4,1.386,9.933,9.933,0,0,1-4.716-1.1,8.77,8.77,0,0,1-1.893-1.33,8.54,8.54,0,0,1-1.42-1.721,7.973,7.973,0,0,1-1.2-4.287,8.1,8.1,0,0,1,1.125-4.192,8.219,8.219,0,0,1,3.051-3.035,8.649,8.649,0,0,1,8.318-.084,7.879,7.879,0,0,1,1.693,1.242,8.816,8.816,0,0,1,1.375,1.715l-6.787,7.338a2.73,2.73,0,0,0,.7.1A7.075,7.075,0,0,0,349.5,1249.94Z" transform="translate(-317.197 -1230.296)"/>
  <path id="Path_34883" data-name="Path 34883" d="M650.632,1153.292H645.17v-13.313a16.153,16.153,0,0,1,.34-3.653,7.836,7.836,0,0,1,1.114-2.578,6.318,6.318,0,0,1,1.6-1.631,7.043,7.043,0,0,1,2.183-1.058,8.489,8.489,0,0,1,2.5-.378,6.886,6.886,0,0,1,1.169.117v4.455a5.131,5.131,0,0,0-2.394.44,2.051,2.051,0,0,0-1.047,1.436h3.441v5.123h-3.441Z" transform="translate(-608.722 -1127.256)"/>
  <path id="Path_34884" data-name="Path 34884" d="M1164.221,1256.333h-5.451v-8.319a11.784,11.784,0,0,1,.262-2.561,6.6,6.6,0,0,1,.819-2.1,7.6,7.6,0,0,1,1.415-1.681,7.144,7.144,0,0,1,4.878-1.776q.267,0,.751.05v5.529a2.636,2.636,0,0,0-.846-.161,1.621,1.621,0,0,0-1.632,1.158,5.992,5.992,0,0,0-.195,1.887v7.979Z" transform="translate(-1093.307 -1230.296)"/>
  <path id="Path_34885" data-name="Path 34885" d="M1339.461,1256.333h-5.451v-8.074a12.875,12.875,0,0,1,.329-3.168,6.932,6.932,0,0,1,1.125-2.3,7.009,7.009,0,0,1,2.594-2.122,7.607,7.607,0,0,1,3.263-.763,6.832,6.832,0,0,1,2.266.356,10.177,10.177,0,0,1,2.216,1.175,10.894,10.894,0,0,1,2.333-1.208,7.158,7.158,0,0,1,2.3-.34,7.8,7.8,0,0,1,3.413.779,6.966,6.966,0,0,1,2.612,2.138,7.539,7.539,0,0,1,.846,1.52,9.668,9.668,0,0,1,.49,1.743,15.237,15.237,0,0,1,.145,2.188v8.074H1352.5v-8.648c-.011-1.609-.64-2.411-1.876-2.411q-1.929,0-1.927,2.545v8.514h-5.445v-8.514a3.214,3.214,0,0,0-.478-1.91,1.953,1.953,0,0,0-2.851-.033,3.243,3.243,0,0,0-.456,1.943v8.514Z" transform="translate(-1258.647 -1230.296)"/>
  <path id="Path_34886" data-name="Path 34886" d="M1819.952,1260.975h-5.462V1244.81h5.462Z" transform="translate(-1711.983 -1234.938)"/>
  <path id="Path_34887" data-name="Path 34887" d="M1811.04,1122.465a3.066,3.066,0,0,1,1.448-2.639,2.909,2.909,0,0,1,2.956.016,2.972,2.972,0,0,1,1.075,1.075,3.1,3.1,0,0,1,.373,1.481,2.915,2.915,0,0,1-4.371,2.517,2.937,2.937,0,0,1-1.074-1.047A2.584,2.584,0,0,1,1811.04,1122.465Z" transform="translate(-1708.728 -1116.641)" fill="#7623ad" fill-rule="evenodd"/>
  <path id="Path_34888" data-name="Path 34888" d="M1971.254,1250.2v12.528h-5.468v-13.441a4.8,4.8,0,0,0-.423-2.272,2.682,2.682,0,0,0-1.03-1.041,2.993,2.993,0,0,0-1.5-.379,2.74,2.74,0,0,0-2.055.836,3.02,3.02,0,0,0-.819,2.166,2.738,2.738,0,0,0,.852,2.1,3.109,3.109,0,0,0,2.233.819,4.851,4.851,0,0,0,1.743-.373v5.59a7.125,7.125,0,0,1-1.676.218,9.042,9.042,0,0,1-3.379-.641,8.555,8.555,0,0,1-2.739-1.793,8.006,8.006,0,0,1-1.81-2.673,8.464,8.464,0,0,1-.634-3.3,8.348,8.348,0,0,1,1.108-4.226,8.015,8.015,0,0,1,3.018-3.034,8.668,8.668,0,0,1,6.147-.9,8.373,8.373,0,0,1,1.715.585,7.594,7.594,0,0,1,1.548.963,8.279,8.279,0,0,1,1.353,1.37,7.5,7.5,0,0,1,1.392,2.545,11.585,11.585,0,0,1,.423,3.263Z" transform="translate(-1844.13 -1230.57)"/>
  <path id="Path_34889" data-name="Path 34889" d="M2296.958,1248.566a2.706,2.706,0,0,0,.412,1.465,2.822,2.822,0,0,0,1.074,1.08,2.956,2.956,0,0,0,2.934,0,3.127,3.127,0,0,0,1.092-1.08,2.85,2.85,0,0,0,.395-1.465,2.942,2.942,0,0,0-.395-1.486A3.147,3.147,0,0,0,2301.4,1246a2.931,2.931,0,0,0-1.48-.4,2.848,2.848,0,0,0-1.47.4,2.963,2.963,0,0,0-1.074,1.074A2.793,2.793,0,0,0,2296.958,1248.566Zm-5.428,0a8.123,8.123,0,0,1,.651-3.246,8.43,8.43,0,0,1,4.5-4.5,8.3,8.3,0,0,1,3.236-.635,8.391,8.391,0,0,1,5.935,2.428,8.4,8.4,0,0,1,1.793,2.662,8.248,8.248,0,0,1,.652,3.3,8.064,8.064,0,0,1-.652,3.246,8.565,8.565,0,0,1-1.793,2.656,8.417,8.417,0,0,1-2.695,1.793,8.282,8.282,0,0,1-7.45-.456,8.332,8.332,0,0,1-3.051-3.046A8.1,8.1,0,0,1,2291.53,1248.566Z" transform="translate(-2162.073 -1230.57)"/>
  <path id="Path_34890" data-name="Path 34890" d="M2588.29,1073.494a3.383,3.383,0,0,1,1.7-2.968,3.47,3.47,0,0,1,3.441,0,3.383,3.383,0,0,1,1.7,2.968,3.419,3.419,0,0,1-6.837,0Z" transform="translate(-2442.068 -1070.07)"/>
  <path id="Path_34891" data-name="Path 34891" d="M2623.106,1097.393v-.536h1.372a.5.5,0,0,0,.4-.172.662.662,0,0,0,.149-.453h0a.664.664,0,0,0-.149-.454.5.5,0,0,0-.4-.171h-1.372v-.537h1.35a1.246,1.246,0,0,1,.614.145,1.022,1.022,0,0,1,.408.4,1.231,1.231,0,0,1,.146.611h0a1.234,1.234,0,0,1-.146.61,1.044,1.044,0,0,1-.408.406,1.239,1.239,0,0,1-.613.146Zm-.246,1.7v-4.024h.564v4.024Zm2.263,0-.922-1.826.562-.127,1.029,1.953h-.67Z" transform="translate(-2474.685 -1093.657)" fill="#fff"/>
</svg>
