<svg xmlns="http://www.w3.org/2000/svg" width="11.839" height="14" viewBox="0 0 11.839 14">
  <path id="Path_34639" data-name="Path 34639" d="M18.245,9.673A6.111,6.111,0,0,0,17.7,8.654l-1.146.783a4.655,4.655,0,0,1,.682,1.641,4.718,4.718,0,0,1,0,1.853,4.587,4.587,0,0,1-.265.862,4.5,4.5,0,0,1-.417.778,4.629,4.629,0,0,1-1.228,1.242,4.536,4.536,0,0,1-1.62.691,4.6,4.6,0,0,1-1.829,0,4.511,4.511,0,0,1-2.293-1.251,4.6,4.6,0,0,1-1.237-2.322,4.692,4.692,0,0,1,.264-2.714,4.586,4.586,0,0,1,2.415-2.445,4.479,4.479,0,0,1,.85-.267c.074-.015.149-.022.224-.034V9.6l3.456-2.8L12.1,4V6.056q-.252.028-.5.078a5.845,5.845,0,0,0-2.117.9,6.036,6.036,0,0,0-.876,9.207,5.951,5.951,0,0,0,1.881,1.283,5.842,5.842,0,0,0,3.5.349,5.984,5.984,0,0,0,4.605-4.664,6.065,6.065,0,0,0-.345-3.539Z" transform="translate(-6.871 -4)" fill="#465468"/>
</svg>
