<svg xmlns="http://www.w3.org/2000/svg" width="12.571" height="16" viewBox="0 0 12.571 16">
  <g id="report-data" transform="translate(-2.5 -1)">
    <path id="Path_34651" data-name="Path 34651" d="M7.5,10h1v2h-1Z" transform="translate(0.786 1.5)" fill="#5c5ad0"/>
    <path id="Path_34652" data-name="Path 34652" d="M10,9h1v3H10Z" transform="translate(1.179 1.455)" fill="#5c5ad0"/>
    <path id="Path_34653" data-name="Path 34653" d="M5,7H6v5H5Z" transform="translate(0.393 1.333)" fill="#5c5ad0"/>
    <path id="Path_34654" data-name="Path 34654" d="M13.929,2.714H12.214V2.143A1.143,1.143,0,0,0,11.071,1H6.5A1.143,1.143,0,0,0,5.357,2.143v.571H3.643A1.143,1.143,0,0,0,2.5,3.857v12A1.143,1.143,0,0,0,3.643,17H13.929a1.143,1.143,0,0,0,1.143-1.143v-12A1.143,1.143,0,0,0,13.929,2.714ZM6.5,2.143h4.571V4.429H6.5Zm7.429,13.714H3.643v-12H5.357V5.571h6.857V3.857h1.714Z" transform="translate(0 0)" fill="#5c5ad0"/>
  </g>
</svg>
