<svg xmlns="http://www.w3.org/2000/svg" width="28" height="28" viewBox="0 0 28 28">
  <path id="Path_34421" data-name="Path 34421" d="M13.139,2.25H3.806A1.556,1.556,0,0,0,2.25,3.806v9.333a1.556,1.556,0,0,0,1.556,1.556h9.333a1.556,1.556,0,0,0,1.556-1.556V3.806A1.556,1.556,0,0,0,13.139,2.25Zm-1.556,9.333H5.361V5.361h6.222Zm17.111,6.222H19.361a1.556,1.556,0,0,0-1.556,1.556v9.333a1.556,1.556,0,0,0,1.556,1.556h9.333a1.556,1.556,0,0,0,1.556-1.556V19.361A1.556,1.556,0,0,0,28.694,17.806Zm-1.556,9.333H20.917V20.917h6.222ZM24.028,2.25A6.222,6.222,0,1,0,30.25,8.472,6.228,6.228,0,0,0,24.028,2.25Zm0,9.333a3.111,3.111,0,1,1,3.111-3.111A3.114,3.114,0,0,1,24.028,11.583ZM8.472,17.806a6.222,6.222,0,1,0,6.222,6.222A6.228,6.228,0,0,0,8.472,17.806Zm0,9.333a3.111,3.111,0,1,1,3.111-3.111A3.114,3.114,0,0,1,8.472,27.139Z" transform="translate(-2.25 -2.25)" fill="#64748b"/>
</svg>
