<svg id="Show" xmlns="http://www.w3.org/2000/svg" width="18" height="18" viewBox="0 0 24 24">
  <rect id="Rectangle_17770" data-name="Rectangle 17770" width="24" height="24" transform="translate(0)" fill="none"/>
  <g id="bx-show-alt" transform="translate(-2.135 -5.214)">
    <g id="Union_6" data-name="Union 6" transform="translate(4.135 10.244)" fill="rgba(67,89,113,0.7)">
      <path d="M 10.00038719177246 13.44029808044434 C 8.348067283630371 13.44029808044434 6.827927589416504 13.11188793182373 5.482207298278809 12.46417808532715 C 4.405517578125 11.94595718383789 3.433927297592163 11.22179794311523 2.59443736076355 10.31180763244629 C 1.173381209373474 8.771422386169434 0.6119193434715271 7.2199387550354 0.5778210163116455 7.123249053955078 L 0.5272728800773621 6.971227645874023 L 0.5797473788261414 6.815547466278076 C 0.5854073762893677 6.798937797546387 1.144157409667969 5.192617416381836 2.613107442855835 3.608527660369873 C 3.452277421951294 2.703577518463135 4.422787189483643 1.983637571334839 5.49766731262207 1.46870756149292 C 6.839447498321533 0.8259176015853882 8.354387283325195 0.499997615814209 10.00038719177246 0.499997615814209 C 11.64665699005127 0.499997615814209 13.16178703308105 0.8259475827217102 14.50370693206787 1.468787550926208 C 15.5786771774292 1.983747601509094 16.54922676086426 2.703727722167969 17.38839721679688 3.608727693557739 C 18.85710716247559 5.19263744354248 19.41580772399902 6.798947811126709 19.42127799987793 6.814987659454346 L 19.47286415100098 6.96928596496582 L 19.42030715942383 7.124777793884277 L 19.41837692260742 7.130487442016602 L 19.41824150085449 7.130919456481934 C 19.39335823059082 7.20251989364624 18.83354377746582 8.778226852416992 17.37620735168457 10.34456729888916 C 16.53727722167969 11.24626731872559 15.56744766235352 11.96347713470459 14.49367713928223 12.47629737854004 C 13.15431785583496 13.11595726013184 11.64255714416504 13.44029808044434 10.00038719177246 13.44029808044434 Z M 10.00038719177246 1.491407632827759 C 4.387407302856445 1.491407632827759 2.196917295455933 5.532497406005859 1.659247398376465 6.771047592163086 L 1.572847366333008 6.970077514648438 L 1.659197330474854 7.169137477874756 C 2.196517467498779 8.407707214355469 4.385997295379639 12.44888782501221 10.00038719177246 12.44888782501221 C 15.60743713378906 12.44888782501221 17.80253791809082 8.408177375793457 18.34174728393555 7.169747829437256 L 18.42860794067383 6.970257759094238 L 18.34182739257812 6.770717620849609 C 17.80315780639648 5.532247543334961 15.6096773147583 1.491407632827759 10.00038719177246 1.491407632827759 Z M 10.00038719177246 9.457907676696777 C 9.344147682189941 9.457907676696777 8.722357749938965 9.197278022766113 8.249557495117188 8.724037170410156 C 7.776537418365479 8.250567436218262 7.516037464141846 7.627697467803955 7.516037464141846 6.970147609710693 C 7.524238586425781 5.766330242156982 8.398776054382324 4.752965927124023 9.543769836425781 4.528867244720459 C 9.514897346496582 4.676987171173096 9.500387191772461 4.827123641967773 9.500387191772461 4.978737831115723 C 9.500387191772461 6.352507591247559 10.61662769317627 7.470147609710693 11.98866748809814 7.470147609710693 C 12.14132976531982 7.470147609710693 12.29261207580566 7.455331802368164 12.44189834594727 7.425864219665527 C 12.35035037994385 7.911804676055908 12.11282348632812 8.361686706542969 11.75082778930664 8.724057197570801 C 11.2780876159668 9.197287559509277 10.65643692016602 9.457907676696777 10.00038719177246 9.457907676696777 Z" stroke="none"/>
      <path d="M 10.00038719177246 8.957907676696777 C 10.72009944915771 8.957907676696777 11.36506462097168 8.550206184387207 11.71297931671143 7.957525730133057 C 10.28563499450684 7.826237201690674 9.145634651184082 6.685778141021729 9.01323413848877 5.2572922706604 C 8.422900199890137 5.604240417480469 8.022156715393066 6.244882583618164 8.016040802001953 6.973806381225586 C 8.018145561218262 8.049648284912109 8.926004409790039 8.957907676696777 10.00038719177246 8.957907676696777 M 10.00038719177246 13.94029808044434 C 2.409447431564331 13.94029808044434 0.1278973817825317 7.35126781463623 0.1046473830938339 7.284877777099609 L -2.616577148728538e-06 6.970147609710693 L 0.1059373840689659 6.655847549438477 C 0.1278973817825317 6.589027404785156 2.409447431564331 -2.390289409959223e-06 10.00038719177246 -2.390289409959223e-06 C 17.59219741821289 -2.390289409959223e-06 19.8733081817627 6.589027404785156 19.89527702331543 6.655847549438477 L 20.00035667419434 6.970147609710693 L 19.89397811889648 7.284877777099609 C 19.8733081817627 7.35126781463623 17.59219741821289 13.94029808044434 10.00038719177246 13.94029808044434 Z M 10.00038719177246 1.991407632827759 C 4.680657386779785 1.991407632827759 2.618737459182739 5.816427707672119 2.117897272109985 6.970147609710693 C 2.616157293319702 8.118687629699707 4.678077220916748 11.94888782501221 10.00038719177246 11.94888782501221 C 15.31926727294922 11.94888782501221 17.38117790222168 8.123427391052246 17.8833179473877 6.970147609710693 C 17.38376808166504 5.82160758972168 15.3222770690918 1.991407632827759 10.00038719177246 1.991407632827759 Z M 10.00038719177246 9.957907676696777 C 8.367397308349609 9.957907676696777 7.016037464141846 8.605867385864258 7.016037464141846 6.970147609710693 C 7.027227401733398 5.325367450714111 8.357487678527832 3.994027614593506 10.00038719177246 3.982817649841309 C 10.09211730957031 3.982817649841309 10.17738723754883 4.003077507019043 10.26695728302002 4.009547710418701 C 10.10201740264893 4.298837661743164 10.00038719177246 4.626067638397217 10.00038719177246 4.978737831115723 C 10.00038719177246 6.069937705993652 10.9004373550415 6.970147609710693 11.98866748809814 6.970147609710693 C 12.34179782867432 6.970147609710693 12.66865730285645 6.867537498474121 12.95718765258789 6.702847480773926 C 12.96407699584961 6.79251766204834 12.98431777954102 6.879177570343018 12.98431777954102 6.970147609710693 C 12.98431777954102 8.605867385864258 11.63295745849609 9.957907676696777 10.00038719177246 9.957907676696777 Z" stroke="none" fill="#435971"/>
    </g>
  </g>
</svg>
