<svg xmlns="http://www.w3.org/2000/svg" id="Show" width="24" height="24" viewBox="0 0 24 24">
  <rect id="Rectangle_17775" data-name="Rectangle 17775" width="24" height="24" fill="none"/>
  <g id="bx-show-alt" transform="translate(-0.963 -4.336)">
    <g id="Union_6" data-name="Union 6" transform="translate(3.937 10.046)" fill="#64748B">
      <path d="M 9.025765419006348 12.08169841766357 C 6.333135604858398 12.08169841766357 4.096335411071777 11.13701820373535 2.377485752105713 9.27388858795166 C 1.104297041893005 7.893824100494385 0.6001936793327332 6.505486488342285 0.5676969885826111 6.413503646850586 L 0.5272743701934814 6.291935920715332 L 0.569425642490387 6.166888236999512 C 0.5744656324386597 6.152128219604492 1.077625632286072 4.708518028259277 2.396795749664307 3.287138223648071 C 4.11322546005249 1.43772828578949 6.343535423278809 0.4999982416629791 9.025765419006348 0.4999982416629791 C 11.70834541320801 0.4999982416629791 13.93883609771729 1.437748312950134 15.65527534484863 3.287198305130005 C 16.97437477111816 4.708518028259277 17.47746658325195 6.152108192443848 17.48239517211914 6.166528224945068 L 17.5236644744873 6.289978981018066 L 17.48147583007812 6.414798259735107 L 17.47952651977539 6.420538425445557 L 17.47939300537109 6.420966148376465 C 17.45403671264648 6.493505954742432 16.94852447509766 7.905755996704102 15.64408588409424 9.306427955627441 C 13.92908573150635 11.14795780181885 11.70235538482666 12.08169841766357 9.025765419006348 12.08169841766357 Z M 9.025765419006348 1.297328233718872 C 3.930165529251099 1.297328233718872 1.941095590591431 4.967028141021729 1.452845692634583 6.091748237609863 L 1.366445660591125 6.290778160095215 L 1.452795624732971 6.489838123321533 C 1.940725684165955 7.614578247070312 3.928825616836548 11.28436851501465 9.025765419006348 11.28436851501465 C 14.11600589752197 11.28436851501465 16.10921478271484 7.615048408508301 16.5988655090332 6.490448474884033 L 16.68572616577148 6.290958404541016 L 16.59894561767578 6.091428279876709 C 16.10979652404785 4.96677827835083 14.11805534362793 1.297328233718872 9.025765419006348 1.297328233718872 Z M 9.025765419006348 8.487428665161133 C 7.836765766143799 8.487428665161133 6.832265853881836 7.481518268585205 6.832265853881836 6.290848255157471 C 6.839334964752197 5.252731800079346 7.576423645019531 4.37479829788208 8.553021430969238 4.150198459625244 C 8.534875869750977 4.26350736618042 8.525765419006348 4.378034114837646 8.525765419006348 4.493518352508545 C 8.525765419006348 5.760268211364746 9.555075645446777 6.790848255157471 10.82027530670166 6.790848255157471 C 10.93635845184326 6.790848255157471 11.0515022277832 6.78158712387085 11.16549205780029 6.763134002685547 C 10.9430570602417 7.735952377319336 10.05333137512207 8.487428665161133 9.025765419006348 8.487428665161133 Z" stroke="none"/>
      <path d="M 9.025765419006348 7.987428188323975 C 9.58732795715332 7.987428188323975 10.09555053710938 7.696572780609131 10.40547752380371 7.260103225708008 C 9.196780204772949 7.079338073730469 8.238615989685059 6.120895385742188 8.056872367858887 4.911356449127197 C 7.623157978057861 5.220377922058105 7.337150096893311 5.725912570953369 7.33227014541626 6.294499397277832 C 7.334349155426025 7.212520599365234 8.109027862548828 7.987428188323975 9.025765419006348 7.987428188323975 M 9.025765419006348 12.58169841766357 C 2.174625635147095 12.58169841766357 0.1154356375336647 6.634828090667725 0.09444563835859299 6.574898242950439 L -4.362182608019793e-06 6.290848255157471 L 0.09561564028263092 6.00717830657959 C 0.1154356375336647 5.946868419647217 2.174625635147095 -1.744842506923305e-06 9.025765419006348 -1.744842506923305e-06 C 15.877685546875 -1.744842506923305e-06 17.93649482727051 5.946868419647217 17.9563159942627 6.00717830657959 L 18.05115509033203 6.290848255157471 L 17.95514488220215 6.574898242950439 C 17.93649482727051 6.634828090667725 15.877685546875 12.58169841766357 9.025765419006348 12.58169841766357 Z M 9.025765419006348 1.797328233718872 C 4.224485874176025 1.797328233718872 2.363525629043579 5.249568462371826 1.911495685577393 6.290848255157471 C 2.361185550689697 7.327458381652832 4.222155570983887 10.78436851501465 9.025765419006348 10.78436851501465 C 13.82627582550049 10.78436851501465 15.68723583221436 7.331738471984863 16.14043617248535 6.290848255157471 C 15.6895751953125 5.254238128662109 13.82899570465088 1.797328233718872 9.025765419006348 1.797328233718872 Z M 9.025765419006348 8.987428665161133 C 7.551915645599365 8.987428665161133 6.332265853881836 7.767158031463623 6.332265853881836 6.290848255157471 C 6.342365741729736 4.806368350982666 7.542985439300537 3.604778289794922 9.025765419006348 3.594658136367798 C 9.108555793762207 3.594658136367798 9.185515403747559 3.612948179244995 9.266355514526367 3.618788242340088 C 9.117495536804199 3.879878282546997 9.025765419006348 4.175218105316162 9.025765419006348 4.493518352508545 C 9.025765419006348 5.478368282318115 9.838095664978027 6.290848255157471 10.82027530670166 6.290848255157471 C 11.1389856338501 6.290848255157471 11.43398571014404 6.198238372802734 11.69439601898193 6.049598217010498 C 11.70061588287354 6.130528450012207 11.71888542175293 6.208748340606689 11.71888542175293 6.290848255157471 C 11.71888542175293 7.767158031463623 10.49922561645508 8.987428665161133 9.025765419006348 8.987428665161133 Z" stroke="none" fill="#64748B"/>
    </g>
  </g>
</svg>