<svg id="Stocks" xmlns="http://www.w3.org/2000/svg" width="20" height="20" viewBox="0 0 20 20">
  <rect id="Rectangle_17848" data-name="Rectangle 17848" width="19.999" height="19.999" fill="none"/>
  <g id="bxs-component" transform="translate(-0.001 0)">
    <path id="Path_34862" data-name="Path 34862" d="M3.491,17.126,7.047,18.9a.89.89,0,0,0,.795,0L11,17.325,14.157,18.9a.88.88,0,0,0,.795,0l3.555-1.777a.89.89,0,0,0,.491-.8V11.887a.89.89,0,0,0-.491-.8L15.443,9.561V5.666a.89.89,0,0,0-.491-.8L11.4,3.093a.889.889,0,0,0-.8,0L7.046,4.871a.891.891,0,0,0-.491.8V9.561L3.491,11.093A.887.887,0,0,0,3,11.887v4.444A.89.89,0,0,0,3.491,17.126ZM7.444,11.1,9.456,12.11,6.867,13.4,4.855,12.4ZM11,8.882l2.666-1.333V9.561L11,10.894Zm5.567,3.228L14,13.39l-2.012-1.006L14.554,11.1ZM7.444,17.115l-.055-.028V15.131L10.11,13.77v2.012Zm7.11,0V15.1L17.22,13.77v2.012ZM11,4.882l2.012,1.006L10.45,7.169,8.437,6.163Z" transform="translate(-1 -0.999)" fill="#64748b"/>
  </g>
</svg>
