<svg id="Tags" xmlns="http://www.w3.org/2000/svg" width="20.001" height="20" viewBox="0 0 20.001 20">
  <rect id="Rectangle_17762" data-name="Rectangle 17762" width="20" height="20" fill="none"/>
  <g id="bx-purchase-tag" transform="translate(0.001)">
    <path id="Union_12" data-name="Union 12" d="M6.985,15.752.248,9.017A.851.851,0,0,1,0,8.42V.842A.842.842,0,0,1,.844,0H8.421a.841.841,0,0,1,.6.247l6.737,6.737a.842.842,0,0,1,0,1.19L8.175,15.752a.837.837,0,0,1-1.19,0Zm-5.3-7.68,5.893,5.9,6.39-6.387-5.9-5.9H1.686ZM3.362,4.628A1.267,1.267,0,1,1,4.63,5.9,1.267,1.267,0,0,1,3.362,4.628Z" transform="translate(2 2)" fill="#64748b"/>
  </g>
</svg>
