<svg xmlns="http://www.w3.org/2000/svg" width="14" height="9.801" viewBox="0 0 14 9.801">
  <g id="bx-cloud-upload" transform="translate(-2 -2)">
    <path id="Union_18" data-name="Union 18" d="M9.1,9.8V8.4h2.1a1.4,1.4,0,0,0,0-2.8h-.7V4.9A3.5,3.5,0,0,0,7,1.4,3.314,3.314,0,0,0,3.812,3.728l-.135.391-.407.071A2.279,2.279,0,0,0,1.4,6.3,2.1,2.1,0,0,0,3.5,8.4H4.9V9.8H3.5A3.5,3.5,0,0,1,0,6.3a3.673,3.673,0,0,1,2.63-3.4A4.718,4.718,0,0,1,7,0a4.906,4.906,0,0,1,4.861,4.278A2.8,2.8,0,0,1,11.2,9.8Zm-2.8,0V7H4.2L7,3.5,9.8,7H7.7V9.8Z" transform="translate(2 2)" fill="#465468"/>
  </g>
</svg>
