<svg id="User" xmlns="http://www.w3.org/2000/svg" width="14" height="14" viewBox="0 0 14 14">
  <path id="Path_34355" data-name="Path 34355" d="M8.5,1.5a7.091,7.091,0,0,0-7,7,7,7,0,0,0,2.8,5.544V14.1h.07a6.79,6.79,0,0,0,8.26,0h.07v-.056A7,7,0,0,0,15.5,8.5a7.091,7.091,0,0,0-7-7ZM5.749,13.351A2.1,2.1,0,0,1,7.8,11.7H9.2a2.1,2.1,0,0,1,2.051,1.652A5.425,5.425,0,0,1,5.749,13.351Zm6.678-.9A3.5,3.5,0,0,0,9.2,10.3H7.8a3.5,3.5,0,0,0-3.227,2.149A5.6,5.6,0,0,1,2.9,8.5,5.67,5.67,0,0,1,8.5,2.9a5.67,5.67,0,0,1,5.6,5.6A5.6,5.6,0,0,1,12.427,12.448Z" transform="translate(-1.5 -1.5)" fill="#a1acb8"/>
  <path id="Path_34356" data-name="Path 34356" d="M9,4.5a2.933,2.933,0,0,0-3,3,2.933,2.933,0,0,0,3,3,2.933,2.933,0,0,0,3-3,2.933,2.933,0,0,0-3-3ZM9,9A1.433,1.433,0,0,1,7.5,7.5,1.433,1.433,0,0,1,9,6a1.432,1.432,0,0,1,1.5,1.5A1.433,1.433,0,0,1,9,9Z" transform="translate(-2 -1.833)" fill="#a1acb8"/>
</svg>
