<svg xmlns="http://www.w3.org/2000/svg" width="15.905" height="15.968" viewBox="0 0 15.905 15.968">
  <path id="Path_34810" data-name="Path 34810" d="M16.588,5.321A7.919,7.919,0,0,0,4.123,14.869L3,18.968l4.2-1.1a7.927,7.927,0,0,0,3.784.963h0a7.914,7.914,0,0,0,5.6-13.51M10.986,17.5h0a6.573,6.573,0,0,1-3.351-.918l-.239-.142L4.9,17.088l.664-2.427-.156-.249A6.583,6.583,0,1,1,10.986,17.5M14.6,12.569c-.2-.1-1.171-.577-1.352-.643s-.312-.1-.445.1-.512.643-.627.775-.231.148-.429.049a5.406,5.406,0,0,1-1.591-.981,5.957,5.957,0,0,1-1.1-1.37c-.116-.2-.012-.3.087-.4s.2-.231.3-.346a1.352,1.352,0,0,0,.2-.33.361.361,0,0,0-.017-.346C9.567,8.972,9.171,8,9.006,7.6s-.323-.332-.445-.338-.252-.008-.378-.007a.729.729,0,0,0-.528.247,2.216,2.216,0,0,0-.692,1.649A3.849,3.849,0,0,0,7.77,11.2a8.819,8.819,0,0,0,3.38,2.985,11.709,11.709,0,0,0,1.128.417,2.721,2.721,0,0,0,1.246.078,2.036,2.036,0,0,0,1.336-.94,1.653,1.653,0,0,0,.116-.94c-.049-.083-.183-.133-.379-.232" transform="translate(-3 -3)" fill="#465468" fill-rule="evenodd"/>
</svg>
