<svg xmlns="http://www.w3.org/2000/svg" width="13.036" height="13.995" viewBox="0 0 13.036 13.995">
  <path id="Path_34750" data-name="Path 34750" d="M12.518,4a3.684,3.684,0,1,0,3.621,3.683A3.652,3.652,0,0,0,12.518,4Zm0,5.893a2.21,2.21,0,1,1,2.173-2.21A2.191,2.191,0,0,1,12.518,9.893ZM19.036,18v-.737a5.113,5.113,0,0,0-5.07-5.156h-2.9A5.113,5.113,0,0,0,6,17.259V18H7.448v-.737a3.652,3.652,0,0,1,3.621-3.683h2.9a3.652,3.652,0,0,1,3.621,3.683V18Z" transform="translate(-6 -4)" fill="rgba(67,89,113,0.7)"/>
</svg>
