<svg id="Settings" xmlns="http://www.w3.org/2000/svg" width="18" height="18" viewBox="0 0 18 18">
  <rect id="Rectangle_17766" data-name="Rectangle 17766" width="18" height="18" transform="translate(0 0)" fill="none"/>
  <g id="Group_43639" data-name="Group 43639" transform="translate(0.592)">
    <path id="Union_4" data-name="Union 4" d="M5.73,13.031a1.336,1.336,0,0,1-1.361-1.3v-.39a5.581,5.581,0,0,1-1.287-.724l-.363.2a1.438,1.438,0,0,1-1.857-.476L.182,9.212a1.277,1.277,0,0,1,.5-1.781l.342-.19a4.8,4.8,0,0,1,0-1.449L.68,5.6a1.275,1.275,0,0,1-.5-1.781L.861,2.7a1.432,1.432,0,0,1,1.857-.477l.363.2a5.548,5.548,0,0,1,1.287-.724V1.3A1.336,1.336,0,0,1,5.73,0H7.091A1.333,1.333,0,0,1,8.449,1.3v.39a5.581,5.581,0,0,1,1.29.724l.36-.2a1.431,1.431,0,0,1,1.856.477l.68,1.126a1.276,1.276,0,0,1-.5,1.781l-.342.19a4.8,4.8,0,0,1,0,1.449l.342.19a1.276,1.276,0,0,1,.5,1.781l-.68,1.126a1.434,1.434,0,0,1-1.856.476l-.36-.2a5.668,5.668,0,0,1-1.29.724v.39a1.333,1.333,0,0,1-1.359,1.3Zm-2.1-3.684a4.18,4.18,0,0,0,1.62.912.657.657,0,0,1,.483.623v.847H7.091v-.847a.655.655,0,0,1,.481-.623,4.178,4.178,0,0,0,1.62-.912A.7.7,0,0,1,10,9.255l.78.431.679-1.126-.765-.423a.642.642,0,0,1-.319-.722,3.556,3.556,0,0,0,0-1.8.642.642,0,0,1,.319-.722l.765-.424-.679-1.126L10,3.778a.7.7,0,0,1-.807-.094,4.173,4.173,0,0,0-1.62-.91.655.655,0,0,1-.481-.623V1.3H5.73v.847a.657.657,0,0,1-.483.623,4.175,4.175,0,0,0-1.62.91.7.7,0,0,1-.807.094l-.78-.431-.68,1.126.765.424a.639.639,0,0,1,.319.722,3.537,3.537,0,0,0,0,1.8.636.636,0,0,1-.319.722l-.765.423.68,1.126.78-.431a.7.7,0,0,1,.807.092ZM3.7,6.517a2.659,2.659,0,0,1,2.711-2.6,2.661,2.661,0,0,1,2.715,2.6A2.659,2.659,0,0,1,6.409,9.111,2.657,2.657,0,0,1,3.7,6.517Zm1.355,0a1.359,1.359,0,0,0,2.715,0,1.359,1.359,0,0,0-2.715,0Z" transform="translate(2 2)" fill="rgba(67,89,113,0.7)"/>
  </g>
</svg>
