<svg id="Group_41844" data-name="Group 41844" xmlns="http://www.w3.org/2000/svg" width="15" height="15" viewBox="0 0 15 15">
  <rect id="Rectangle_17641" data-name="Rectangle 17641" width="15" height="15" fill="none"/>
  <g id="bxs-business" transform="translate(0 0.5)">
    <path id="bxs-business-2" data-name="bxs-business" d="M16.25,6.111h-4.5a.764.764,0,0,0-.75.778V9.222H9.5V3.778A.764.764,0,0,0,8.75,3h-6A.764.764,0,0,0,2,3.778V16.222A.764.764,0,0,0,2.75,17h13.5a.764.764,0,0,0,.75-.778V6.889A.764.764,0,0,0,16.25,6.111ZM6.5,5.333H8V6.889H6.5ZM5,13.111H3.5V11.556H5ZM5,10H3.5V8.444H5ZM5,6.889H3.5V5.333H5Zm3,6.222H6.5V11.556H8ZM8,10H6.5V8.444H8Zm6.75,3.111h-1.5V11.556h1.5Zm0-3.111h-1.5V8.444h1.5Z" transform="translate(-2 -3)" fill="#697a8d"/>
  </g>
</svg>
