<svg id="Group_41844" data-name="Group 41844" xmlns="http://www.w3.org/2000/svg" width="15" height="15" viewBox="0 0 15 15">
  <rect id="Rectangle_17641" data-name="Rectangle 17641" width="15" height="15" fill="none"/>
  <g id="Calender" transform="translate(0.8)">
    <path id="Path_34353" data-name="Path 34353" d="M5.25,8.25h1.5v1.5H5.25Zm0,3h1.5v1.5H5.25Zm3-3h1.5v1.5H8.25Zm0,3h1.5v1.5H8.25Zm3-3h1.5v1.5h-1.5Zm0,3h1.5v1.5h-1.5Z" transform="translate(-2.25 -1.5)" fill="#697a8d"/>
    <path id="Path_34354" data-name="Path 34354" d="M3.75,16.5h10.5a1.5,1.5,0,0,0,1.5-1.5V4.5A1.5,1.5,0,0,0,14.25,3h-1.5V1.5h-1.5V3H6.75V1.5H5.25V3H3.75a1.5,1.5,0,0,0-1.5,1.5V15A1.5,1.5,0,0,0,3.75,16.5ZM14.25,6v9H3.75V6Z" transform="translate(-2.25 -1.5)" fill="#697a8d"/>
  </g>
</svg>
