<svg id="Group_41844" data-name="Group 41844" xmlns="http://www.w3.org/2000/svg" width="15" height="15" viewBox="0 0 15 15">
  <rect id="Rectangle_17641" data-name="Rectangle 17641" width="15" height="15" fill="none"/>
  <g id="Email" transform="translate(0 1.5)">
    <path id="Path_34345" data-name="Path 34345" d="M14.583,2.25H3.792A1.535,1.535,0,0,0,2.25,3.775V7.587H3.792V5.3L8.725,8.96a.778.778,0,0,0,.925,0L14.583,5.3v6.862H8.417v1.525h6.167a1.535,1.535,0,0,0,1.542-1.525V3.775A1.535,1.535,0,0,0,14.583,2.25ZM9.187,7.4,4.305,3.775H14.07Z" transform="translate(-1.125 -2.25)" fill="#697a8d"/>
    <path id="Path_34346" data-name="Path 34346" d="M1.125,6.75H5.063V7.875H1.125ZM2.25,8.438H5.625V9.563H2.25Zm1.688,1.688h2.25V11.25H3.938Z" transform="translate(-1.125 0.75)" fill="#697a8d"/>
  </g>
</svg>
