<svg id="Group_41844" data-name="Group 41844" xmlns="http://www.w3.org/2000/svg" width="15" height="15" viewBox="0 0 15 15">
  <rect id="Rectangle_17641" data-name="Rectangle 17641" width="15" height="15" fill="none"/>
  <g id="bx-detail">
    <path id="Path_34426" data-name="Path 34426" d="M15,2.25H3A1.592,1.592,0,0,0,1.5,3.917V15.583A1.592,1.592,0,0,0,3,17.25H15a1.592,1.592,0,0,0,1.5-1.667V3.917A1.592,1.592,0,0,0,15,2.25ZM3,15.583V3.917H15l0,11.667Z" transform="translate(-1.5 -2.25)" fill="#697a8d"/>
    <path id="Path_34427" data-name="Path 34427" d="M4.5,5.25h9v1.8h-9Zm0,3.6h9v1.8h-9Zm0,3.6H9v1.8H4.5Z" transform="translate(-1.5 -2.25)" fill="#697a8d"/>
  </g>
</svg>
