<svg xmlns="http://www.w3.org/2000/svg" width="15" height="15.001" viewBox="0 0 15 15.001">
  <g id="Group_41844" data-name="Group 41844" transform="translate(0 0.001)">
    <rect id="Rectangle_17641" data-name="Rectangle 17641" width="15" height="15" fill="none"/>
    <g id="User" transform="translate(0 -0.001)">
      <path id="Path_34355" data-name="Path 34355" d="M9,1.5A7.6,7.6,0,0,0,1.5,9a7.5,7.5,0,0,0,3,5.94V15h.075a7.275,7.275,0,0,0,8.85,0H13.5v-.06A7.5,7.5,0,0,0,16.5,9,7.6,7.6,0,0,0,9,1.5ZM6.053,14.2a2.25,2.25,0,0,1,2.2-1.77h1.5a2.25,2.25,0,0,1,2.2,1.77A5.812,5.812,0,0,1,6.053,14.2Zm7.155-.968a3.75,3.75,0,0,0-3.457-2.3H8.25a3.75,3.75,0,0,0-3.457,2.3A6,6,0,0,1,3,9,6.075,6.075,0,0,1,9,3a6.075,6.075,0,0,1,6,6A6,6,0,0,1,13.208,13.23Z" transform="translate(-1.5 -1.5)" fill="#697a8d"/>
      <path id="Path_34356" data-name="Path 34356" d="M9,4.5a2.933,2.933,0,0,0-3,3,2.933,2.933,0,0,0,3,3,2.933,2.933,0,0,0,3-3,2.933,2.933,0,0,0-3-3ZM9,9A1.433,1.433,0,0,1,7.5,7.5,1.433,1.433,0,0,1,9,6a1.432,1.432,0,0,1,1.5,1.5A1.433,1.433,0,0,1,9,9Z" transform="translate(-1.5 -1.5)" fill="#697a8d"/>
    </g>
  </g>
</svg>
