<svg id="Group_41844" data-name="Group 41844" xmlns="http://www.w3.org/2000/svg" width="15" height="15" viewBox="0 0 15 15">
  <rect id="Rectangle_17641" data-name="Rectangle 17641" width="15" height="15" fill="none"/>
  <g id="Phone" transform="translate(0 0.367)">
    <path id="Path_34347" data-name="Path 34347" d="M12.426,15.765a1.54,1.54,0,0,0,1.072-.421l2.032-1.933a.689.689,0,0,0,0-1.006l-3-2.853a.778.778,0,0,0-1.057,0l-1.2,1.134a5.763,5.763,0,0,1-2.25-1.134,5.353,5.353,0,0,1-1.192-2.14L8.024,6.272a.689.689,0,0,0,0-1.006l-3-2.853a.778.778,0,0,0-1.057,0L1.942,4.353A1.392,1.392,0,0,0,1.5,5.373,10.637,10.637,0,0,0,4.725,12.7a11.763,11.763,0,0,0,7.7,3.067ZM4.5,3.932,6.442,5.779l-.967.92a.692.692,0,0,0-.225.649,7.1,7.1,0,0,0,1.725,3.21,7.706,7.706,0,0,0,3.375,1.64.776.776,0,0,0,.682-.193L12,11.065l1.942,1.847-1.5,1.426A10.224,10.224,0,0,1,5.79,11.692,9.244,9.244,0,0,1,3,5.359ZM15,7.919h1.5a6.126,6.126,0,0,0-1.934-4.58A6.789,6.789,0,0,0,9.749,1.5V2.926a5.22,5.22,0,0,1,3.765,1.411A4.7,4.7,0,0,1,15,7.919Z" transform="translate(-1.5 -1.498)" fill="#697a8d"/>
    <path id="Path_34348" data-name="Path 34348" d="M9.75,6C11.325,6,12,6.675,12,8.25h1.5A3.385,3.385,0,0,0,9.75,4.5Z" transform="translate(-1.501 -1.695)" fill="#697a8d"/>
  </g>
</svg>
