<svg xmlns="http://www.w3.org/2000/svg" xmlns:xlink="http://www.w3.org/1999/xlink" width="221.308" height="57" viewBox="0 0 221.308 57">
  <defs>
    <linearGradient id="linear-gradient" x1="0.963" y1="0.326" x2="0.242" y2="0.561" gradientUnits="objectBoundingBox">
      <stop offset="0" stop-color="#7e3dff"/>
      <stop offset="1" stop-color="#8f17e8"/>
    </linearGradient>
  </defs>
  <g id="Group_43448" data-name="Group 43448" transform="translate(-45 -45)">
    <g id="_2977988317872" transform="translate(45 45)">
      <path id="Path_34712" data-name="Path 34712" d="M12.16,32.62h6.026l12.1,31.431H24.059l-2.452-6.479H8.723l-2.51,6.479H-.01L12.16,32.62Zm3.021,8.354L10.92,51.794h8.5L15.18,40.974Z" transform="translate(0.01 -31.832)"/>
      <path id="Path_34713" data-name="Path 34713" d="M1419.43,371.521h5.91V382.7a15.453,15.453,0,0,0,.452,4.531,3.982,3.982,0,0,0,1.445,1.977,4.178,4.178,0,0,0,2.459.7,4.329,4.329,0,0,0,2.48-.693,4.044,4.044,0,0,0,1.51-2.036,15.706,15.706,0,0,0,.365-4.29V371.52h5.822v9.835q0,6.085-.963,8.325a9.074,9.074,0,0,1-3.466,4.2,10.655,10.655,0,0,1-5.815,1.459,10.318,10.318,0,0,1-6.187-1.707,9.012,9.012,0,0,1-3.327-4.757,28.611,28.611,0,0,1-.686-7.683V371.52Z" transform="translate(-1385.146 -362.547)"/>
      <path id="Path_34714" data-name="Path 34714" d="M2415.937,16.31h5.822v8.58h3.458v5.034h-3.458V48.135h-5.822V29.924h-2.977V24.89h2.977Z" transform="translate(-2354.68 -15.916)"/>
      <path id="Path_34715" data-name="Path 34715" d="M4143.812,32.62h5.8l7.318,21.924,7.354-21.924h5.786l5.268,31.431h-5.771L4166.209,44.2l-6.654,19.852h-5.282L4147.649,44.2l-3.422,19.852h-5.836Z" transform="translate(-4038.436 -31.832)"/>
      <path id="Path_34716" data-name="Path 34716" d="M5806.734,347.99a12.377,12.377,0,0,1,6.194,1.642,12,12,0,0,1,6.157,10.528,12.172,12.172,0,0,1-1.634,6.136,11.826,11.826,0,0,1-4.465,4.465,12.4,12.4,0,0,1-6.23,1.612,11.636,11.636,0,0,1-8.552-3.546,12.214,12.214,0,0,1,8.529-20.837Zm.088,5.472a6.017,6.017,0,0,0-4.531,1.882,6.712,6.712,0,0,0-1.81,4.83,6.807,6.807,0,0,0,1.788,4.9,5.991,5.991,0,0,0,4.53,1.875,6.079,6.079,0,0,0,4.561-1.9,7.461,7.461,0,0,0,.028-9.725A6.052,6.052,0,0,0,5806.822,353.462Z" transform="translate(-5654.702 -339.585)"/>
      <path id="Path_34717" data-name="Path 34717" d="M6976.794,0h5.822V32.219h-5.822V29.745a11.381,11.381,0,0,1-3.429,2.327,9.666,9.666,0,0,1-3.729.715,10.372,10.372,0,0,1-7.807-3.487,12.109,12.109,0,0,1-3.29-8.66,12.443,12.443,0,0,1,3.188-8.806,10.168,10.168,0,0,1,7.733-3.429,9.979,9.979,0,0,1,3.933.781,10.849,10.849,0,0,1,3.4,2.357V0Zm-6.136,13.745a5.888,5.888,0,0,0-4.5,1.911,6.855,6.855,0,0,0-1.795,4.9,6.945,6.945,0,0,0,1.824,4.954,5.933,5.933,0,0,0,4.494,1.941,6,6,0,0,0,4.56-1.912,6.955,6.955,0,0,0,1.817-5,6.771,6.771,0,0,0-1.817-4.91A6.1,6.1,0,0,0,6970.658,13.745Z" transform="translate(-6790.471 0)"/>
      <path id="Path_34718" data-name="Path 34718" d="M8177.59,361.843h-18.714a6.321,6.321,0,0,0,2.159,3.961,6.737,6.737,0,0,0,4.473,1.467,7.7,7.7,0,0,0,5.6-2.3l4.889,2.313a11.641,11.641,0,0,1-4.386,3.86,13.715,13.715,0,0,1-6.07,1.248,11.971,11.971,0,0,1-8.878-3.444,11.711,11.711,0,0,1-3.43-8.616,12.1,12.1,0,0,1,3.43-8.813,11.493,11.493,0,0,1,8.594-3.509,11.974,11.974,0,0,1,8.923,3.495,12.608,12.608,0,0,1,3.437,9.237l-.021,1.1Zm-5.8-4.553a5.761,5.761,0,0,0-2.276-3.1,6.716,6.716,0,0,0-3.954-1.189,7.071,7.071,0,0,0-4.282,1.342,7.484,7.484,0,0,0-2.138,2.948h12.651Z" transform="translate(-7956.304 -339.605)"/>
      <path id="Path_34719" data-name="Path 34719" d="M3005.917,415.778a2.088,2.088,0,1,1,1.318-2.643,2.088,2.088,0,0,1-1.318,2.643Zm4.044-8.672a1.284,1.284,0,1,1-1.613.833,1.282,1.282,0,0,1,1.613-.833Zm3.6-3.912a1.284,1.284,0,1,1-1.613.833A1.283,1.283,0,0,1,3013.562,403.2Zm-11.754-3.095a1.671,1.671,0,1,1-1.06,2.113A1.671,1.671,0,0,1,3001.807,400.1Zm8.744-2.312a1.671,1.671,0,1,1-1.06,2.112,1.67,1.67,0,0,1,1.06-2.112Zm-3.624,3.838a1.671,1.671,0,1,1-1.06,2.112,1.671,1.671,0,0,1,1.06-2.112Zm-1.619-4.841a1.671,1.671,0,1,1-1.059,2.113A1.671,1.671,0,0,1,3005.308,396.785Zm-2.3,11.457a2.088,2.088,0,1,1,2.622-1.362,2.089,2.089,0,0,1-2.622,1.362Zm9.07,5.223a.715.715,0,1,1-.163-1A.716.716,0,0,1,3012.075,413.464Zm4.884-4.717a.822.822,0,1,1-.826-.818.822.822,0,0,1,.826.818Zm1.083-6.7a.84.84,0,1,1-1.175-.179.841.841,0,0,1,1.175.179Zm-2.942-6.466a1.284,1.284,0,1,1-1.613.833,1.283,1.283,0,0,1,1.613-.833Zm-6.439-3.445a1.671,1.671,0,1,1-1.06,2.113A1.671,1.671,0,0,1,3008.662,392.138Zm-7.273,1.256a1.867,1.867,0,1,1,.431,2.6,1.868,1.868,0,0,1-.431-2.6Zm-5.2,5.406a2.088,2.088,0,1,1,2.1,2.074,2.088,2.088,0,0,1-2.1-2.074Zm-.808,7.432a2.088,2.088,0,1,1,2.921.44,2.089,2.089,0,0,1-2.921-.44Zm3.718,6.486a2.088,2.088,0,1,1,2.621-1.362,2.088,2.088,0,0,1-2.621,1.362Z" transform="translate(-2922.632 -382.584)" fill-rule="evenodd" fill="url(#linear-gradient)"/>
    </g>
    <text id="Put_the_Business_in_Auto_Mode" data-name="Put the Business in Auto Mode" transform="translate(45 99)" fill="#566a7f" font-size="14" font-family="PublicSans-Medium, Public Sans" font-weight="500"><tspan x="0" y="0">Put the Business in Auto Mode</tspan></text>
  </g>
</svg>
