<svg xmlns="http://www.w3.org/2000/svg" xmlns:xlink="http://www.w3.org/1999/xlink" width="772.985" height="656.597" viewBox="0 0 772.985 656.597">
  <defs>
    <linearGradient id="linear-gradient" x1="0.5" x2="0.5" y2="1" gradientUnits="objectBoundingBox">
      <stop offset="0" stop-color="#7e3dff"/>
      <stop offset="1" stop-color="#8f17e8"/>
    </linearGradient>
    <linearGradient id="linear-gradient-2" x1="0.963" y1="0.326" x2="0.242" y2="0.561" xlink:href="#linear-gradient"/>
  </defs>
  <g id="Group_43447" data-name="Group 43447" transform="translate(-23.831 -98.052)">
    <path id="Path_34668" data-name="Path 34668" d="M3079.516,575.268a11.7,11.7,0,1,0-.007,0Zm31.229-66.965a9.912,9.912,0,1,1-12.455,6.429,9.9,9.9,0,0,1,12.455-6.429ZM3138.54,478.1a9.912,9.912,0,1,1-12.455,6.431A9.9,9.9,0,0,1,3138.54,478.1Zm-90.771-23.9a12.9,12.9,0,1,1-8.179,16.315A12.9,12.9,0,0,1,3047.769,454.2Zm67.524-17.853a12.9,12.9,0,1,1-8.182,16.313,12.9,12.9,0,0,1,8.182-16.313ZM3087.3,465.98a12.9,12.9,0,1,1-8.182,16.313,12.9,12.9,0,0,1,8.182-16.313Zm-12.5-37.387a12.9,12.9,0,1,1-8.182,16.314A12.905,12.905,0,0,1,3074.808,428.593Zm-17.779,88.473a16.125,16.125,0,1,1,20.243-10.514,16.126,16.126,0,0,1-20.243,10.514Zm70.037,40.331a5.525,5.525,0,1,1-1.26-7.707A5.529,5.529,0,0,1,3127.066,557.4Zm37.714-36.429a6.344,6.344,0,1,1-6.375-6.313,6.341,6.341,0,0,1,6.375,6.313Zm8.367-51.719a6.483,6.483,0,1,1-9.067-1.385,6.494,6.494,0,0,1,9.067,1.385Zm-22.716-49.934a9.913,9.913,0,1,1-12.455,6.429,9.9,9.9,0,0,1,12.455-6.429Zm-49.725-26.6a12.9,12.9,0,1,1-8.182,16.315A12.9,12.9,0,0,1,3100.707,392.713Zm-56.166,9.7a14.42,14.42,0,1,1,3.328,20.116A14.425,14.425,0,0,1,3044.54,402.412Zm-40.187,41.75a16.131,16.131,0,1,1,16.241,16.015,16.128,16.128,0,0,1-16.241-16.015Zm-6.239,57.394a16.127,16.127,0,1,1,22.557,3.4,16.131,16.131,0,0,1-22.557-3.4Zm28.713,50.089a16.125,16.125,0,1,1,20.243-10.514,16.122,16.122,0,0,1-20.243,10.514Z" transform="translate(2189.564 -2519.257) rotate(110)" fill="rgba(92,90,209,0.2)" fill-rule="evenodd"/>
    <path id="Path_34711" data-name="Path 34711" d="M3079.518,575.714a11.769,11.769,0,1,0-.007,0Zm31.23-67.128a9.934,9.934,0,1,1-12.456,6.445,9.933,9.933,0,0,1,12.456-6.445Zm27.8-30.28a9.934,9.934,0,1,1-12.456,6.447A9.93,9.93,0,0,1,3138.543,478.306Zm-90.772-23.959a12.93,12.93,0,1,1-8.179,16.355A12.9,12.9,0,0,1,3047.771,454.347Zm67.526-17.9a12.929,12.929,0,1,1-8.183,16.353,12.894,12.894,0,0,1,8.183-16.353Zm-27.991,29.71a12.93,12.93,0,1,1-8.182,16.353,12.9,12.9,0,0,1,8.182-16.353Zm-12.5-37.478a12.93,12.93,0,1,1-8.182,16.354A12.9,12.9,0,0,1,3074.81,428.682ZM3057.03,517.37a16.161,16.161,0,1,1,20.243-10.54,16.173,16.173,0,0,1-20.243,10.54Zm70.039,40.429a5.53,5.53,0,1,1-1.26-7.726A5.521,5.521,0,0,1,3127.069,557.8Zm37.714-36.518a6.344,6.344,0,1,1-6.375-6.329,6.348,6.348,0,0,1,6.375,6.329Zm8.368-51.845a6.489,6.489,0,1,1-9.067-1.389,6.52,6.52,0,0,1,9.067,1.389Zm-22.717-50.056a9.935,9.935,0,1,1-12.455,6.445,9.933,9.933,0,0,1,12.455-6.445Zm-49.726-26.666a12.93,12.93,0,1,1-8.182,16.355A12.9,12.9,0,0,1,3100.709,392.714Zm-56.167,9.723a14.432,14.432,0,1,1,3.329,20.165A14.4,14.4,0,0,1,3044.542,402.437Zm-40.188,41.851a16.131,16.131,0,1,1,16.242,16.054,16.149,16.149,0,0,1-16.242-16.054Zm-6.239,57.534a16.141,16.141,0,1,1,22.557,3.408,16.2,16.2,0,0,1-22.557-3.408Zm28.713,50.211a16.161,16.161,0,1,1,20.244-10.539,16.169,16.169,0,0,1-20.244,10.539Z" transform="translate(-1813.18 3060.091) rotate(-60)" fill="rgba(92,90,209,0.2)" fill-rule="evenodd"/>
    <g id="undraw_programming_re_kg9v" transform="translate(156 190.052)">
      <circle id="Ellipse_1309" data-name="Ellipse 1309" cx="21.746" cy="21.746" r="21.746" transform="translate(351.528 38.67)" fill="#f2f2f2"/>
      <path id="Path_34675" data-name="Path 34675" d="M756.585,574.843c32.323-24.62,47.761-65.99,38.1-105.455q-.36-1.471-.76-2.935c-6.408-23.426-22.26-45.69-45.364-53.176-19.4-6.285-40.575-1.452-60.814-3.951-39.729-4.906-70.531-37.052-92.2-70.709s-38.329-71.331-67.127-99.137c-47.469-45.833-124.9-55.7-183.759-25.867S248.308,309.636,249.907,375.6s40.76,129.033,97.631,162.494c20.892,12.292,45.056,21,69.1,17.953,20.866-2.644,39.825-13.856,60.593-17.184,32.652-5.233,65.1,9.53,93.337,26.733s55.52,37.594,87.612,45.57C689.345,618.91,727.951,596.652,756.585,574.843Z" transform="translate(-214.619 -169.944)" fill="#f2f2f2"/>
      <path id="Path_34676" data-name="Path 34676" d="M734.409,208.926c-.709-.472-1.425-.92-2.134-1.376a309.681,309.681,0,0,0-65.407-31.706l-5.326,73.479H627.775v-84.2c-2.126-.44-4.268-.855-6.41-1.246v85.451H581.238a83.293,83.293,0,0,1-83.293-83.292h0c-2.15.464-4.284.961-6.418,1.49v81.8H458.845l-5.074-70.066a310.185,310.185,0,0,0-66.735,35.452c-.358.244-.717.5-1.067.741-1.8,1.262-3.575,2.549-5.343,3.852V499.623H476.95l-1.7-23.578L465.881,346.59H654.5l-9.366,129.455-1.7,23.578h95.257V211.76Q736.56,210.318,734.409,208.926ZM491.528,325.211H464.334l-5.025-69.472h32.219Zm129.838,0H575.692v-1.376a5.033,5.033,0,0,0-5.041-5.033H550.795a5.031,5.031,0,0,0-5.033,5.033v1.376H497.946V255.74h123.42Zm6.41,0V255.74h33.3l-5.025,69.472Z" transform="translate(-238.885 -163.871)" fill="#3f3d56"/>
      <path id="Path_34677" data-name="Path 34677" d="M206.59,598.162a235.368,235.368,0,0,0,22.9,23.578l595.012.815a235.356,235.356,0,0,0,22.9-23.578Z" transform="translate(-206.59 -244.459)" fill="#3f3d56"/>
      <path id="Path_34678" data-name="Path 34678" d="M702.02,504.7v69.8a3.357,3.357,0,0,0,3.355,3.355H808.811a3.357,3.357,0,0,0,3.355-3.355V504.7a3.359,3.359,0,0,0-3.355-3.351H705.375A3.359,3.359,0,0,0,702.02,504.7Z" transform="translate(-298.523 -226.494)" fill="#3f3d56"/>
      <path id="Path_34679" data-name="Path 34679" d="M705,506.12V574.19a1.8,1.8,0,0,0,1.793,1.793H808.5a1.8,1.8,0,0,0,1.793-1.793V506.12a1.8,1.8,0,0,0-1.793-1.8H706.792A1.8,1.8,0,0,0,705,506.12Z" transform="translate(-299.076 -227.046)" fill="url(#linear-gradient)"/>
      <path id="Path_34680" data-name="Path 34680" d="M699.26,605.265a2.012,2.012,0,0,0,1.583.757H811.6a2.038,2.038,0,0,0,1.992-2.456l-1.719-8.167a2.042,2.042,0,0,0-1.269-1.48,1.976,1.976,0,0,0-.723-.137H702.555a1.972,1.972,0,0,0-.723.136,2.042,2.042,0,0,0-1.269,1.48l-1.719,8.167a2.036,2.036,0,0,0,.416,1.7Z" transform="translate(-297.926 -243.646)" fill="#2f2e41"/>
      <rect id="Rectangle_17676" data-name="Rectangle 17676" width="3.411" height="2.047" rx="0.488" transform="translate(511.167 353.654) rotate(180)" fill="#3f3d56"/>
      <rect id="Rectangle_17677" data-name="Rectangle 17677" width="3.411" height="2.047" rx="0.488" transform="translate(504.345 353.654) rotate(180)" fill="#3f3d56"/>
      <rect id="Rectangle_17678" data-name="Rectangle 17678" width="3.411" height="2.047" rx="0.488" transform="translate(497.522 353.654) rotate(180)" fill="#3f3d56"/>
      <rect id="Rectangle_17679" data-name="Rectangle 17679" width="3.411" height="2.047" rx="0.488" transform="translate(490.7 353.654) rotate(180)" fill="#3f3d56"/>
      <rect id="Rectangle_17680" data-name="Rectangle 17680" width="3.411" height="2.047" rx="0.488" transform="translate(483.877 353.654) rotate(180)" fill="#3f3d56"/>
      <rect id="Rectangle_17681" data-name="Rectangle 17681" width="3.411" height="2.047" rx="0.488" transform="translate(477.055 353.654) rotate(180)" fill="#3f3d56"/>
      <rect id="Rectangle_17682" data-name="Rectangle 17682" width="3.411" height="2.047" rx="0.488" transform="translate(470.232 353.654) rotate(180)" fill="#3f3d56"/>
      <rect id="Rectangle_17683" data-name="Rectangle 17683" width="3.411" height="2.047" rx="0.488" transform="translate(463.41 353.654) rotate(180)" fill="#3f3d56"/>
      <rect id="Rectangle_17684" data-name="Rectangle 17684" width="3.411" height="2.047" rx="0.488" transform="translate(456.587 353.654) rotate(180)" fill="#3f3d56"/>
      <rect id="Rectangle_17685" data-name="Rectangle 17685" width="3.411" height="2.047" rx="0.488" transform="translate(449.765 353.654) rotate(180)" fill="#3f3d56"/>
      <rect id="Rectangle_17686" data-name="Rectangle 17686" width="3.411" height="2.047" rx="0.488" transform="translate(442.942 353.654) rotate(180)" fill="#3f3d56"/>
      <rect id="Rectangle_17687" data-name="Rectangle 17687" width="3.411" height="2.047" rx="0.488" transform="translate(436.119 353.654) rotate(180)" fill="#3f3d56"/>
      <rect id="Rectangle_17688" data-name="Rectangle 17688" width="3.411" height="2.047" rx="0.488" transform="translate(429.297 353.654) rotate(180)" fill="#3f3d56"/>
      <rect id="Rectangle_17689" data-name="Rectangle 17689" width="3.411" height="2.047" rx="0.488" transform="translate(422.474 353.654) rotate(180)" fill="#3f3d56"/>
      <rect id="Rectangle_17690" data-name="Rectangle 17690" width="3.411" height="2.047" rx="0.488" transform="translate(415.652 353.654) rotate(180)" fill="#3f3d56"/>
      <rect id="Rectangle_17691" data-name="Rectangle 17691" width="3.411" height="2.047" rx="0.488" transform="translate(408.829 353.654) rotate(180)" fill="#3f3d56"/>
      <rect id="Rectangle_17692" data-name="Rectangle 17692" width="3.411" height="2.047" rx="0.488" transform="translate(511.248 357.065) rotate(180)" fill="#3f3d56"/>
      <rect id="Rectangle_17693" data-name="Rectangle 17693" width="3.411" height="2.047" rx="0.488" transform="translate(504.425 357.065) rotate(180)" fill="#3f3d56"/>
      <rect id="Rectangle_17694" data-name="Rectangle 17694" width="3.411" height="2.047" rx="0.488" transform="translate(497.603 357.065) rotate(180)" fill="#3f3d56"/>
      <rect id="Rectangle_17695" data-name="Rectangle 17695" width="3.411" height="2.047" rx="0.488" transform="translate(490.78 357.065) rotate(180)" fill="#3f3d56"/>
      <rect id="Rectangle_17696" data-name="Rectangle 17696" width="3.411" height="2.047" rx="0.488" transform="translate(483.958 357.065) rotate(180)" fill="#3f3d56"/>
      <rect id="Rectangle_17697" data-name="Rectangle 17697" width="3.411" height="2.047" rx="0.488" transform="translate(477.135 357.065) rotate(180)" fill="#3f3d56"/>
      <rect id="Rectangle_17698" data-name="Rectangle 17698" width="3.411" height="2.047" rx="0.488" transform="translate(470.313 357.065) rotate(180)" fill="#3f3d56"/>
      <rect id="Rectangle_17699" data-name="Rectangle 17699" width="3.411" height="2.047" rx="0.488" transform="translate(463.49 357.065) rotate(180)" fill="#3f3d56"/>
      <rect id="Rectangle_17700" data-name="Rectangle 17700" width="3.411" height="2.047" rx="0.488" transform="translate(456.668 357.065) rotate(180)" fill="#3f3d56"/>
      <rect id="Rectangle_17701" data-name="Rectangle 17701" width="3.411" height="2.047" rx="0.488" transform="translate(449.845 357.065) rotate(180)" fill="#3f3d56"/>
      <rect id="Rectangle_17702" data-name="Rectangle 17702" width="3.411" height="2.047" rx="0.488" transform="translate(443.023 357.065) rotate(180)" fill="#3f3d56"/>
      <rect id="Rectangle_17703" data-name="Rectangle 17703" width="3.411" height="2.047" rx="0.488" transform="translate(436.2 357.065) rotate(180)" fill="#3f3d56"/>
      <rect id="Rectangle_17704" data-name="Rectangle 17704" width="3.411" height="2.047" rx="0.488" transform="translate(429.378 357.065) rotate(180)" fill="#3f3d56"/>
      <rect id="Rectangle_17705" data-name="Rectangle 17705" width="3.411" height="2.047" rx="0.488" transform="translate(422.555 357.065) rotate(180)" fill="#3f3d56"/>
      <rect id="Rectangle_17706" data-name="Rectangle 17706" width="3.411" height="2.047" rx="0.488" transform="translate(415.733 357.065) rotate(180)" fill="#3f3d56"/>
      <rect id="Rectangle_17707" data-name="Rectangle 17707" width="3.411" height="2.047" rx="0.488" transform="translate(408.91 357.065) rotate(180)" fill="#3f3d56"/>
      <rect id="Rectangle_17708" data-name="Rectangle 17708" width="27.29" height="2.047" rx="0.488" transform="translate(478.5 361.158) rotate(180)" fill="#3f3d56"/>
      <path id="Path_34681" data-name="Path 34681" d="M709.03,639.51l-10.872-17.186,34.126-27.2,14.086-15.605a15.606,15.606,0,0,1,26.4,5.561h0a15.606,15.606,0,0,1-9.423,19.539l-22.274,8.206Z" transform="translate(-297.807 -240.043)" fill="#ffb6b6"/>
      <path id="Path_34682" data-name="Path 34682" d="M398.28,500.71v83.529H456.8V500.71a2.808,2.808,0,0,0-1.979-2.688,2.586,2.586,0,0,0-.839-.13H401.106A2.821,2.821,0,0,0,398.28,500.71Zm22.837,28.7a6.247,6.247,0,1,1,12.494,0V539.1a6.247,6.247,0,1,1-12.494,0Z" transform="translate(-242.161 -225.853)" fill="#2f2e41"/>
      <path id="Path_34683" data-name="Path 34683" d="M398.06,600.632v8.055a1.585,1.585,0,0,0,1.572,1.58h55.732a1.58,1.58,0,0,0,1.572-1.58v-8.055Z" transform="translate(-242.12 -244.918)" fill="#3f3d56"/>
      <path id="Path_34684" data-name="Path 34684" d="M285.25,345.164V497.675a7.336,7.336,0,0,0,7.33,7.33H518.586a7.336,7.336,0,0,0,7.33-7.33V345.164a7.339,7.339,0,0,0-7.33-7.322H292.58A7.339,7.339,0,0,0,285.25,345.164Z" transform="translate(-221.186 -196.154)" fill="#3f3d56"/>
      <path id="Path_34685" data-name="Path 34685" d="M291.76,348.268V497a3.924,3.924,0,0,0,3.917,3.917H517.913A3.924,3.924,0,0,0,521.83,497V348.268a3.926,3.926,0,0,0-3.917-3.926H295.677a3.926,3.926,0,0,0-3.917,3.926Z" transform="translate(-222.394 -197.36)" fill="#fff"/>
      <path id="Path_34686" data-name="Path 34686" d="M342.275,608.669a2.4,2.4,0,0,0,1.889.9H476.381a2.433,2.433,0,0,0,2.378-2.932l-2.052-9.749a2.438,2.438,0,0,0-1.515-1.767,2.358,2.358,0,0,0-.863-.163H346.209a2.358,2.358,0,0,0-.863.163,2.437,2.437,0,0,0-1.515,1.767l-2.052,9.749A2.431,2.431,0,0,0,342.275,608.669Z" transform="translate(-231.667 -243.865)" fill="#2f2e41"/>
      <path id="Path_34687" data-name="Path 34687" d="M513.018,369.122H305.073a.827.827,0,1,1,0-1.654H513.018a.827.827,0,1,1,0,1.654Z" transform="translate(-224.711 -201.651)" fill="#3f3d56"/>
      <ellipse id="Ellipse_1310" data-name="Ellipse 1310" cx="4.846" cy="4.954" rx="4.846" ry="4.954" transform="translate(89.67 151.687)" fill="#3f3d56"/>
      <ellipse id="Ellipse_1311" data-name="Ellipse 1311" cx="4.846" cy="4.954" rx="4.846" ry="4.954" transform="translate(106.412 151.687)" fill="#3f3d56"/>
      <ellipse id="Ellipse_1312" data-name="Ellipse 1312" cx="4.846" cy="4.954" rx="4.846" ry="4.954" transform="translate(123.153 151.687)" fill="#3f3d56"/>
      <path id="Path_34688" data-name="Path 34688" d="M545.3,351.622H533.406a.9.9,0,0,0,0,1.8H545.3a.9.9,0,1,0,0-1.8Z" transform="translate(-267.072 -198.711)" fill="#3f3d56"/>
      <path id="Path_34689" data-name="Path 34689" d="M545.292,355.772H533.4a.9.9,0,1,0,0,1.8h11.891a.9.9,0,1,0,0-1.8Z" transform="translate(-267.067 -199.481)" fill="#3f3d56"/>
      <path id="Path_34690" data-name="Path 34690" d="M545.3,359.922H533.406a.9.9,0,0,0,0,1.8H545.3a.9.9,0,1,0,0-1.8Z" transform="translate(-267.072 -200.251)" fill="#3f3d56"/>
      <path id="Path_34691" data-name="Path 34691" d="M898.812,593.567a5.226,5.226,0,0,0,5.036,3.527l21.576-.555a5.154,5.154,0,0,0,4.871-3.793l3.053-32.649a7.976,7.976,0,0,0,3.452.709,7.869,7.869,0,0,0-.4-15.732,6.656,6.656,0,0,0-1.414.147,5.333,5.333,0,0,0-3.97-1.713l-33.189.857a4.773,4.773,0,0,0-.819.1,5.184,5.184,0,0,0-3.969,6.731Zm35.162-35.686,2.173-7.78a5.3,5.3,0,0,0,.016-2.748c.106,0,.2-.05.3-.05a5.628,5.628,0,1,1,.263,11.253,5.3,5.3,0,0,1-2.757-.673Z" transform="translate(-333.921 -234.317)" fill="#2f2e41"/>
      <path id="Path_34692" data-name="Path 34692" d="M897.978,544.467c.707,4.043,8.657,6.885,18.216,6.391,8.79-.405,15.977-3.491,17.294-7.15a4.913,4.913,0,0,0-1.5-.2l-33.189.857A4.787,4.787,0,0,0,897.978,544.467Z" transform="translate(-334.886 -234.317)" fill="#3f3d56"/>
      <rect id="Rectangle_17746" data-name="Rectangle 17746" width="83.265" height="8.833" rx="3.264" transform="translate(149.552 253.909)" fill="#e6e6e6"/>
      <rect id="Rectangle_17747" data-name="Rectangle 17747" width="83.265" height="8.833" rx="3.264" transform="translate(149.552 271.575)" fill="#e6e6e6"/>
      <path id="Path_34696" data-name="Path 34696" d="M497.3,530.408l.177.557.009.019,5.314,16.157,6.113,18.619,11.5,34.989.112,5.435v.019l.855,43.723-2.369,5.927,2.666,9.718s-1.226-14.69-7.8-6.254c-3.726,4.794-8.083,9.7-11.66,14.3q7.818,3.164,15.887,5.723c1.161.372,2.332.725,3.5,1.078l.753.223a217.343,217.343,0,0,0,54.853,8.817c.966.028,1.914.046,2.834.065.325.009.641.019.957.019,1.041.009,2.072.019,3.112.019q3.15,0,6.271-.093a217.331,217.331,0,0,0,45.683-6.178c-.1-6.178-.381-13.4-.78-21.109-.186-3.781-4.357-7.879-4.608-11.836-.176-2.973,3.568-5.77,3.373-8.789-1.264-18.591-2.843-11.454-4.014-24.62q-.181-1.937-.334-3.707c-.753-8.455-1.273-13.741-1.273-13.741l5-31.505,7.851-49.464-.6-.994-.678-.334-41.409-20.5-2.248-5.76a8.942,8.942,0,0,0-8.26-5.658l-27.278-.111a8.9,8.9,0,0,0-7.256,3.688l-7.386,10.229Z" transform="translate(-260.535 -223.491)" fill="#3f3d56"/>
      <path id="Path_34697" data-name="Path 34697" d="M520.211,600.186l-6.179,13.221-4.218,9.031-7.256,37.99-3.633,3.856-3.112-13.649-32.576,7.233c-1.068-5.937-.286.2-.946-6.312.186-.186.381-.372.576-.557.52-.483.957-.938.948-1.375-.372-22.465.743-60.7,10.053-83.859a48.908,48.908,0,0,1,5.723-10.675c.186-.251.362-.5.539-.753,4.292-6.011,7.005-11.93,10.852-16.138v-.009a.435.435,0,0,0,.065-.065.127.127,0,0,0,.037-.028l26.423-14.01,1.134,31.849.808,22.893Z" transform="translate(-254.039 -230.713)" fill="#3f3d56"/>
      <path id="Path_34698" data-name="Path 34698" d="M650.391,604.015l7.718,16.513,2.694,5.751,7.254,37.987,3.621,3.846,3.12-13.646,1.466-.3,26.435-5.475,7.7,24.471a14.647,14.647,0,0,0-2.656-18.329c-.526-.476-.965-.94-.952-1.378.438-26.423-1.178-74.671-15.773-94.528-4.636-6.3-7.417-12.579-11.464-16.964-.013-.012-.013-.025-.025-.025l-9.848-16.124-.6-.99-.676-.338Z" transform="translate(-288.943 -230.787)" fill="#3f3d56"/>
      <circle id="Ellipse_5" data-name="Ellipse 5" cx="36.29" cy="36.29" r="36.29" transform="translate(278.406 181.329)" fill="#ffb6b6"/>
      <path id="Path_34699" data-name="Path 34699" d="M632.738,393.528a3.062,3.062,0,0,0-2.191-.969l.546-1.515a2.873,2.873,0,0,0-3.225-3.828l-1.987.383.187-1.328a2.878,2.878,0,0,0-3.852-3.111,3.067,3.067,0,0,1-2.639-.187,3.133,3.133,0,0,1-1.564-2.126l-.692-3.339-.073-.179c-3.372-5.62-9.855-9.708-17.787-11.207-7.061-1.344-14.3-.66-21.281-.016-2.769.261-5.9.554-8.5,2.15-2.215,1.368-4.089,4.1-3.706,6.866-6.882-2.109-14.261,2.1-17.918,7.411-4.333,6.32-5.041,14.236-5.155,20.426-.31,14.644,2.712,26.624,8.959,35.615.456.652.57,2.012,1.474,2.468l-.187-.3c1.01.5,2.036,1.319,1.653,2.191-1.1,2.508,6.206,8.055,11.353,9.887,9.391,3.347,21.876,3.062,30.655,1.857l.31-2.077c3.168-.432,5.4-1.254,6.027-2.541,1.108-.945,2.052-1.792,2.875-2.574l.008-.008c.016-.016.049-.041.065-.057,3.966-3.8,4.887-5.97,5.3-9.268a26.587,26.587,0,0,0-1.034-9.472c15.263,2.362-6.01-16.256,8.21-19.856a4.432,4.432,0,0,1,.5-.122c.415-.1.831-.2,1.23-.309a21.541,21.541,0,0,0,5.473-2.337c3.974-2.419,5.286-5.628,7.338-9.244A2.791,2.791,0,0,0,632.738,393.528Z" transform="translate(-268.992 -201.258)" fill="#2f2e41"/>
      <path id="Path_34700" data-name="Path 34700" d="M696.136,613.381c-.008,1.425-.024,3.421-.09,5.888q-.012.513-.024,1.051c-.106,4.536-.212,8.34-.383,12.567-.008.293-.016.578-.033.871-.228,5.9-.586,12.762-1.205,23.635-1.148,20.084-3.152,2.761-5.164,9.806-.1.35-.2.766-.3,1.254a22.731,22.731,0,0,1-1.531,5.155c-1.067.635-2.166,1.246-3.25,1.857-3.087,1.718-6.222,3.372-9.382,4.944-1.776.88-3.559,1.743-5.351,2.574-.285.13-.562.261-.839.383a220.605,220.605,0,0,1-28.3,10.8c-1.889.57-3.771,1.124-5.677,1.637-1.987.554-3.974,1.075-5.986,1.564a217.363,217.363,0,0,1-45.682,6.182c-2.077.065-4.17.09-6.271.09-1.043,0-2.069-.008-3.111-.016-.318,0-.635-.008-.953-.016-.92-.025-1.873-.041-2.834-.065a217.181,217.181,0,0,1-54.852-8.82l-.757-.22c-1.173-.358-2.337-.709-3.5-1.083q-8.063-2.553-15.89-5.717-5.974-2.407-11.809-5.164a.272.272,0,0,1-.1-.049c-.815-.375-1.637-.766-2.452-1.165-.106-.057-.22-.114-.334-.171q-4.557-2.223-9.016-4.659c-2.5-5.742-6.019-6.841-8.2-11.891a21.074,21.074,0,0,1-1.368-4.675c0-.016-.008-.032-.008-.057.228,3.03-.969-5.375-.008-.032-.008-.1-.016-.2-.024-.326-.024-.293-.057-.651-.106-1.1-2.793-27.276-2.614-58.468-3.828-84.172q-.122-2.492-.253-4.773c-.024-.505-.057-1-.09-1.49.057-.147.122-.3.2-.448a.818.818,0,0,1,.057-.122,1.342,1.342,0,0,1,.081-.146c.016-.024.041-.057.057-.081a.735.735,0,0,1,.041-.082c.073-.114.155-.236.244-.35.041-.049.073-.09.114-.13a.653.653,0,0,1,.1-.114.517.517,0,0,1,.09-.106c.033-.033.065-.073.106-.114a.243.243,0,0,1,.065-.065,1.653,1.653,0,0,1,.212-.2,7.816,7.816,0,0,1,.928-.733c.114-.073.236-.147.35-.228a15.584,15.584,0,0,1,2.582-1.238c.309-.114.619-.22.953-.334.122-.033.236-.073.358-.114.179-.057.358-.114.546-.155.928-.277,1.93-.513,3.013-.733.13-.024.269-.049.407-.081.2-.041.4-.073.6-.106.277-.049.562-.1.847-.147,2.419-.383,5.164-.668,8.193-.855l.855-.049,1.01-.049c.285-.016.578-.024.871-.033s.578-.024.88-.033c.823-.024,1.67-.049,2.533-.065,2.46-.049,5.049-.032,7.77.025,1.262.032,2.549.065,3.869.122.09,0,.171.008.253.008,1.148.041,2.3.09,3.494.155.831.041,1.67.082,2.508.13.79.049,1.588.1,2.394.155.627.032,1.254.081,1.889.122.538.041,1.075.081,1.613.114l.733.049c.4.033.8.057,1.205.1.9.073,1.792.147,2.7.22s1.824.163,2.745.244,1.849.171,2.777.261l.277.024c.847.09,1.694.171,2.549.261.2.016.4.033.594.057.815.082,1.647.178,2.469.265l.757.081c.645.07,1.28.131,1.929.207.855.1,1.727.187,2.574.3.66.073,1.319.147,1.979.228,1.034.122,2.085.253,3.136.391.4.049.8.1,1.2.155,3,.375,6.027.79,9.105,1.222,4.667.66,9.407,1.376,14.179,2.15s9.589,1.591,14.424,2.451c1.222.22,2.443.44,3.673.668l1.661.318c.945.171,1.89.35,2.834.529s1.889.358,2.834.546l3.38.66c7.4,1.466,14.766,3.03,21.949,4.667,1.181.269,2.362.546,3.535.814q3.518.818,6.972,1.661c.635.147,1.262.3,1.89.456,1.564.391,3.128.782,4.667,1.181l.269.073c1.132.277,2.24.562,3.347.855q3.922,1.026,7.713,2.077,2.517.7,4.976,1.409c2.451.709,4.854,1.425,7.192,2.15.578.179,1.156.358,1.727.529,1.71.529,3.4,1.067,5.033,1.6,1.3.424,2.574.855,3.828,1.287s2.484.863,3.689,1.295c.774.277,1.539.57,2.3.847,1.1.407,2.183.815,3.242,1.222.326.122.643.253.961.375.2.09.4.163.595.244.383.155.774.3,1.148.456s.757.3,1.132.464c.367.147.741.3,1.1.456s.725.3,1.083.464c.3.122.594.252.88.383.578.252,1.156.5,1.718.766.277.13.554.253.831.383l.635.293c.09.049.179.09.269.13.2.1.415.2.619.3.472.22.937.456,1.393.676.611.31,1.205.619,1.775.92s1.14.619,1.678.92c.09.049.171.1.261.147.122.065.244.138.367.2.415.236.814.481,1.213.717.782.48,1.523.953,2.215,1.425.155.106.3.212.456.31.513.366,1,.725,1.458,1.091,0,.008,0,.008.008.008.155.114.3.236.448.35.122.114.252.212.375.326.423.367.814.717,1.173,1.075a4.616,4.616,0,0,1,.342.35.992.992,0,0,1,.13.13c.163.163.31.326.448.489a.449.449,0,0,1,.057.073c.2.228.375.456.546.684.081.114.171.228.244.342.1.139.2.285.277.424.073.114.138.236.2.35a5.912,5.912,0,0,1,.44.92,4.252,4.252,0,0,1,.22.668,4.77,4.77,0,0,1,.139.66Z" transform="translate(-253.089 -237.569)" fill="#2f2e41"/>
      <path id="Path_34701" data-name="Path 34701" d="M696.134,613.382c-.008,1.425-.024,3.421-.09,5.888-.008.342-.024.692-.033,1.051-.081,3.461-.2,7.737-.375,12.567-.008.293-.016.578-.033.871-.228,5.9-.586,12.762-1.205,23.635-1.148,20.084-3.152,2.761-5.164,9.806-5.587-3.437-11.712-7.037-18.26-10.734q-1.771-1-3.575-2.012c-13.1-7.306-27.723-14.961-42.994-22.544-.6-.3-1.214-.6-1.816-.9-34.98-17.291-73.161-34.109-104.093-45.332-5.97-2.166-11.671-4.121-17.03-5.839-11.288-3.608-21.045-6.133-28.554-7.224-7.819-1.14-13.218-.733-15.4,1.621q-.122-2.492-.252-4.773-.049-.757-.1-1.49c.05-.134.116-.262.179-.391.009-.019.016-.038.025-.057a.81.81,0,0,1,.057-.122,1.333,1.333,0,0,1,.081-.147.871.871,0,0,1,.1-.163c.073-.114.155-.236.244-.35a2.847,2.847,0,0,1,.212-.244.52.52,0,0,1,.09-.106c.033-.033.065-.073.106-.114a.245.245,0,0,1,.065-.065,1.658,1.658,0,0,1,.212-.2,7.856,7.856,0,0,1,.928-.733c.114-.073.236-.147.35-.228a15.574,15.574,0,0,1,2.582-1.238c.31-.114.619-.22.953-.334.122-.033.236-.073.358-.114.179-.057.358-.114.546-.155.928-.277,1.93-.513,3.013-.733.326-.065.668-.13,1.01-.187l.847-.147c2.419-.383,5.164-.668,8.193-.855l.855-.049,1.01-.049c.285-.016.578-.024.871-.033s.578-.024.88-.033c.823-.024,1.67-.049,2.533-.065,2.46-.041,5.05-.024,7.77.033,1.262.024,2.549.065,3.869.122.081,0,.171.008.253.008,1.148.033,2.313.09,3.494.147.831.041,1.67.081,2.508.13.79.049,1.588.1,2.394.155.627.033,1.254.081,1.89.122.537.041,1.075.081,1.613.114l1.938.147,2.7.22,2.745.244c.92.081,1.849.171,2.777.261l.277.024c.847.09,1.694.171,2.549.261q7.11.721,14.635,1.686,4.5.574,9.105,1.23c4.667.66,9.407,1.376,14.179,2.142s9.589,1.591,14.424,2.451c1.222.22,2.443.44,3.673.668q2.248.415,4.5.847c.945.179,1.89.358,2.834.546l3.38.66c7.4,1.466,14.766,3.03,21.949,4.667,1.181.269,2.362.546,3.535.814q3.518.818,6.972,1.661c.635.155,1.262.309,1.889.464q2.358.586,4.667,1.173v.008c.09.016.179.041.269.065,1.124.285,2.24.57,3.347.863q3.921,1.026,7.713,2.069c1.678.472,3.339.937,4.976,1.409,2.451.717,4.854,1.433,7.191,2.15.578.179,1.156.358,1.727.529q2.565.806,5.033,1.6c1.3.424,2.574.855,3.828,1.287s2.484.863,3.69,1.295c.782.277,1.547.562,2.3.839,1.108.407,2.183.814,3.241,1.23.326.122.643.252.961.375.595.228,1.173.464,1.743.7.383.147.757.3,1.132.464.367.147.741.3,1.1.456s.725.3,1.083.464c.3.122.594.253.88.383.578.252,1.156.5,1.718.766.277.13.554.252.831.383l.635.293c.09.049.179.09.269.13.692.326,1.36.652,2.012.977.611.31,1.205.619,1.775.92.676.358,1.319.709,1.938,1.067.122.065.244.138.367.2.415.236.814.48,1.214.717.782.481,1.523.953,2.215,1.425s1.319.937,1.914,1.4c0,.008,0,.008.008.008.285.228.562.456.823.676.424.367.814.717,1.173,1.075a4.642,4.642,0,0,1,.342.35.98.98,0,0,1,.13.13c.171.187.342.375.505.562.2.228.375.456.546.684.081.114.171.228.244.342.1.138.2.285.277.424.073.114.138.236.2.35a5.927,5.927,0,0,1,.44.92,4.927,4.927,0,0,1,.22.668,4.759,4.759,0,0,1,.138.66Z" transform="translate(-253.087 -237.571)" opacity="0.2"/>
      <path id="Path_34702" data-name="Path 34702" d="M3003.711,411a1.668,1.668,0,1,1,1.052-2.111,1.668,1.668,0,0,1-1.052,2.111Zm3.23-6.925a1.025,1.025,0,1,1-1.288.665,1.024,1.024,0,0,1,1.288-.665Zm2.875-3.124a1.025,1.025,0,1,1-1.288.665A1.023,1.023,0,0,1,3009.815,400.951Zm-9.387-2.472a1.334,1.334,0,1,1-.846,1.687A1.334,1.334,0,0,1,3000.428,398.48Zm6.983-1.846a1.334,1.334,0,1,1-.846,1.687,1.334,1.334,0,0,1,.846-1.687Zm-2.9,3.065a1.334,1.334,0,1,1-.846,1.687,1.335,1.335,0,0,1,.846-1.687Zm-1.292-3.866a1.334,1.334,0,1,1-.846,1.687A1.335,1.335,0,0,1,3003.224,395.832Zm-1.838,9.149a1.668,1.668,0,1,1,2.094-1.087,1.667,1.667,0,0,1-2.094,1.087Zm7.243,4.171a.571.571,0,1,1-.13-.8A.572.572,0,0,1,3008.628,409.152Zm3.9-3.767a.656.656,0,1,1-.659-.653.656.656,0,0,1,.659.653Zm.865-5.349a.67.67,0,1,1-.938-.143.671.671,0,0,1,.938.143Zm-2.349-5.164a1.025,1.025,0,1,1-1.289.665,1.024,1.024,0,0,1,1.289-.665Zm-5.142-2.751a1.334,1.334,0,1,1-.847,1.687A1.334,1.334,0,0,1,3005.9,392.121Zm-5.809,1a1.491,1.491,0,1,1,.344,2.08A1.492,1.492,0,0,1,3000.094,393.124Zm-4.156,4.318a1.668,1.668,0,1,1,1.679,1.656,1.668,1.668,0,0,1-1.679-1.656Zm-.646,5.935a1.668,1.668,0,1,1,2.333.352,1.669,1.669,0,0,1-2.333-.352Zm2.97,5.18a1.668,1.668,0,1,1,2.093-1.087,1.667,1.667,0,0,1-2.093,1.087Z" transform="translate(-2423.398 -63.042)" fill-rule="evenodd" fill="url(#linear-gradient-2)"/>
      <path id="Path_34720" data-name="Path 34720" d="M3014.255,433.85a3.679,3.679,0,1,1,2.322-4.656,3.679,3.679,0,0,1-2.322,4.656Zm7.125-15.277a2.261,2.261,0,1,1-2.842,1.467,2.26,2.26,0,0,1,2.842-1.467Zm6.341-6.891a2.261,2.261,0,1,1-2.842,1.467A2.258,2.258,0,0,1,3027.72,411.682Zm-20.708-5.453a2.943,2.943,0,1,1-1.865,3.722A2.943,2.943,0,0,1,3007.012,406.23Zm15.4-4.073a2.943,2.943,0,1,1-1.867,3.721,2.944,2.944,0,0,1,1.867-3.721Zm-6.386,6.761a2.943,2.943,0,1,1-1.866,3.721,2.944,2.944,0,0,1,1.866-3.721Zm-2.851-8.529a2.943,2.943,0,1,1-1.865,3.722A2.945,2.945,0,0,1,3013.18,400.389Zm-4.055,20.183a3.679,3.679,0,1,1,4.618-2.4,3.678,3.678,0,0,1-4.618,2.4Zm15.978,9.2a1.26,1.26,0,1,1-.287-1.758A1.262,1.262,0,0,1,3025.1,429.773Zm8.6-8.311a1.447,1.447,0,1,1-1.455-1.44,1.447,1.447,0,0,1,1.455,1.44Zm1.909-11.8a1.479,1.479,0,1,1-2.069-.316,1.481,1.481,0,0,1,2.069.316Zm-5.182-11.392a2.262,2.262,0,1,1-2.843,1.467,2.259,2.259,0,0,1,2.843-1.467ZM3019.09,392.2a2.943,2.943,0,1,1-1.867,3.722A2.943,2.943,0,0,1,3019.09,392.2Zm-12.814,2.213a3.29,3.29,0,1,1,.759,4.589A3.291,3.291,0,0,1,3006.276,394.416Zm-9.168,9.524a3.68,3.68,0,1,1,3.7,3.654,3.68,3.68,0,0,1-3.7-3.654Zm-1.424,13.093a3.679,3.679,0,1,1,5.146.776,3.681,3.681,0,0,1-5.146-.776Zm6.551,11.427a3.679,3.679,0,1,1,4.617-2.4,3.678,3.678,0,0,1-4.617,2.4Z" transform="translate(-2556.862 -103.857)" fill="#fff" fill-rule="evenodd"/>
      <g id="Layer_x0020_1" transform="translate(135.744 212.221)">
        <g id="_2977988317872" transform="translate(0 0)">
          <path id="Path_34703" data-name="Path 34703" d="M6.087,32.62H9.107l6.061,15.748H12.049l-1.228-3.246H4.366L3.108,48.368H-.01l6.1-15.748ZM7.6,36.805,5.466,42.226H9.725Z" transform="translate(0.01 -32.225)"/>
          <path id="Path_34704" data-name="Path 34704" d="M1419.43,371.52h2.961v5.6a7.744,7.744,0,0,0,.227,2.27,2,2,0,0,0,.724.991,2.093,2.093,0,0,0,1.232.351,2.169,2.169,0,0,0,1.243-.347,2.027,2.027,0,0,0,.757-1.02,7.87,7.87,0,0,0,.183-2.149v-5.7h2.917v4.928a12.065,12.065,0,0,1-.482,4.171,4.545,4.545,0,0,1-1.736,2.1,5.338,5.338,0,0,1-2.913.731,5.169,5.169,0,0,1-3.1-.855,4.515,4.515,0,0,1-1.667-2.383,14.339,14.339,0,0,1-.344-3.849V371.52Z" transform="translate(-1402.253 -367.024)"/>
          <path id="Path_34705" data-name="Path 34705" d="M2414.451,16.31h2.917v4.3h1.732v2.522h-1.732v9.124h-2.917V23.131h-1.491V20.609h1.491Z" transform="translate(-2383.76 -16.113)"/>
          <path id="Path_34706" data-name="Path 34706" d="M4141.106,32.62h2.906l3.667,10.985,3.685-10.985h2.9l2.639,15.748h-2.891l-1.682-9.947-3.334,9.947h-2.646l-3.319-9.947-1.714,9.947h-2.924Z" transform="translate(-4088.31 -32.225)"/>
          <path id="Path_34707" data-name="Path 34707" d="M5800.709,347.99a6.2,6.2,0,0,1,3.1.823,6.015,6.015,0,0,1,3.085,5.275,6.1,6.1,0,0,1-.819,3.074,5.921,5.921,0,0,1-2.237,2.237,6.206,6.206,0,0,1-3.121.808,5.831,5.831,0,0,1-4.285-1.777,6.12,6.12,0,0,1,4.274-10.44Zm.044,2.742a3.013,3.013,0,0,0-2.27.943,3.362,3.362,0,0,0-.907,2.42,3.412,3.412,0,0,0,.9,2.453,3,3,0,0,0,2.271.939,3.044,3.044,0,0,0,2.284-.95,3.737,3.737,0,0,0,.015-4.873A3.034,3.034,0,0,0,5800.753,350.732Z" transform="translate(-5724.537 -343.779)"/>
          <path id="Path_34708" data-name="Path 34708" d="M6967.686,0h2.917V16.142h-2.917V14.9a5.705,5.705,0,0,1-1.719,1.166,4.837,4.837,0,0,1-1.867.358,5.2,5.2,0,0,1-3.911-1.747,6.067,6.067,0,0,1-1.649-4.339,6.235,6.235,0,0,1,1.6-4.412,5.1,5.1,0,0,1,3.876-1.718,5,5,0,0,1,1.97.391,5.436,5.436,0,0,1,1.7,1.181V0Zm-3.074,6.887a2.953,2.953,0,0,0-2.256.958,3.438,3.438,0,0,0-.9,2.453,3.481,3.481,0,0,0,.914,2.482,2.976,2.976,0,0,0,2.253.972,3.008,3.008,0,0,0,2.284-.958,3.485,3.485,0,0,0,.91-2.508,3.393,3.393,0,0,0-.91-2.46,3.06,3.06,0,0,0-2.3-.939Z" transform="translate(-6874.332 0)"/>
          <path id="Path_34709" data-name="Path 34709" d="M8165.435,354.941h-9.377a3.169,3.169,0,0,0,1.082,1.985,3.376,3.376,0,0,0,2.241.735,3.858,3.858,0,0,0,2.8-1.151l2.449,1.159a5.836,5.836,0,0,1-2.2,1.934,6.868,6.868,0,0,1-3.041.625,6,6,0,0,1-4.448-1.725,5.868,5.868,0,0,1-1.719-4.317,6.061,6.061,0,0,1,1.719-4.416,5.759,5.759,0,0,1,4.306-1.758,6,6,0,0,1,4.471,1.751,6.319,6.319,0,0,1,1.722,4.628l-.011.552Zm-2.906-2.281a2.888,2.888,0,0,0-1.141-1.554,3.366,3.366,0,0,0-1.98-.6,3.547,3.547,0,0,0-2.146.673,3.76,3.76,0,0,0-1.071,1.477Z" transform="translate(-8054.564 -343.799)"/>
          <path id="Path_34710" data-name="Path 34710" d="M3000.455,403.94a1.046,1.046,0,1,1,.661-1.324,1.046,1.046,0,0,1-.661,1.324Zm2.027-4.345a.643.643,0,1,1-.808.417.643.643,0,0,1,.808-.417Zm1.8-1.96a.643.643,0,1,1-.808.417A.642.642,0,0,1,3004.285,397.635Zm-5.889-1.551a.837.837,0,1,1-.531,1.059A.837.837,0,0,1,2998.4,396.085Zm4.381-1.158a.837.837,0,1,1-.531,1.058.837.837,0,0,1,.531-1.058Zm-1.816,1.923a.837.837,0,1,1-.531,1.058.837.837,0,0,1,.531-1.058Zm-.811-2.426a.837.837,0,1,1-.531,1.058A.837.837,0,0,1,3000.15,394.424Zm-1.154,5.74a1.046,1.046,0,1,1,1.313-.682,1.047,1.047,0,0,1-1.313.682Zm4.544,2.617a.359.359,0,1,1-.082-.5A.359.359,0,0,1,3003.54,402.78Zm2.447-2.363a.412.412,0,1,1-.414-.41.411.411,0,0,1,.414.41Zm.543-3.356a.421.421,0,1,1-.589-.09.421.421,0,0,1,.589.09Zm-1.474-3.24a.643.643,0,1,1-.808.417.643.643,0,0,1,.808-.417Zm-3.226-1.726a.837.837,0,1,1-.531,1.059A.837.837,0,0,1,3001.83,392.1Zm-3.644.629a.936.936,0,1,1,.216,1.305.936.936,0,0,1-.216-1.305Zm-2.607,2.709a1.047,1.047,0,1,1,1.054,1.039,1.046,1.046,0,0,1-1.054-1.039Zm-.4,3.724a1.046,1.046,0,1,1,1.464.221,1.047,1.047,0,0,1-1.464-.221Zm1.863,3.25a1.046,1.046,0,1,1,1.313-.682,1.047,1.047,0,0,1-1.313.682Z" transform="translate(-2958.727 -387.309)" fill-rule="evenodd" fill="url(#linear-gradient-2)"/>
        </g>
      </g>
    </g>
  </g>
</svg>
