<svg xmlns="http://www.w3.org/2000/svg" width="255" height="21" viewBox="0 0 255 21">
  <g id="Group_42760" data-name="Group 42760" transform="translate(-1135 -178)">
    <text id="Customer_Details" data-name="Customer Details" transform="translate(1135 195)" fill="#2b3347" font-size="16" font-family="SegoeUI, Segoe UI"><tspan x="0" y="0">Customer Details</tspan></text>
    <g id="Group_42759" data-name="Group 42759" transform="translate(2)">
      <g id="Oprions" transform="translate(1388 188) rotate(90)">
        <g id="dots-vertical" transform="translate(-0.25)">
          <g id="Icon_Color" data-name="Icon Color">
            <g id="Group_42566" data-name="Group 42566" transform="translate(-5902.239 -5023)">
              <g id="Group_42564" data-name="Group 42564" transform="translate(5902.489 5023)">
                <path id="Path" d="M2,0A2,2,0,1,0,4,2,2.006,2.006,0,0,0,2,0Z" transform="translate(0 6)" fill="#8e9caa"/>
                <path id="Path-2" data-name="Path" d="M2,0A2,2,0,1,0,4,2,2.006,2.006,0,0,0,2,0Z" fill="#8e9caa"/>
                <path id="Path-3" data-name="Path" d="M2,0A2,2,0,1,0,4,2,2.006,2.006,0,0,0,2,0Z" transform="translate(0 12)" fill="#8e9caa"/>
              </g>
            </g>
          </g>
        </g>
      </g>
    </g>
  </g>
</svg>


