<svg xmlns="http://www.w3.org/2000/svg" width="13" height="13" viewBox="0 0 13 13">
  <path id="Path_34523" data-name="Path 34523" d="M3.444,15H13.556A1.444,1.444,0,0,0,15,13.556V5.611a.722.722,0,0,0-.209-.513L11.9,2.209A.722.722,0,0,0,11.389,2H3.444A1.444,1.444,0,0,0,2,3.444V13.556A1.444,1.444,0,0,0,3.444,15Zm7.222-1.444H6.333V9.944h4.333ZM9.222,4.889H7.778V3.444H9.222ZM3.444,3.444H4.889V6.333h5.778V3.444h.426l2.463,2.463v7.648H12.111V9.944A1.444,1.444,0,0,0,10.667,8.5H6.333A1.444,1.444,0,0,0,4.889,9.944v3.611H3.444Z" transform="translate(-2 -2)" fill="#fff"/>
</svg>
