<svg xmlns="http://www.w3.org/2000/svg" width="116.863" height="43.879" viewBox="0 0 116.863 43.879">
  <path id="Path_34406" data-name="Path 34406" d="M14.283,35.522a6.115,6.115,0,0,1-1.012,3.352,12.231,12.231,0,0,1-2.545,2.846,15.633,15.633,0,0,1-3.32,2.1,13.718,13.718,0,0,1-3.367,1.123,18.677,18.677,0,0,0,3.589,2.071,34.677,34.677,0,0,0,3.9,1.439q.221.064.427.126a2.794,2.794,0,0,0,.427.095,1.883,1.883,0,0,0,.411.031,3.452,3.452,0,0,1,.569.048,1.577,1.577,0,0,1,.49.157.335.335,0,0,1,.206.3,1.551,1.551,0,0,1-.458,1.17,1.636,1.636,0,0,1-1.185.442,6.91,6.91,0,0,1-1.992-.471q-1.36-.471-2.861-1.123T4.747,47.916A12.964,12.964,0,0,1,2.9,46.842a6.92,6.92,0,0,0-.174.759q-.078.442-.126.917t-.064.933q-.016.458-.016.807,0,.411.031.774a2.267,2.267,0,0,1-.031.664,1.291,1.291,0,0,1-.269.553,1.907,1.907,0,0,1-.679.471,1.889,1.889,0,0,1-.727.157.647.647,0,0,1-.664-.364,1.922,1.922,0,0,1-.157-.774q0-2.372.095-4.521t.348-4.237q.253-2.087.664-4.19t1.012-4.411q.095-.314.221-.822a8.4,8.4,0,0,1,.314-1,7.346,7.346,0,0,1,.427-.917,1.36,1.36,0,0,1,.553-.585,1.842,1.842,0,0,1,.822-.157,1.759,1.759,0,0,1,.949.235.941.941,0,0,1,.385.876,3.191,3.191,0,0,1-.142.822q-.142.506-.314,1.059T4.99,34.984q-.19.537-.285.885A46.726,46.726,0,0,0,3.213,43.9a23.764,23.764,0,0,0,2.911-.917,13.971,13.971,0,0,0,2.925-1.517,9.1,9.1,0,0,0,2.261-2.182,4.779,4.779,0,0,0,.917-2.877,4.232,4.232,0,0,0-.774-2.511,7.209,7.209,0,0,0-1.961-1.866,10.517,10.517,0,0,0-2.577-1.218,13.143,13.143,0,0,0-2.589-.569A5.179,5.179,0,0,0,3.74,30.2a5.074,5.074,0,0,1-.791-.095,2.336,2.336,0,0,1-.679-.235.511.511,0,0,1-.285-.471,1.46,1.46,0,0,1,.122-.516,1.363,1.363,0,0,1,.522-.727,2.3,2.3,0,0,1,.9-.126q.253,0,.522.016t.522.047a21.315,21.315,0,0,1,3.225.68,12.6,12.6,0,0,1,3.146,1.375,8.136,8.136,0,0,1,2.387,2.213,5.3,5.3,0,0,1,.949,3.162Zm93.723,11.952a7.365,7.365,0,0,0,.15,1.141,4.543,4.543,0,0,0,.506,1.36,3.008,3.008,0,0,0,.933,1,2.511,2.511,0,0,0,1.439.392,3.664,3.664,0,0,0,1.3-.235,6.064,6.064,0,0,0,1.17-.585,6,6,0,0,0,1.55-1.455,8.763,8.763,0,0,0,1.043-1.834,9.659,9.659,0,0,0,.6-2.04,11.911,11.911,0,0,0,.19-2.1,8.048,8.048,0,0,0-.142-1.486,4.925,4.925,0,0,0-.471-1.391,2.97,2.97,0,0,0-.9-1.043,2.423,2.423,0,0,0-1.455-.411,3.923,3.923,0,0,0-2.511.869,7.887,7.887,0,0,0-1.85,2.134A10.717,10.717,0,0,0,108.4,44.5l-.035.132a.639.639,0,0,0-.329.314q-.19.348-.314.6a12.552,12.552,0,0,1-.949,1.517,9.263,9.263,0,0,1-1.28,1.439,6.763,6.763,0,0,1-1.534,1.059,3.837,3.837,0,0,1-1.739.411,3.341,3.341,0,0,1-.98-.163c.19-.817.364-1.639.522-2.461s.343-1.633.553-2.432a17.406,17.406,0,0,1,.506-1.692,5.2,5.2,0,0,0,.314-1.726.771.771,0,0,0-.458-.7,1.761,1.761,0,0,0-.838-.253,1.093,1.093,0,0,0-.885.427,7.815,7.815,0,0,0-.6.838q-.157.285-.506.949t-.774,1.486q-.427.822-.917,1.692t-.964,1.6a8.842,8.842,0,0,1-.9,1.185,1.149,1.149,0,0,1-.743.458.379.379,0,0,1-.3-.126.747.747,0,0,1-.157-.314,2.368,2.368,0,0,1-.064-.392q-.016-.206-.016-.332a5.665,5.665,0,0,1,.49-2.134,13.449,13.449,0,0,1,1.24-2.335,19.415,19.415,0,0,1,1.628-2.118A9.931,9.931,0,0,1,100,39.916a2.653,2.653,0,0,1,.458-.3,4.081,4.081,0,0,0,.506-.314,1.759,1.759,0,0,0,.392-.392.849.849,0,0,0,.157-.506.678.678,0,0,0-.269-.617,1.228,1.228,0,0,0-.68-.174,3.464,3.464,0,0,0-1.928.6,12.984,12.984,0,0,0-1.648,1.265,13.64,13.64,0,0,0-2.861,3.873,10.424,10.424,0,0,0-.785,2.141h0q-.222.334-.508.752a17.217,17.217,0,0,1-1.3,1.66,11.14,11.14,0,0,1-1.455,1.391,2.292,2.292,0,0,1-1.375.585.706.706,0,0,1-.632-.348,2.638,2.638,0,0,1-.332-.822,4.886,4.886,0,0,1-.126-.949Q87.6,47.291,87.6,47a13.7,13.7,0,0,1,.285-2.814q.095-.348.253-.807l.314-.917q.157-.459.269-.885a3.021,3.021,0,0,0,.111-.743q0-.7-.727-.7a1.849,1.849,0,0,0-1.5.585,4.362,4.362,0,0,0-.774,1.439,17.728,17.728,0,0,0-.458,1.913,11.556,11.556,0,0,0-.2,1.6.841.841,0,0,0-.356.264q-.253.3-.411.522-.314.411-.885,1.059a15.281,15.281,0,0,1-1.233,1.249A9.688,9.688,0,0,1,80.942,49.8a2.358,2.358,0,0,1-1.218.427.628.628,0,0,1-.49-.19,1.157,1.157,0,0,1-.253-.442,2.244,2.244,0,0,1-.095-.553q-.016-.3-.016-.522a30.211,30.211,0,0,1,.222-3.655,30.178,30.178,0,0,0,.221-3.649,3.826,3.826,0,0,0-.111-.9,2.816,2.816,0,0,0-.348-.838,2.076,2.076,0,0,0-.617-.632,1.558,1.558,0,0,0-.885-.253,2.432,2.432,0,0,0-1.407.471A7.1,7.1,0,0,0,74.682,40.2,15.44,15.44,0,0,0,73.6,41.59q-.506.727-.885,1.265-.632.917-1.28,1.818t-1.218,1.85q-.064.095-.206.332t-.235.235q-.064,0-.095-.095a.518.518,0,0,1-.031-.126,3.787,3.787,0,0,1-.126-.98v-1q0-.917.031-1.834t.031-1.834a7.269,7.269,0,0,0-.048-.759,3.852,3.852,0,0,0-.19-.854,2.034,2.034,0,0,0-.392-.7.883.883,0,0,0-.7-.285,2.238,2.238,0,0,0-1.391.648,11.387,11.387,0,0,0-1.473,1.532q-.712.885-1.313,1.8t-.949,1.423q.157-.917.38-1.834a12.393,12.393,0,0,1,.569-1.771q.126-.314.314-.759l.382-.9a8.383,8.383,0,0,0,.314-.9,2.833,2.833,0,0,0,.126-.759.885.885,0,0,0-.157-.553.6.6,0,0,0-.506-.206,3.488,3.488,0,0,0-1.391.314,2.165,2.165,0,0,0-1.075.949,9.362,9.362,0,0,0-.471,1.328q-.285.949-.569,2.2t-.569,2.64q-.168.821-.308,1.6a.8.8,0,0,0-.151.153q-.206.269-.364.49a14.58,14.58,0,0,1-.887,1.186q-.6.743-1.3,1.47a11.8,11.8,0,0,1-1.407,1.265,2.19,2.19,0,0,1-1.249.537.475.475,0,0,1-.522-.427,4.158,4.158,0,0,1-.078-.743,13.265,13.265,0,0,1,.19-2.245q.19-1.107.442-2.213a5.64,5.64,0,0,0,.157-1.233,2.792,2.792,0,0,0-.442-1.66A4.329,4.329,0,0,0,53.5,40.914q-.62-.427-1.247-.791a2.976,2.976,0,0,1-1.012-.933,12.216,12.216,0,0,0,.095-1.517q0-.253-.031-.664a3.523,3.523,0,0,0-.157-.807,3.027,3.027,0,0,0-.314-.7.6.6,0,0,0-.537-.3,1.047,1.047,0,0,0-.822.411,3.718,3.718,0,0,0-.585.98,5.736,5.736,0,0,0-.348,1.17,5.638,5.638,0,0,0-.111.98,5.212,5.212,0,0,0,.19,1.407,3.589,3.589,0,0,0,.632,1.249,7.726,7.726,0,0,1-1,3q-.807,1.391-1.726,2.719a1.569,1.569,0,0,0-.206.332.869.869,0,0,0-.078.364.363.363,0,0,0,.411.411.8.8,0,0,0,.471-.157,3.012,3.012,0,0,0,.38-.314,7.208,7.208,0,0,0,.979-1.236,16.181,16.181,0,0,0,.822-1.455q.38-.759.68-1.517t.553-1.455a3.893,3.893,0,0,1,1.28.7,1.546,1.546,0,0,1,.585,1.265q0,.885-.078,1.739t-.078,1.739q0,.569.047,1.328A5.712,5.712,0,0,0,52.57,50.3a3.127,3.127,0,0,0,.664,1.154,1.589,1.589,0,0,0,1.233.479,3.171,3.171,0,0,0,1.692-.606,11.36,11.36,0,0,0,1.8-1.455,20.227,20.227,0,0,0,1.612-1.765l.19-.235q-.068.457-.126.869a11.933,11.933,0,0,0-.142,1.486.785.785,0,0,0,.157.49.561.561,0,0,0,.471.206.909.909,0,0,0,.712-.3,2.554,2.554,0,0,0,.427-.648q.157-.38.6-1.2t1.043-1.866q.6-1.043,1.28-2.15t1.327-2.025a13.794,13.794,0,0,1,1.2-1.5q.553-.585.869-.585a.257.257,0,0,1,.285.253,3.465,3.465,0,0,1,.031.411v2.972q0,1.043.064,2.15t.19,2.04A7.4,7.4,0,0,0,68.5,50q.221.6.537.6a.765.765,0,0,0,.506-.157,1.706,1.706,0,0,0,.348-.411q.253-.38.712-1.218t1.059-1.883q.6-1.043,1.28-2.166t1.328-2.04a12.6,12.6,0,0,1,1.218-1.5,1.544,1.544,0,0,1,.949-.585.348.348,0,0,1,.3.157,1.03,1.03,0,0,1,.157.364,2.766,2.766,0,0,1,.064.427q.016.221.016.348,0,1.455-.142,2.877t-.142,2.846q0,.57.047,1.3a5.519,5.519,0,0,0,.269,1.391,2.877,2.877,0,0,0,.648,1.107,1.612,1.612,0,0,0,1.218.442,3.71,3.71,0,0,0,1.786-.537,12.51,12.51,0,0,0,1.9-1.312,16.741,16.741,0,0,0,1.707-1.629q.559-.616.961-1.116.016.181.035.373a7,7,0,0,0,.411,1.771,4.2,4.2,0,0,0,.869,1.423,1.968,1.968,0,0,0,1.5.585,3.272,3.272,0,0,0,1.739-.553,11.071,11.071,0,0,0,1.726-1.344,16.156,16.156,0,0,0,1.534-1.66h0v.111a6.471,6.471,0,0,0,.078.964,3.032,3.032,0,0,0,.3.949,2.233,2.233,0,0,0,.569.712,1.4,1.4,0,0,0,.917.285,1.9,1.9,0,0,0,.49-.064q.235-.064.49-.126A3.107,3.107,0,0,0,97.12,49.8a17.866,17.866,0,0,0,1.3-1.648q.632-.9,1.154-1.8t.774-1.439q-.411,1.517-.9,2.956t-.933,2.925q-.885,3.067-1.517,6.182a31.618,31.618,0,0,0-.632,6.308q0,.38.064,1.059a6.72,6.72,0,0,0,.253,1.312,3.838,3.838,0,0,0,.522,1.107,1.02,1.02,0,0,0,.869.471,1.126,1.126,0,0,0,.648-.206,3.024,3.024,0,0,0,.553-.49,6.119,6.119,0,0,0,.822-1.2,8.969,8.969,0,0,0,.774-2.134,22.162,22.162,0,0,0,.458-2.589q.157-1.344.221-2.656t.064-2.324q0-1.043-.031-2.134a9.814,9.814,0,0,0-.285-2.1,1.467,1.467,0,0,0,.285.031h.285A5.178,5.178,0,0,0,103.918,51a8.118,8.118,0,0,0,1.85-1.107,10.088,10.088,0,0,0,1.565-1.544q.362-.444.672-.887Zm.34-2.789c-.012.045-.023.089-.034.134.01-.047.022-.091.034-.137Zm-.078.314q-.02.088-.039.176.02-.093.041-.18Zm5.642-4.128a1.145,1.145,0,0,1,.822.3,2.252,2.252,0,0,1,.506.727,3.286,3.286,0,0,1,.253.933,7.258,7.258,0,0,1,.064.885,9.315,9.315,0,0,1-.126,1.5,8.08,8.08,0,0,1-.392,1.5,6.733,6.733,0,0,1-.7,1.375,4.744,4.744,0,0,1-1.028,1.123,3.5,3.5,0,0,1-.679.427,1.774,1.774,0,0,1-.774.174,1.177,1.177,0,0,1-.791-.269,1.855,1.855,0,0,1-.49-.648,2.976,2.976,0,0,1-.235-.838,6.178,6.178,0,0,1-.064-.838,8.639,8.639,0,0,1,.235-1.8,10.545,10.545,0,0,1,.7-2.087,6.37,6.37,0,0,1,1.137-1.744,2.087,2.087,0,0,1,1.565-.727ZM100.03,52.818q-.38,1.648-.727,3.272t-.632,3.3q-.221,1.2-.38,2.387a18.044,18.044,0,0,0-.157,2.387v.314a2.809,2.809,0,0,0,.031.427,1.438,1.438,0,0,0,.111.38q.078.174.206.174.157,0,.3-.221a3.636,3.636,0,0,0,.206-.348,8.072,8.072,0,0,0,.6-1.883,24.351,24.351,0,0,0,.392-2.467q.139-1.281.206-2.511t.064-2.056q0-.791-.031-1.581a10.105,10.105,0,0,0-.19-1.581ZM88.868,35.3a1.3,1.3,0,0,0-1.059.537,1.8,1.8,0,0,0-.427,1.138,1.321,1.321,0,0,0,.285.838.948.948,0,0,0,.791.364,1.361,1.361,0,0,0,1.075-.522,1.742,1.742,0,0,0,.442-1.154,1.277,1.277,0,0,0-.3-.838A.992.992,0,0,0,88.868,35.3ZM36.255,47.16a7.133,7.133,0,0,0,.157,1.455,4.543,4.543,0,0,0,.506,1.36,3.008,3.008,0,0,0,.933,1,2.511,2.511,0,0,0,1.439.392,3.664,3.664,0,0,0,1.3-.235,6.066,6.066,0,0,0,1.17-.585,6,6,0,0,0,1.55-1.455,8.763,8.763,0,0,0,1.043-1.834,9.657,9.657,0,0,0,.6-2.04,11.908,11.908,0,0,0,.19-2.1A8.047,8.047,0,0,0,45,41.626a4.924,4.924,0,0,0-.471-1.391,2.97,2.97,0,0,0-.9-1.043,2.423,2.423,0,0,0-1.455-.411,3.923,3.923,0,0,0-2.511.869,7.887,7.887,0,0,0-1.85,2.134A10.717,10.717,0,0,0,36.656,44.5a10.2,10.2,0,0,0-.392,2.656Zm5.912-6.292a1.145,1.145,0,0,1,.822.3,2.251,2.251,0,0,1,.506.727,3.287,3.287,0,0,1,.253.933,7.261,7.261,0,0,1,.064.885,9.313,9.313,0,0,1-.126,1.5,8.081,8.081,0,0,1-.392,1.5,6.734,6.734,0,0,1-.7,1.375,4.744,4.744,0,0,1-1.028,1.123,3.5,3.5,0,0,1-.679.427,1.774,1.774,0,0,1-.774.174,1.177,1.177,0,0,1-.791-.269,1.854,1.854,0,0,1-.49-.648,2.976,2.976,0,0,1-.235-.838,6.179,6.179,0,0,1-.064-.838,8.637,8.637,0,0,1,.235-1.8,10.546,10.546,0,0,1,.7-2.087A6.371,6.371,0,0,1,40.6,41.59a2.087,2.087,0,0,1,1.565-.727ZM30.785,43.521q.411,0,.949.016a4.48,4.48,0,0,0,1.012-.078,1.738,1.738,0,0,0,.807-.38,1.1,1.1,0,0,0,.332-.885q0-.253-.174-.314a1.058,1.058,0,0,0-.364-.064,2.491,2.491,0,0,0-.49.047q-.235.047-.49.111-.38.064-.759.095t-.791.031q-.285,0-.712-.016t-.869-.048q-.442-.031-.854-.095a3.419,3.419,0,0,1-.664-.157,45.191,45.191,0,0,1,1.551-6.5,66.434,66.434,0,0,1,2.339-6.248q.411-.917.869-1.818t.872-1.815a3.156,3.156,0,0,0,.206-.522,2.065,2.065,0,0,0,.078-.585,1.247,1.247,0,0,0-.174-.664.664.664,0,0,0-.617-.285,2.427,2.427,0,0,0-.632.095,4.613,4.613,0,0,0-.7.253,4.288,4.288,0,0,0-.648.364,3.459,3.459,0,0,0-.49.392,2.511,2.511,0,0,0-.411.632l-.314.7a71.88,71.88,0,0,0-3.557,12.41,67.008,67.008,0,0,0-.952,7.061l-.045.07A14.374,14.374,0,0,1,23.989,46.9,9.247,9.247,0,0,1,22.6,48.309a7.35,7.35,0,0,1-1.648,1.012,4.6,4.6,0,0,1-1.9.392,1.872,1.872,0,0,1-1.581-.617A2.738,2.738,0,0,1,17,47.4a6.342,6.342,0,0,1,.157-1.334,5.4,5.4,0,0,0,1.579-.945,11.768,11.768,0,0,0,1.6-1.6,10.411,10.411,0,0,0,1.233-1.87,3.951,3.951,0,0,0,.49-1.76,2.04,2.04,0,0,0-.458-1.365,1.63,1.63,0,0,0-1.312-.537,3.354,3.354,0,0,0-2.324.98,9.1,9.1,0,0,0-1.819,2.389,13.667,13.667,0,0,0-1.17,2.925,10.181,10.181,0,0,0-.411,2.589,6.826,6.826,0,0,0,.19,1.628,3.821,3.821,0,0,0,.617,1.36,3.28,3.28,0,0,0,1.091.949,3.315,3.315,0,0,0,1.612.364,7.281,7.281,0,0,0,2.5-.432,9.477,9.477,0,0,0,2.245-1.17,11.109,11.109,0,0,0,1.913-1.718q.133-.149.259-.3Q24.9,49.3,24.9,51.074q0,.442.016,1.218t.095,1.648q.078.869.235,1.771a8.132,8.132,0,0,0,.458,1.648,3.56,3.56,0,0,0,.759,1.2,1.527,1.527,0,0,0,1.123.458,3.5,3.5,0,0,0,2.511-.949,7.073,7.073,0,0,0,1.6-2.326,11.7,11.7,0,0,0,.838-2.909,17.946,17.946,0,0,0,.235-2.7,16.414,16.414,0,0,0-.095-1.676,13.9,13.9,0,0,0-.314-1.834,9.4,9.4,0,0,0-.6-1.739,4.1,4.1,0,0,0-.98-1.36Zm-3.542.632a4.772,4.772,0,0,1,1.534,1.233,6.713,6.713,0,0,1,1,1.676,9.022,9.022,0,0,1,.553,1.928,11.563,11.563,0,0,1,.174,1.961v.095q0,.632-.047,1.249a10.451,10.451,0,0,1-.174,1.249,10.163,10.163,0,0,1-.269,1.138,10.042,10.042,0,0,1-.522,1.423,4.869,4.869,0,0,1-.759,1.2,1.318,1.318,0,0,1-1.012.506q-.442,0-.712-.617a6.287,6.287,0,0,1-.411-1.439,12.312,12.312,0,0,1-.174-1.6q-.031-.774-.031-1.123a39.247,39.247,0,0,1,.253-4.459q.253-2.213.6-4.426Zm-7.114-4.707a.425.425,0,0,1,.427.235,1.17,1.17,0,0,1,.111.5,2.9,2.9,0,0,1-.348,1.317A8.541,8.541,0,0,1,18.358,44a9.1,9.1,0,0,1-1.107.843,10.074,10.074,0,0,1,.348-1.317,15.6,15.6,0,0,1,.7-1.813,9.95,9.95,0,0,1,.885-1.591c.314-.458.632-.685.949-.685Z" transform="translate(-0.021 -23.344)" fill="#5c5ad0" fill-rule="evenodd"/>
</svg>
