<svg xmlns="http://www.w3.org/2000/svg" width="15" height="14.435" viewBox="0 0 15 14.435">
  <path id="Path_34347" data-name="Path 34347" d="M12.426,15.933a1.53,1.53,0,0,0,1.072-.426l2.032-1.956a.7.7,0,0,0,0-1.018l-3-2.887a.771.771,0,0,0-1.057,0l-1.2,1.147a5.738,5.738,0,0,1-2.25-1.147A5.434,5.434,0,0,1,6.832,7.483L8.024,6.328a.7.7,0,0,0,0-1.018l-3-2.887a.771.771,0,0,0-1.057,0L1.942,4.387A1.416,1.416,0,0,0,1.5,5.419,10.822,10.822,0,0,0,4.725,12.83a11.689,11.689,0,0,0,7.7,3.1ZM4.5,3.961,6.442,5.83l-.967.931a.705.705,0,0,0-.225.657,7.208,7.208,0,0,0,1.725,3.247,7.67,7.67,0,0,0,3.375,1.66.769.769,0,0,0,.682-.195L12,11.177l1.942,1.869-1.5,1.443A10.16,10.16,0,0,1,5.79,11.813,9.4,9.4,0,0,1,3,5.4ZM15,7.995h1.5a6.234,6.234,0,0,0-1.934-4.634A6.745,6.745,0,0,0,9.749,1.5V2.943a5.185,5.185,0,0,1,3.765,1.428A4.789,4.789,0,0,1,15,7.995Z" transform="translate(-1.5 -1.498)" fill="#566a76"/>
 
</svg>
