<svg xmlns="http://www.w3.org/2000/svg" xmlns:xlink="http://www.w3.org/1999/xlink" width="153.187" height="23.052" viewBox="0 0 153.187 23.052">
  <defs>
    <linearGradient id="linear-gradient" x1="0.963" y1="0.326" x2="0.242" y2="0.561" gradientUnits="objectBoundingBox">
      <stop offset="0" stop-color="#7e3dff"/>
      <stop offset="1" stop-color="#8f17e8"/>
    </linearGradient>
  </defs>
  <g id="Layer_x0020_1" transform="translate(0.01 0)">
    <g id="_2977988317872" transform="translate(-0.01 0)">
      <path id="Path_34659" data-name="Path 34659" d="M8.414,32.62h4.171l8.373,21.756H16.651l-1.7-4.485H6.035L4.3,54.376H-.01L8.414,32.62ZM10.5,38.4,7.555,45.892h5.883Z" transform="translate(0.01 -32.075)"/>
      <path id="Path_34660" data-name="Path 34660" d="M1419.43,371.52h4.091v7.737a10.691,10.691,0,0,0,.313,3.136,2.756,2.756,0,0,0,1,1.369,2.892,2.892,0,0,0,1.7.485,3,3,0,0,0,1.717-.48,2.8,2.8,0,0,0,1.045-1.409,10.872,10.872,0,0,0,.253-2.97V371.52h4.03v6.808a16.666,16.666,0,0,1-.667,5.762,6.279,6.279,0,0,1-2.4,2.9,7.376,7.376,0,0,1-4.025,1.01,7.142,7.142,0,0,1-4.283-1.182,6.238,6.238,0,0,1-2.3-3.293,19.8,19.8,0,0,1-.475-5.318V371.52Z" transform="translate(-1395.699 -365.309)"/>
      <path id="Path_34661" data-name="Path 34661" d="M2415.02,16.31h4.03v5.939h2.394v3.485h-2.394V38.339h-4.03V25.734h-2.06V22.249h2.06Z" transform="translate(-2372.619 -16.037)"/>
      <path id="Path_34662" data-name="Path 34662" d="M4142.142,32.62h4.015l5.065,15.176,5.09-15.176h4l3.646,21.756h-3.994l-2.323-13.741-4.606,13.741h-3.656L4144.8,40.635l-2.369,13.741h-4.04Z" transform="translate(-4069.203 -32.075)"/>
      <path id="Path_34663" data-name="Path 34663" d="M5803.017,347.99a8.567,8.567,0,0,1,4.288,1.136,8.31,8.31,0,0,1,4.262,7.287,8.42,8.42,0,0,1-1.131,4.247,8.182,8.182,0,0,1-3.09,3.091,8.58,8.58,0,0,1-4.313,1.116,8.053,8.053,0,0,1-5.919-2.454,8.454,8.454,0,0,1,5.9-14.423Zm.061,3.788a4.166,4.166,0,0,0-3.136,1.3,4.645,4.645,0,0,0-1.252,3.343,4.712,4.712,0,0,0,1.237,3.389,4.147,4.147,0,0,0,3.136,1.3,4.205,4.205,0,0,0,3.156-1.313,5.164,5.164,0,0,0,.021-6.732A4.191,4.191,0,0,0,5803.078,351.778Z" transform="translate(-5697.782 -342.172)"/>
      <path id="Path_34664" data-name="Path 34664" d="M6971.175,0h4.03V22.3h-4.03V20.589A7.879,7.879,0,0,1,6968.8,22.2a6.692,6.692,0,0,1-2.581.495,7.18,7.18,0,0,1-5.4-2.414,8.381,8.381,0,0,1-2.277-5.995,8.612,8.612,0,0,1,2.207-6.1,7.038,7.038,0,0,1,5.353-2.374,6.911,6.911,0,0,1,2.722.54,7.521,7.521,0,0,1,2.354,1.631V0Zm-4.248,9.514a4.075,4.075,0,0,0-3.115,1.323,4.743,4.743,0,0,0-1.243,3.389,4.809,4.809,0,0,0,1.263,3.429A4.11,4.11,0,0,0,6966.943,19a4.155,4.155,0,0,0,3.156-1.323,4.815,4.815,0,0,0,1.258-3.464,4.686,4.686,0,0,0-1.258-3.4,4.225,4.225,0,0,0-3.172-1.3Z" transform="translate(-6842.205 0)"/>
      <path id="Path_34665" data-name="Path 34665" d="M8170.091,357.585h-12.954a4.374,4.374,0,0,0,1.495,2.742,4.664,4.664,0,0,0,3.1,1.015,5.331,5.331,0,0,0,3.874-1.591l3.384,1.6a8.064,8.064,0,0,1-3.035,2.672,9.5,9.5,0,0,1-4.2.864,8.287,8.287,0,0,1-6.146-2.384,8.107,8.107,0,0,1-2.374-5.964,8.373,8.373,0,0,1,2.374-6.1,7.957,7.957,0,0,1,5.949-2.429,8.289,8.289,0,0,1,6.176,2.419,8.727,8.727,0,0,1,2.379,6.393l-.016.763Zm-4.015-3.151a3.993,3.993,0,0,0-1.575-2.146,4.651,4.651,0,0,0-2.737-.823,4.9,4.9,0,0,0-2.964.929,5.186,5.186,0,0,0-1.48,2.04h8.757Z" transform="translate(-8016.919 -342.192)"/>
      <path id="Path_34666" data-name="Path 34666" d="M3002.548,408.475a1.446,1.446,0,1,1,.912-1.829,1.446,1.446,0,0,1-.912,1.829Zm2.8-6a.888.888,0,1,1-1.116.576.888.888,0,0,1,1.116-.576Zm2.491-2.708a.888.888,0,1,1-1.116.576A.888.888,0,0,1,3007.839,399.765Zm-8.136-2.142a1.156,1.156,0,1,1-.733,1.462A1.157,1.157,0,0,1,2999.7,397.623Zm6.052-1.6a1.156,1.156,0,1,1-.733,1.462,1.156,1.156,0,0,1,.733-1.462Zm-2.509,2.657a1.156,1.156,0,1,1-.733,1.462,1.157,1.157,0,0,1,.733-1.462Zm-1.12-3.351a1.156,1.156,0,1,1-.733,1.462A1.157,1.157,0,0,1,3002.126,395.328Zm-1.594,7.93a1.445,1.445,0,1,1,1.814-.942,1.445,1.445,0,0,1-1.814.942Zm6.278,3.615a.5.5,0,1,1-.113-.691A.5.5,0,0,1,3006.81,406.873Zm3.381-3.265a.569.569,0,1,1-.572-.566.569.569,0,0,1,.572.566Zm.75-4.636a.581.581,0,1,1-.813-.124.582.582,0,0,1,.813.124ZM3008.9,394.5a.889.889,0,1,1-1.116.576.888.888,0,0,1,1.116-.576Zm-4.457-2.384a1.156,1.156,0,1,1-.733,1.462A1.157,1.157,0,0,1,3004.447,392.112Zm-5.034.869a1.293,1.293,0,1,1,.3,1.8,1.293,1.293,0,0,1-.3-1.8Zm-3.6,3.742a1.446,1.446,0,1,1,1.456,1.435,1.446,1.446,0,0,1-1.456-1.435Zm-.559,5.144a1.446,1.446,0,1,1,2.022.3,1.446,1.446,0,0,1-2.022-.3Zm2.574,4.49a1.445,1.445,0,1,1,1.814-.942,1.445,1.445,0,0,1-1.814.942Z" transform="translate(-2944.898 -385.498)" fill-rule="evenodd" fill="url(#linear-gradient)"/>
    </g>
  </g>
</svg>
