<svg xmlns="http://www.w3.org/2000/svg" xmlns:xlink="http://www.w3.org/1999/xlink" width="26.073" height="26.743" viewBox="0 0 26.073 26.743">
  <defs>
    <linearGradient id="linear-gradient" x1="0.963" y1="0.326" x2="0.242" y2="0.561" gradientUnits="objectBoundingBox">
      <stop offset="0" stop-color="#7e3dff"/>
      <stop offset="1" stop-color="#8f17e8"/>
    </linearGradient>
  </defs>
  <path id="Path_34666" data-name="Path 34666" d="M3007.254,418.674a2.343,2.343,0,1,1,1.479-2.965,2.344,2.344,0,0,1-1.479,2.965Zm4.538-9.73a1.44,1.44,0,1,1-1.81.934,1.439,1.439,0,0,1,1.81-.934Zm4.039-4.389a1.44,1.44,0,1,1-1.81.934A1.439,1.439,0,0,1,3015.831,404.555Zm-13.189-3.473a1.875,1.875,0,1,1-1.188,2.371A1.874,1.874,0,0,1,3002.642,401.082Zm9.812-2.594a1.875,1.875,0,1,1-1.189,2.37,1.874,1.874,0,0,1,1.189-2.37Zm-4.067,4.306a1.875,1.875,0,1,1-1.189,2.37,1.875,1.875,0,0,1,1.189-2.37Zm-1.816-5.432a1.875,1.875,0,1,1-1.189,2.37A1.875,1.875,0,0,1,3006.57,397.362Zm-2.583,12.855a2.343,2.343,0,1,1,2.941-1.528,2.343,2.343,0,0,1-2.941,1.528Zm10.177,5.86a.8.8,0,1,1-.183-1.12A.8.8,0,0,1,3014.164,416.078Zm5.48-5.293a.922.922,0,1,1-.927-.917.922.922,0,0,1,.927.917Zm1.216-7.515a.942.942,0,1,1-1.317-.2.943.943,0,0,1,1.317.2Zm-3.3-7.255a1.44,1.44,0,1,1-1.81.934,1.439,1.439,0,0,1,1.81-.934Zm-7.226-3.865a1.875,1.875,0,1,1-1.188,2.371A1.875,1.875,0,0,1,3010.333,392.149Zm-8.161,1.409a2.1,2.1,0,1,1,.484,2.923A2.1,2.1,0,0,1,3002.172,393.558Zm-5.839,6.066a2.344,2.344,0,1,1,2.36,2.327,2.343,2.343,0,0,1-2.36-2.327Zm-.907,8.339a2.344,2.344,0,1,1,3.278.494,2.344,2.344,0,0,1-3.278-.494Zm4.172,7.278a2.343,2.343,0,1,1,2.941-1.528,2.343,2.343,0,0,1-2.941,1.528Z" transform="translate(-2994.969 -392.053)" fill-rule="evenodd" fill="url(#linear-gradient)"/>
</svg>
